<?xml version="1.0" encoding="UTF-8"?>
<svg id="_レイヤー_2" data-name="レイヤー 2" xmlns="http://www.w3.org/2000/svg" width="112.0028748" height="132.1434945" viewBox="0 0 112.0028748 132.1434945">
  <defs>
    <style>
      .cls-1 {
        fill: #dc4b22;
      }

      .cls-1, .cls-2 {
        fill-rule: evenodd;
      }

      .cls-2 {
        fill: #132b51;
      }
    </style>
  </defs>
  <g id="design">
    <g>
      <path class="cls-1" d="M112.0028748,27.7801972c-.1674-.1069-.3347-.2141-.5022-.3211.0312-.1154.0624-.2312.0936-.3466-.0938-.0253-.1853-.05-.2768-.0747-.0603-.1401-.1206-.2802-.181-.4204219-.1852-.05-.3682-.0992781-.5511-.1486781-.0604-.1401-.1207-.2803219-.181-.4204-.1853-.05-.3683-.0993-.5535-.1493-.1858-.13-1.3879-1.0215-1.4643-1.1386219.0312-.1153781.0623-.230878.0935-.346278-.0915-.024722-.183-.0494-.2745-.0741.0312-.1154.0624-.2312.0936-.346622-.1675-.106878-.3371-.214778-.5045-.321678.0311-.1155.0624-.231322.0935-.3467-.2612-.1322-.52-.2642-.7789-.3958-.0604-.1401-.1229-.2812-.1832-.4213-.183-.0494-.3683-.0994-.5512-.1488-.8522-.8063-2.1041-.2039-3.3048-.891722-.0604-.140078-.1207-.280278-.181-.420378-.5356-.206622-1.0712-.4129-1.6068-.6195-.0156.0578779-.0312.1154-.0468.1733-.656-.1149-1.3165-.231422-1.9725-.3463.0157-.0579.0312-.1154.0468-.1733-.2767-.0747-.5512-.1487-.8279-.2234.0156-.0579.0311-.1155.0468-.1733-.183-.0494-.366-.0988-.5489-.1482.0155-.0575.0311-.1154.0467-.1729221-1.3704-.7135779-2.2951-.0236779-3.4006-.5460779.0156-.0579221.0312-.1154.0468-.1733-.4449-.2428-1.6022-.8186221-2.4302-.8414-.0876-.0028-.1863.2812-.6447.1976-.2662-.2138221-2.4989-1.1778221-3.2113-1.2381-.0156.0576-.0312.1155-.0467.173-.4597-.124-.9171-.2475-1.3768-.3715-.0156.0579-.0312.1154-.0468.1733-2.0038-.6028-4.0101-1.2059-6.0117-1.8081-.0156.0579-.0311.1154-.0467.1733-.645-.174-1.2854-.3468-1.928-.5202-.8043-.0565222-2.5571.1198-3.7218-.4468.0156-.0579.0312-.1155.0468-.1733-.6127-.312-1.7-.6559-2.4769-.6684222-.0156.0579222-.0312.1154222-.0468.1733222-.1852-.05-.3682-.0993222-.5512-.1487-.328.0245-.1783.4789-1.1958.0489.0155-.0576.0312-.1155222.0467-.173-1.1627-.4376-2.3253-.8756-3.4857-1.3125222.0155-.0575777.0311-.1154777.0467-.173-1.1179-.2398777-2.2359-.4794777-3.3538-.7193777-.0156.0579-.0312.1153777-.0468.1733-.1829-.0493-.3659-.0987-.5489-.1481-.0156.0579-.0311.1155-.0468.1734-.444-.182-.8882-.3636-1.33-.5449.0156-.0579.0312-.1154.0468-.1733223-.4563-.2002777-1.8735-.2493777-2.2983-.2482777-.0155.0576-.0311.1155-.0467.173-.5489-.1481-1.1023-.2975-1.6512-.4456-.0157.0578777-.0312.1155-.0468.1734-.0915-.0247-.183-.0494-.2767-.0747.0156-.0579.0311-.1155.0467-.1733-.1829-.0494-.3659-.0988-.5512-.1488-.0603-.1401-.1206-.2802-.181-.4204-1.3924-.3136-2.7847-.6275-4.1772-.9412-.0155.0576-.0311.1155-.0466.173-.5668-.0908-1.1336-.182-1.7004-.2728.0157-.0579.0312-.1155.0468-.1734-.2744-.074-.5512-.1487-.8256-.2228-.0604-.1401224-.1207-.2802-.181-.4203-.183-.0494-.3682-.0994-.5512-.1488224.0156-.0578776.0311-.1153776.0468-.1732776-.1853-.05-.3682-.0994-.5512-.1487224.0155-.0575776.0311-.1154776.0467-.173-.5982-.3291776-1.4312-.3247776-1.8813-.6935776-.0447-.198-.0895-.3957-.1342-.5937-.0938-.0253-.1852-.05-.2767-.0747224-.1362-.2226776-.2725-.445-.4087-.6676776-.1852-.05-.3682-.0994-.5535-.1494-.0603-.1401-.1206-.2802-.181-.4204-.5355-.2066-1.0712-.4129-1.6044-.6189.0156-.0579.0311-.1154.0467-.1733-2.1166-.5032-3.317.0174-4.3234.6918-.1538.2062-.3076.4124-.4615.6188775-.2922-.0170775-.5846-.0338775-.8745-.0503775-.7674.2887-1.5347.577-2.302.8657-.062.6025-.1264,1.2048-.1906,1.8066.2367.4867,1.3339.7304.7728,1.5095-.0915-.0247-.1829-.0494223-.2744-.074-.0935.3463-.187.6929-.2805,1.0393-.0914-.0247223-.1829-.0494-.2767-.0747223-.0468.1733223-.0935.3463223-.1402.5196223-.0915-.0246223-.183-.0493-.2745-.074-.0623.2309-.1246.4617-.187.693-.0914-.0247-.1829-.0494-.2744-.0741-.0312.1154-.0623.2309-.0935.3463-.0914-.0247-.1829-.0493-.2767-.0746-.1246.4617-.2493.9237777-.3739,1.3856-.0915-.0247-.183-.0494-.2744-.0741-.0468.1732777-.0936.3467-.1403.5197-.0914-.0247-.1852-.05-.2767-.0747-.0779.2888-.1558.5775-.2338.8662778.0915.0247222.1853.05.2768.0747222-.185.3216-.3722.6426-.5572.9646.1338.7772.8976,1.7473,1.7374,2.3268999-.3508,1.209-.6515,1.6051-1.4824,2.2017779-.0311.1155221-.0623.2309221-.0934.3464221-.1986.0085-.3971.0167-.5957.0252-.1694.2641-.3387.5278-.5104.7913-.0915-.0247-.183-.0494-.2744-.0741-.2881.3309-.1426,1.0101779-.0528,1.2867.0938.0253.1852.05.2767.0747-.2628.6104-.5257,1.220778-.7908,1.8306l-.2745-.0741c-.3399.396.0009.8606-.006,1.1134-.0295.9731-.7371.7586-.4674,1.7323-.0467.173-.0935.3463-.1402.5195781.2003.4125219,1.3011.6976219.8219,1.3368219-.0915-.0247-.183-.0494-.2767-.0747-.0312.1155-.0623.2308781-.0935.3463-.0915-.0247-.183-.0493-.2744-.074-.0955.7177-.191,1.435-.2865,2.1525781-.1986.0086218-.3971.0167218-.5956.0253218-.0312.1154-.0623.2308-.0935.3463-.0915-.0247-.183-.0494-.2767-.0747-.4031.3390782-.6658,1.4762-.5609,2.0785999.0938.0253.1852.05.2767.0747-.2785.6683-.5568,1.3362-.8376,2.0038999-.1091.4042-.2181.8084-.3272,1.2127.0937.0253.1852.0499.2767.0746-.0311.1155-.0623.2309-.0934.3463.0914.0247.1829.0494.2744.0741-.0202.2931784-.5147.0891-.6447.1979-.0467.173-.0935.3464-.1402.5197-.0915-.0247-.183-.0494216-.2745-.0741-.0934.3464-.1869.6926784-.2804,1.0393.0915.0247.1829.0493784.2744.0741-.0155.0575-.0311.1154-.0467.173-.0914-.0247216-.1829-.0494-.2744-.0741-.7088,1.1448-.2365,2.1313784.7224,2.7967999-.2764.297-.5551.5933-.8317.8905785-.0914-.0246785-.1829-.0493785-.2744-.0740785-.417.418-.1726,1.3763-.1462,1.633-.2161.4370785-.4322.8742-.6484,1.3116l.2745.0741c-.0623.2308-.1246.4617-.187.6929-.2825.3467-1.1409.7003-1.0185,1.5832.0937.0252786.1852.05.2767.0747.1658,1.2404-1.6809,1.2463-1.2991,2.6228999.0915.0246787.183.0494.2745.074-.0312.1155-.0623.2309-.0935.3464.2456.1901.4889.3796.7321.5694-.1869.6926-.3739,1.3856-.5609,2.0785999-.0914-.0247212-.1829-.0494-.2744-.074-.0312.1154-.0623.2308-.0935.3462788-.0914-.0246788-.1829-.0493788-.2744-.0740788-.1402.5197-.2805,1.0393-.4207,1.559.5585.5126.6914,1.0020788,1.0496,1.5840788.1675.1069211.3348.2142211.5022.3211211-.0311.1155-.0624.2313-.0935.3467.0938.0253.1853.05.2767.0747.0137.3131.0272.6264789.0431.9406.3192.2721.6384.5438.9599.8165-.0157.0579-.0312.1153789-.0468.1733.5356.2063,1.0712.4129,1.6069.6192.0447.198.0894.3961.1342.5937.0915.0247.1829.0494.2744.0741.3902.4818.365.684079,1.1898,1.0645,1.0122.9772,4.558.8761,6.3352,1.7095-.0156.0579-.0311.1154-.0468.1733.8413.1649,1.6825.3301,2.526.4956.0156-.0579.0311-.1154.0468-.1733.4729.0659.9482.132,1.4235.198479-.0156.057621-.0312.115521-.0467.173.2744.0741209.5512.1487209.8256.2228209-.0156.0579-.0311.1154-.0468.1733.1853.05.3683.0994.5512.1488-.0156.0579-.0311.1154-.0468.1733.7145.371,2.6716.5017,3.1217.4704.1249-.0901.2475-.1809.3702-.2716209.3239.0268209,2.3551,1.3014209,3.7625,1.3868209.0155-.0576.0311-.1155.0467-.173.1829.0494.3682.0994.5512.1487.0156-.0579.0311-.1154.0467-.1733.268.0434,1.8609.869,2.7069.9164.0156-.0579.0311-.1155.0468-.1734.1829.0494.3659.0987791.5511.1487791.0157-.0578791.0312-.1154791.0468-.1733791.4773.059.4426.2965.5044.3221,1.1429.4747,1.9134.2562791,2.5704.322.2612.1322791.52.2642.7789.3958.0155-.0575209.0312-.1154.0467-.173.4597.1241.9194.2481,1.3791.3722.0156-.0579.0311-.1155.0468-.1734.9594-.0366,1.4759-.0141,1.9317-.5937.6183.418,1.5171,1.3882,2.8433,1.5107.0157-.0579.0312-.1154.0468-.1733208.5489.1481208,1.1024.2974208,1.6513.4455208.0156-.0579.0311-.1154.0467-.1733.2768.0747.5512.1487.828.2234.0155-.0575.0311-.1154.0466-.173.4575.1233792.9172.2475,1.3769.3715.0156-.0579.0311-.1154.0467-.1733.183.0494.366.0987.5489.1481.0156-.0579208.0312-.1154.0468-.1733.1852.05.3682.0993.5512.1487.1226-.0907.2475-.1809.3702-.2716.368.009.5021.3214.5021.3214.0915.0247.1852.05.2767.0747.0156-.0579.0312-.1154.0468-.1733.4597.124.9171.2474,1.3768.3714792.0156-.0578792.0312-.1154792.0468-.1733792.1829.0493792.3682.0993792.5512.1488.3367-.1569.6757-.3131,1.0125-.4699l.23.2477c.7474.1399,1.4995.2807,2.2492.4213.0156-.0579.0311-.1154.0467-.1733.6427.1734,1.2854.3467792,1.928.5202.0157-.0579.0312-.1154208.0468-.1733.2745.074.5489.1481.8256.2228.2297-.1236.4617-.247.6914-.371.4575.1235.9172.2475,1.3769.3716.0155-.0576.0311-.1155208.0466-.173.3816.0408.7653.0826,1.1492.1241.3759-.4838.8005-.4572,1.1528-.9899.5667.0912,1.1312.1815,1.698.2726.0156-.0579.0312-.1158.0467-.1733208,1.301.2889208,2.6018.5782208,3.9028.8672208.0155-.0576.0311-.1155.0467-.173.2636-.0404.5832-.1883.6447-.198.183.0494.3659.0987792.5512.1487792.2296-.1235792.4616-.247.6914-.3708792.2744.074.5489.1481.8256.2227.0155-.0575.0312-.1154.0467-.1729.183.0493.3682.0993.5512.1487.1227-.0911.2453-.1819.368-.2726208.1829.0493208.3682.0993208.5512.1487208.1381-.1483.2764-.2969.4169-.445.1985-.0081.3971-.0167208.5956-.0248.0312-.1158.0624-.2313.0935-.3467.3079-.0408.6135-.0822208.9214-.1229.1382-.1487.2764-.297.4147-.4456.7964-.0328,1.593-.0659,2.3894-.0987208.1561-.2055791.3099-.4117791.4636-.618.0915.0247209.183.0494209.2745.0741209.0935-.3467.187-.693.2804-1.0393l.2745.0741c.0312-.1158.0624-.2313.0935-.3467.0938.0253.1853.05.2768.0747.0466-.173.0934-.3464.1402-.5197.0915.0247.1829.0494.2744.0741-.0427-.5691-.0855-1.1381-.1305-1.7077-.1674-.1069-.3348-.2142-.5022-.3211.0312-.1158.0624-.2313.0935-.3467-.1674-.1069-.337-.214821-.5045-.3217.37-.6436.7422-1.2866,1.1121-1.9299-.0877-.966221-.9727-1.7146-1.0459-2.6980999-.183-.0494-.3682-.0994-.5512-.1487-.0364-1.0473-.7862-1.8781-2.2862-2.4754211.078-.2886788.1558-.5771788.2337-.8658788-.1673-.1073-.3348-.2142-.5044-.3221212-.6105-1.0473788-.8745-1.9874788-2.8375-2.6236788-.0334-1.6402-2.2645-4.2013999-4.5256-5.1239999-.0484-.4479-.2188-.7531-.5919-1.0887.5618-.218.7034.0301,1.1935-.0495.1226-.0908.2475-.1809.3703-.272.0915.0247.1829.0494.2744.0741.5937-.2816.6142-.6484,1.3828-.7419.109-.4038.2181-.8081.3272-1.2123214.5823.0333215,1.1623.066,1.747.0996215.1538-.2062.3076-.4124.4614-.6186215.0915.0247215.183.0493215.2744.074.0623-.2307785.1247-.4620785.187-.693.8433-.2060785,1.6865-.4121785,2.532-.6176785.4449-.2484.1499-.8102.6016-1.1382.3055-.0414.6134-.0821215.9191-.1239.6499-.2533,1.0655-.8205,1.293-1.5091.6894-.0181216,1.0092-.1664,1.7938-.0735.4675-.5868,1.6976-1.4539.6544-2.4252999.0155-.0575.0312-.1154.0467-.1729.6583.1155,1.3165.2313,1.9747.3469.0156-.0576.0312-.1155.0468-.1734.4126-.0742.8276-.1482,1.2426-.2222.0623-.2308.1246-.4617216.1869-.6926.183.0494.3659.0988.5489.1481.1383-.1486.2788-.2967.417-.445.0914.0247.1829.0494.2744.0741.0623-.2309.1247-.4621.187-.693.3079-.0408.6135-.0821.9191-.1235.5822-.3938217.4366-1.0454.4206-1.559.3839.0415.7676.0833,1.1492.1241783.3398-.4862783.6678-.62,1.1551-.9892783l.2745.0741c.0778-.2884.1557-.5772.2336-.866l.2745.0741c.1538-.2062.3075-.4124.4637-.6183.0915.0246.183.0493.2745.074.911-.912-.3173-1.6157,1.4332-2.0287999.1247-.4621.2493-.9239.3739-1.386Z"/>
      <path class="cls-2" d="M30.3624748,58.0602964c.0167-.0617.0332-.123.0498-.1846-.0606-.0164-.1226-.0331-.1846-.0499.1826-.6765.3652-1.3533.5478-2.0300999-.0606-.0164-.1212-.0328-.1846-.0499.0498-.1846.0997-.3692.1494-.5535-.062-.0167-.1227-.0331-.1846-.0498.0329-.4436.6442-.9036.6329-1.6115-.062-.0167-.1227-.0331-.1847-.0498.0997-.3692.1992-.7381.2988-1.1074-.0606-.0164212-.1226-.0331-.1846-.0498.0665-.2463.1328-.4922.1992-.7382.062.0168.124.0335.1846.0499.1163-.4309.2325-.8615.3488-1.2924.2225-.3426.9333-.9033.8671-1.7456-.0606-.0164-.1213-.0327-.1846-.0498.0046-.2633.0103-.5257.0146-.7883-.0606-.0164-.1226-.0331-.1846-.0498-.0057-.5412.7627-1.0314214.9523-1.3269.1884-.9395214.3768-1.8786.5624-2.8185214-.062-.0166785-.1226-.0330785-.1846-.0497785.0498-.1846.0996-.3692215.1494-.5535-.0607-.0164-.1227-.0331-.1847-.0499.0295-.4037.8235-1.4067.7823-2.1648999-.0606-.0164-.1226-.0331-.1846-.0499215.0499-.1848785.0997-.3694784.1494-.5537784-.0267-.1634-.4964-.1857-.2185-.6528.1394-.0289.2786-.0575.4178-.0857.145-.2909.29-.5817216.4335-.8726.062.0167.1227.0331.1847.0498.0268-.587.0535-1.1736.079-1.7609216-.062-.0167784-.1226-.0330784-.1846-.0497784.0166-.0617.0332-.1234.0498-.1847.062.0168.1226.0331.1846.0498.0498-.1846.0996-.3689.1495-.5538.062.0167.124.0334.1846.0498.2612-.7214.521-1.4432.7823-2.1649999-.062-.0167-.1227-.0331-.1847-.0498.0499-.1846.0996-.3689.1494-.5535217-.0606-.0163783-.1226-.0330783-.1846-.0498783-.0254-.8114.6086-1.2106.8175-1.5616.0976-1.0959.1952-2.1915218.2929-3.2873999-.1061-.0944-.2121-.1891219-.3196-.2839.3628-.364.7244-.7287,1.0872-1.0927.2158-.7998.4315-1.5993.6474-2.3995219-.0606-.0162781-.1226-.0330781-.1846-.0497781.0045-.263.0102-.5253.0146-.788-.0607-.0163-.1227-.033-.1833-.0494-.0551-.9102.7439-1.1442,1.0007-1.5119.8168-1.1678.1983-2.7384999-.3108-3.2521999.294-.9558.5542-1.1432,1.0533-1.696.0606.0162779.1226.0331.1833.0494.0497-.1843.0995-.3689.1493-.5535.062.0167.1226.0331.1846.0498.1162-.4306.2324-.8611.3487-1.292-.062-.0167-.1227-.0331-.1846-.0498.0166-.0617.0331-.123.0498-.1847.062.0168.1226.0330778.1846.0499.0995-.3689.1992-.7382.2988-1.1074-.062-.0168-.1226-.0331-.1846-.0499.0317-.7284.5061-.6755222.3984-1.4763-.0607-.0163-.1227-.0331-.1833-.0494.0332-.123.0663-.246.0997-.3696-.062-.0167-.1226-.0331-.186-.0502223.0332-.123.0664-.2458777.0996-.3688777-.1061-.0944-.2121-.1892-.3194-.2843.0028-.4499.9866-.7631,1.0034-1.5114-.0619-.0167-.1226-.0331-.1859-.0502.0222-.3236.0433-.6479.0656-.9719-.1074-.0948-.2148-.1899-.3193-.2846.2929-.8444.586-1.6895.8804-2.5341999-.062-.0168-.1226-.0331-.1832-.0495224-.012-.5930776.3614-1.0286776.2137-1.5260775-.1514-.1728-.3027-.3463-.4555-.5194.0996-.3689.1991-.7378.2988-1.1074-.0606-.0164-.1226-.0331225-.1832-.0495.0024-1.1556225-.7168-.8743-1.3628-1.5558-.0288-.1396-.0563-.279-.0838-.4183-.1239-.0335225-.2479-.0669-.3706-.1.0167-.0617.0332-.123.0499-.1846-.5252-.3843-1.2966-.1938-1.6119-.6327-1.8507-.4925-1.7831.2967-3.1166.5447774-.2204.4526225-.4059.7651225-.583,1.4268225-.1227-.0331-.2453-.0662-.3679-.0993-.3355.5037-.6681,1.0078-1.0035,1.5114775-.1659.6148225-.332,1.2304224-.4979,1.8452224-.062-.0167-.1227-.0331-.1833-.0494-.0997.3695-.1993.7384-.2988,1.1074-.062-.0168-.124-.0335-.1847-.0499-.3745.6432-.0468,1.1863-.0306,1.5763-.083.3076-.1659.6148-.249.9228.062.0167.124.0334.186.0502-.0167.0616-.0332.1229-.0499.1846-.0619-.0167-.1239-.0335-.1859-.0502223-.1284.2292223-.2554.4588223-.3824.6884223-.062-.0168-.124-.0335-.1846-.0499-.1329.4926-.2657.9844777-.3986,1.477.0607.0164.1227.0331.1847.0498l-.0996.369c.0607.0163.1213.0326777.1833.0494-.1451.2912-.2887.5824-.4323.8732777-.062-.0166777-.124-.0333777-.1846-.0497777-.1162.4306-.2325.8615-.3487,1.292-.0079.2704.2369-.0152222.1349.2345-.062-.0167222-.124-.0335-.1847-.0498-.1826.6768-.3652,1.3536-.5478,2.0300778.0607.0164222.1226.0331222.1846.0499222-.0831.3079-.1661.6155-.249.9227-.062-.0167-.1239-.0334-.1846-.0498-.0333.1233-.0664.2463-.0997.3696-.0607-.0164221-.124-.0334221-.1846-.0498-.0996.3689-.1991.7378-.2989,1.1073779.0607.0164221.124.0334221.1847.0498221-.21.5371779-.4228,1.074-.6328,1.6111.0606.0164.1239.0335.1846.0498l-.0996.369c.0607.0162779.1227.033.1847.0498-.0332.1229-.0665.2462-.0997.3692.1047.0944.212.1895.3194.284278-.1773.453422-.8052.584-1.0373.908122-.1328.4922-.2656.9844-.3983,1.4763.0606.0164.1239.0335.1846.0498-.0239.4262-.3336.5024-.3341.5041l-.3984,1.4766c.0606.0164.1239.0335.1846.0498l-.0996.369c.0607.0162781.1227.033.1847.0498-.0665.2463-.133.4924781-.1993.7384781.0606.0163219.1213.0327219.1833.0494219-.264.5819-1.3178.6937-1.285,1.8313.0024.1196.3885,1.4909.3885,1.4909-.1392.0283-.2784.0568-.4177.0853782-.2673.2886218-.8852,1.0945218-.8673,1.7459218.0607.0164.1227.0330782.1847.0498-.0499.1846-.0998.3696-.1495.5539.0606.0163.124.0333783.1846.0498-.1768.4142-.3563.8277-.5332,1.2422-.062-.0167-.124-.0334-.1847-.0498-.0703.2608.1669-.0345.1348.2344-.116.4303-.2323.8612-.3485,1.2917.0606.0164.124.0335.1846.0498-.024.4161-.3341.5041-.3341.5041-.2117.399.085.5745-.0145.788-.0607-.0164-.124-.0335-.1846-.0499-.546,1.0805-.2343,2.1379999.2742,2.6484999-.4644.4621-1.1893.7211-1.5546,1.3624-.122.6931785-.2425,1.3865-.3632,2.0799999-.062-.0167-.124-.0334-.1846-.0498215-.2382,1.1238215-.475,2.2479214-.7118,3.372-.0242.0466214-.2606-.0095786-.2842.3191214.0606.0164.1226.0331.1846.0498-.0664.2463-.1329.4926-.1993.7385.0607.0164.124.0335.1847.0498.0622.2463.1498.5754-.0644.9726-.062-.0167-.124-.0334-.1846-.0498214-.1162.4306213-.2325.8615213-.3487,1.292.0607.0164213.1227.0331213.1846.0499213-.0066.0246-.0133.0495-.02.0740787-.0619-.0166787-.1239-.0334787-.1846-.0497787-.0763.283-.1526.5656-.229.8486-.0565.2096-.1129.4185-.1694.628-.0099.0367-.0199.0738-.0299.1105.0109.201.0231.402.0353.6034-.062-.0168-.124-.0335-.1846-.0498-.0498.1846-.0996.3689-.1495.5538-.0606-.0163-.124-.0334-.1846-.0498-.3148.5024-.2655,1.4233-.2636,1.7108-.1162.4309-.2324.8614-.3486,1.292-.0606-.0164-.124-.0335-.1846-.0498-.1163.4309-.2324.8610788-.3487,1.292.0607.0164.124.0334.1847.0498-.0713.2052-.1427.4108-.214.616-.0471-.0127211-.0943-.0255-.1401-.0378-.0996.3689-.1992.7380789-.2988,1.1074.0202.0054.0404.0109.0606.0163-.0965.2772-.1931.5548-.2896.8323.0296.008.0593.016.0903.0244-.1041.2625-.2069.5254-.3096.7882.0606.0164.124.0334789.1846.0499-.0332.1229-.0663.2459-.0995.3689.0606.0163.1226.0331.1846.0498-.0332.123-.0664.245879-.0996.368879.0244.022121.0502.044621.0747.066421-.1873.2119-.3809.425579-.4385.5482-.0115.1122-.0216.224379-.0331.3366-.1172.0757-.2516.145-.3209.2412-.1329.4925-.2657.9844-.3985,1.476579.0606.016421.124.033521.1846.049921-.0238.4258-.3336.5023-.334.5037-.1329.4925-.2656.984379-.3985,1.477.0606.0163.124.0333791.1846.0498-.0332.1229-.0663.2459-.0995.3689-.0764.283-.1527.5656-.229.8486-.0607-.0163-.124-.0334-.1847-.0498-.042.2363-.0828.4732-.1235.7098-.3114.2485-.5965.5604-.5792,1.1604.0009.0396.0487.2322.1061.4533-.0669.4033792-.1326.8078-.1996,1.2112-.2877.3268-.8198,1.0451792-.8029,1.6577.0606.0164.1226.0331.1846.0498-.0498.1846792-.0996.3693-.1494.5536.0607.0163.124.0334.1847.0498-.177.4145-.3565.828-.5333,1.2422-.062-.0167-.124-.0335-.1846-.0498-.0705.2611.1668-.0342.1347.2348-.1161.4302-.2323.8607-.3486,1.2916.0054.0014793.0122.0033.0189.0051-.1769.3878-.3552.7752-.532,1.1627.0606.0164.1226.0331.1846.0498-.0498.1846-.0996.3693-.1494.5535.0162.0043794.031.0083794.0472.0128-.1257.4605-.1805.878-.0756,1.2554-.0501.2871794-.1002.5748-.1502.862-.062-.0167-.124-.0335-.1847-.0498206-.0331.123-.0664.2463206-.0996.3692206-.0606-.0163-.124-.0334-.1846-.0498-.0498.1845794-.0996.3689-.1494.5535-.062-.0167-.124-.0334-.1846-.0498-.0228.1757-.0471.3513-.0699.5268794-.0268.0405205-.0749.0579205-.0997.1014205-.1219.6929-.2425,1.3865-.3632,2.0799999-.0619-.0167-.1239-.0334205-.1846-.0498-.0476.2246-.0951.4489-.1427.6735-.0121-.0032-.0242-.0065-.0364-.0098-.2725.4368-.2953.8749-.2323,1.2844-.0993.4749-.2012.9491-.3004,1.424-.0241.0462-.2605-.0096-.2842.319.0607.0164.1227.0331.1846.0499-.0663.2459-.1328.4922-.1992.7385.0606.0163.124.0334.1846.0498.0019.0088.0027.022.0046.0312-.1191.334-.1666.6388796-.1093.9301-.0485-.0131-.097-.0262203-.1442-.0389-.1163.4309-.2325.8615-.3487,1.2924.0606.0162797.1226.0331.1846.0498-.083.3076-.166.6152-.2489.9224-.062-.0167-.124-.0334-.1847-.0498-.0665.2466-.1329.4926-.1992.7385.0108.201.0231.402.0351.6037-.0619-.0167-.1239-.0335-.1846-.0498-.0498.1846-.0995.3689-.1493.5534797-.0607-.0163798-.124-.0333798-.1847-.0497798-.3149.5027-.2656,1.4236-.2636,1.7111-.1162.4305-.2325.8614-.3487,1.292-.0606-.0164-.1239-.0335-.1846-.0498-.1162.4304798-.2323.8611-.3485,1.2917.0606.0163.124.0334.1846.0497799-.2931.8451201-.5889,1.6895201-.882,2.5346201.0606.0163.124.0333799.1846.0498-.0332.1229-.0663.2459-.0995.3689.0606.0164.1226.0331.1846.0498-.0332.123-.0664.2458799-.0995.3688799.1046.0944201.212.1892201.3194.28432-.0894.23468-.7791.8834-.9026,1.1429-.0389.3853-.0765.7709-.1142,1.1572-.062-.0167-.124-.0335-.1846-.0498-.0829.3072-.1659.6148-.2489.92238.0606.01642.1226.03312.1846.04982-.0225.3243-.0448.6483-.0657.9723.0619.0167.1239.0334.1859.0502-.0166.0616-.0332.1229-.0498.1846-.062-.0167-.124-.0335-.186-.0502-.1119.1682-.2222.3362-.3327.5044-.062-.0167-.124-.0334-.1846-.0498-.1494.5535-.2988,1.1074-.4482,1.6609-.0606-.0163-.124-.0334-.1846-.0498-.122.6932-.2413,1.3871-.3632,2.0799999-.0607-.0164198-.124-.0334198-.1846-.0498-.1055.6319-.2081,1.2638-.3135,1.8957-.025.0446-.2533-.0044-.2842.3191.0607.0164.124.0334.1846.0498-.166.6155-.3321,1.2311-.4981,1.8459.0607.0164.1227.0331.1847.0498-.0389.3853-.078.7712-.1156,1.1569-.062-.0167-.1226-.0331-.1832-.0495-.0332.123-.0664.246-.0996.3689-.062-.0167-.124-.0334-.1846-.0498-.3233.7051-.6452,1.4105-.9669,2.1151999.0606.0163.1226.0331.1846.0498-.0499.185-.0997.3695804-.1494.5539.0606.0163.1239.0334.1846.0498-.1221.6935-.2427,1.3868-.3633,2.0802999-.062-.0167-.124-.0334196-.1846-.0498-.0332.123-.0664.2459-.0996.3689-.0606-.0163-.1239-.0334-.1846-.0498-.0498.1846-.0995.3689-.1494.5539-.062-.0168-.124-.0335-.1847-.0499-.1262.9556-.2527,1.9118-.3777,2.8679999-.0607-.0163-.124-.0334-.1846-.0498-.0499.1846-.0997.3692-.1495.5539-.062-.0168195-.124-.0335-.1846-.0498195-.6735,1.076-.0217,2.218.4589,2.6979194-.2522.2594-.8504.6440806-1.036.9085-.448.637-.1066,1.3863-.0803,1.7605806-.0376.3856193-.0751.7712193-.1129,1.1575193.2052.6113,1.7343,1.6579,2.8884,1.769.2508.024.7304-.1726,1.1562.114-.0167.0616-.0333.1233-.0499.1846.3994.2397.7947.4786,1.1928.718,1.3978-.8297,3.9014-.2282,4.8571-1.8574.062.0168.124.0335.1847.0499.7313-.7385-.0931-2.0231999.328-2.6836999.062.0167.1226.0330807.1846.0498.0333-.1233.0665-.2463.0997-.3693.062.0168.1239.0335.1846.0499.2612-.7215.521-1.4433194.7822-2.1649999-.0619-.0168-.1226-.0331-.1846-.0498.1386-.7546.2758-1.5094.413-2.2646999.062.0168.124.0335.1847.0499.0331-.123.0663-.246.0995-.369.062.0168.1226.0331.1846.0499.1329-.4926195.2657-.9845.3986-1.477-.0304-.3805-.6348-1.3069-.289-1.8599.0607.0164.1226.0331.1833.0495.0332-.123.0664-.2459.0995-.3689.1392-.0282.2798-.0564.4192-.0853196.0332-.123.0664-.246.0995-.369.062.0168196.1227.0331196.1847.0499196.1493-.5536.2988-1.1074.4481-1.661-.0619-.0167-.1226-.0331-.1846-.0498.0333-.1233.0665-.2463.0997-.3692-.0607-.0164-.1227-.0331-.1847-.0499196.0899-.451.78-.6507804.7677-1.377-.062-.0166803-.1226-.0330803-.1846-.0497803.0497-.1843.0996-.3689.1495-.5538-.0607-.0164197-.1227-.0331-.1847-.0499-.0122-.201-.023-.402-.0352-.6033.062.0167.1226.0331.1846.0497803.0996-.3688803.1992-.7381803.2988-1.1073803.062.0167.124.0335.1847.0498.0331-.123.0663-.2459.0995-.3689.062.0167.1226.0331.1846.0498.0665-.2462.1328-.4922.1993-.7385.0633.0171.124.0335.1846.0499.2158-.7999.4317-1.5997197.6474-2.3990999-.0607-.0164-.1213-.0328-.1846-.0499.0331-.1229.0665-.2466.0997-.3695-.062-.0168-.1226-.0331-.1846-.0499.035-.6548.8929-.839.8671-1.7455-.0606-.0164-.1213-.0328199-.1846-.0499.0499-.1849199.0997-.3695.1495-.5538-.062-.0168-.1227-.0331199-.1847-.0498.1162-.4306.2325-.8615.3487-1.2921-.0607-.0163-.1227-.0331-.1847-.0498.1616-.3522.3233-.705.4835-1.0576.062.0168.1226.0331.1846.0498.0875-.5705.1762-1.1404.2637-1.711.1392-.02862.2811-.0561.419-.085.0498-.1843.0996-.3689.1494-.55362.062.01682.124.03352.1846.04992.1054-.6316.2095-1.2638.3134-1.8954-.0606-.0164-.1213-.0327-.1846-.0498.1463-.2905.29-.5821.4337-.8733.062.0167.124.0334.1846.0498.2003-.362-.0352-.6034-.0352-.6034.0664-.2462.1328-.4922.1991-.7381.062.0167.124.0334.1847.0498.0166-.0617.0331-.123.0498-.1846-.0607-.0164-.1227-.0331-.1846-.0498.1826-.6769.3651-1.3534.5478-2.0301999-.0607-.0164-.1213-.0328-.1846-.0498.0498-.1847.0997-.3696.1494-.5539-.062-.0167-.1226-.0331-.1846-.0498.0329-.4437.6443-.9036.6328-1.6111-.062-.0168-.1226-.0331-.1846-.0499.0997-.3695.1992-.7385.2988-1.1074202-.0607-.0162798-.1226-.0330798-.1846-.0497798.0664-.2463.1329-.4925.1992-.7385.062.0168.124.0335.1847.0498.073-.2705203.1461-.5417.2191-.8122.1968-.1989.2731-.4389.2986-.694.2906-.3481.7536-.821.6981-1.5317-.0606-.0164-.1212-.0327-.1846-.0498.0047-.2532.0093-.5057.0139-.7585.1178-.3243204.2343-.6488.3521-.9727.1647-.1605.3441-.3217.4163-.4338.1884-.9395.3767-1.8783.5624-2.8181999-.062-.0167-.1227-.033-.1847-.0498.0068-.0249.0134-.0495.0201-.0744.0332-.123.0665-.2463.0997-.3693.062.0167.1226.0331.1846.0498l.3984-1.4766c-.007-.097-.0534-.2306-.1105-.3833205.0514-.1744795.1635-.3541795.1548-.5147795-.0606-.0164-.1226-.0331-.1846-.0499.0498-.1846.0996-.3692.1494-.5535-.0165-.1049-.1544-.1942-.2225-.3383.0364.0098.0728.0196.1079.0291.0331-.123.0663-.246.0995-.3689.1392-.0283.2798-.0565.4191-.085.0331-.123.0663-.246.0995-.3689.062.0167.1226.0331.1846.0498.1495-.5539.2989-1.1074.4483-1.6613-.062-.0167-.1226-.0331-.1846-.0498.0332-.123.0663-.2459.0995-.3689-.0525-.0142-.1064-.0287-.1603-.0433.0009-.0142.0019-.0287.0015-.0433206.1226-.422.7531-.6370794.742-1.3405793-.0445-.012-.0889-.024-.1321-.0356.1858-.517.373-1.0339.5602-1.5509-.062-.0167-.1226-.0331-.1846-.0498.0498-.1846.0995-.3689.1494-.5539-.0606-.0163-.1226-.033-.1846-.0498-.0017-.0312.0246-.0429.0241-.0733.0607.0163.1213.0327.1806.0487.0332-.123.0664-.2459.0996-.3689.062.0167.1226.0330793.1846.0498.0663-.2459.1327-.4919.1993-.7385.0633.0171.1239.0335.1846.0497792.2157-.7993792.4315-1.5992792.6473-2.3990792-.0606-.0163-.1212-.0327-.1846-.0498.0332-.1229.0665-.2463.0997-.3692-.062-.0168-.1227-.0331-.1847-.0498.0351-.6549.8929-.8391208.8673-1.746-.0607-.0163-.1213-.0327-.1846-.0498.0498-.1846.0996-.3692.1493-.5535-.062-.0167-.1226-.0331-.1846-.0498209.1163-.4308791.2325-.8614791.3487-1.2923791.0929-.3443.1859-.6886209.2789-1.0333-.0041-.0011-.0081-.0022-.0122-.0032.0107-.0236.0215-.0474.0322-.0709.0619.0167.1226.0331.1846.0497791.0874-.570179.1762-1.140479.2635-1.710679.1393-.0286.2812-.0561.4191-.085.0497-.184321.0996-.369321.1495-.5539.0619.0167.1239.0335.1846.0498.1052-.631221.2093-1.2634.3134-1.8953-.0607-.0164-.1213-.0328-.1847-.049921.1464-.2904789.29-.5816789.4337-.8728789.062.0167.1239.0334.1846.0498.2003-.362-.0352-.6037-.0352-.6037.0664-.2459.1327-.4919.1992-.7381.062.0167.124.0334.1846.0498Z"/>
    </g>
  </g>
</svg>