<?xml version="1.0" encoding="UTF-8"?>
<svg id="_レイヤー_2" data-name="レイヤー 2" xmlns="http://www.w3.org/2000/svg" width="28.7916" height="23.7922097" viewBox="0 0 28.7916 23.7922097">
  <defs>
    <style>
      .cls-1 {
        fill: #dc4b22;
        fill-rule: evenodd;
      }
    </style>
  </defs>
  <g id="design">
    <path class="cls-1" d="M25.3858,2.8492999c.0125-.046.025-.0919.0375-.1377-.0919-.0251-.1838-.0501-.2756-.0752.0124-.0459.025-.0918.0375-.1377-.6808-.4661-.949.0363-1.2143.113-.7691-.3539-.7813-.3112-1.4898.038-.071.0792-.1419.1583932-.2123.2379-.2757-.0751-.5508-.15-.8265-.2251-.0125.0459-.0251.0917-.0375.1377-.0919-.0251068-.1839-.0501068-.2757-.0751068-.0125.0459068-.0251.0917068-.0375.1377068-.1498.0085-.3002.0168-.4506.0252-.3835.6016-.1629.11-.6633.263-.0125.0459-.025.0917-.0375.1378-.1628.0542-.3252.1086-.488.1628-.0251.0919-.05.1836-.075.2754-.0459-.0125-.0919-.025-.1378-.0376-.0501.1838-.1002.3674-.1501.5509-.046-.0125-.0919-.025-.1374-.0375-.266.3578-.0839.423-.4632.6137-.0124.0458-.025.0917-.0375.1377-.2298-.0626-.459-.1251068-.6887-.1877-.0125.0458-.0249.0917-.0375.1378-.0919-.0251-.1833-.05-.2751-.0751l-.5261.3005c-.025.0918-.05.1837-.075.2753932-.046-.0124932-.0919-.0250932-.1378-.0374932-.0251.0917-.0501.1837-.0752.2754-.0453-.0123-.0912-.0249067-.1372-.0374-.0501.1836-.1.3671-.1501.5508-.2797.121-.5589.2423-.8386.3632-.0126.046-.0251.0919-.0376.1376-.046-.0124-.0919-.0249-.1378-.0375-.0803-.4849-.2805-.855-.388-1.289-.1378-.0376068-.2757-.0751-.4135-.1128.0375-.1376.075-.2753.1125-.413-.0459-.0126-.0918-.025-.1379-.0375.0029-.417-.1382-.4626-.2254-.8011-.229-.0625-.4588-.1251-.6886-.1875.0028-.417-.1382-.4626-.2254-.8011-.2167-.1084-.4338-.2169-.6511-.3255-.0083-.1502-.0169-.3004-.0253-.4506-.1707-.0957-.3421-.1918-.5127-.2877.0124-.0457.025-.0918068.0375-.1377-.2423-.0165-.4845-.0332-.7261-.0499-.0545-.1627-.1088-.3254-.1632-.4882068-.0919-.025-.1833-.05-.2751-.0748931.0124-.0458.025-.0918.0375-.1378-.2882-.0291-.5765-.0583069-.864-.0874.0124-.0458.025-.0918.0375-.1377-.0919-.025-.1838-.0501-.2751-.0749.0124-.0461.025-.0918.0375-.1378-.3217-.0876-.6427-.1751-.9643-.2626-.0126.0459-.0251.0917-.0376.1376-.4129-.1126-.826-.225-1.2394-.3377-.0705.0796-.1414.1588-.2124.238-.2632-.1209-.5263-.2419-.789-.3629-.0124.0460931-.025.092-.0375.1378-.5235.0879-.8992.055-1.1888.5637-.2298-.0626-.459-.1251-.6887-.1877-.0125.0459-.0251.0919-.0376.1379-.0459-.0126069-.0918-.0251-.1379-.0376069-.0459-.0124931-.0918-.025-.1378-.0375931-.1293.1127-.2582.2255-.3876.3382-.0459-.0126069-.092-.0251-.1379-.0375-.025.0917-.0499.1835-.075.2753-.2791.1211-.559.2422-.8387.3633-.025.0917-.05.1836-.075.2752931-.1045.021-.2083.0419068-.3127.0629068-.025.0917-.05.1836-.0751.2753-.0459-.0125-.0918-.025-.1378-.0375-.025.0917-.0499.1836-.075.2752932-.0459-.0124932-.0919-.0248932-.1379-.0374932-.079.4716-.1582.9432-.2373,1.4147-.6055.0089-.1758.009-.5255.3007-.1044.0207-.2087.0416-.3132.0626-.1459.3546-.2919.7093-.438,1.064-.0459-.0125068-.0913-.0249-.1372-.0374-.0541.3797-.1089.7594-.1629,1.1391-.046-.0126-.0913-.025-.1373-.0374-.0291.2879-.0587.5758-.0878.8637.0459.0124933.0918.025.1379.0376-.0126.0458-.0251.0917-.0376.1377-.046-.0125-.0919-.0251-.1378-.0376-.075.2754-.15.5507933-.2252.8262.046.0125933.092.025.1379.0375933.03.4245067-.1256.8013067-.0244,1.1767067.0794.071.1588.142.2376.2126-.0501.1836933-.1001.3674-.15.5508.0794.071.1586.142.2381.2128934-.0375.1377066-.0751.2756066-.1126.4132066.0459.0125.0919.0251.1373.0375-.0376.1376-.0751.2752934-.1126.4131.0461.0125.092.0249.1379.0375-.025.0918-.05.1835-.075.2754.0459.0126.0919.025.1378.0376-.025.0918-.05.1835-.075.2754.1462.1878.2925.3756.4383.5631.1969.5786-.1318.7887.5638,1.1891934.0085.1501065.0169.3004065.0253.4506065.2627.1209.5253.2418.7884.3628-.1245.7641.237.8093.7012,1.2265-.0124.0458-.025.0918-.0375.1378.1378.0375.2757.0751.4135.1126-.0125.0458-.0249.0918-.0375.1376935.2502.1667065.5008.3336065.7509.5004065.0048.3671.0039.2441.1632.4882-.0125.0461-.0251.0919-.0375.1378.0918.0251.1832.0499.2751.0749-.0125.046-.025.0918-.0375.1376935.1378.0376065.2757.0751065.4129.1125065.0985.1137.0961.5553.0882.7637.1712.096.342.1917936.5133.2877936-.0126.0459064-.0251.0918064-.0376.1376064.2752.075.5509.1501.8265.2251.1541.338.3089.6759.463,1.014.3551.1459.7096.2918,1.0641.4378-.0125.0458-.025.0917-.0375.1376.0919.0251.1837.0502.2757.0751.0209.1043.0418.2086.0628.313.321.0874.6427.1751.9638.2626.0062.6045.0078.1791.3004.5256.0209.1043.0419.2087.0628.3129.2298.0626.4589.1251.6887.1876937.2654.1968063.378.707.989.7133063.0126-.0461.025-.0919.0375-.1378.2883.0291.5758.0584.8635.0874.0544.1627.1088.3254.1631.4882.092.0248937.1838.05.2757.075-.0125.046-.0249.0918-.0375.1377.092.0251.1833.0499.2751.075-.0125.0459-.0249.0917-.0375.1376.4721.3263.9322.0494,1.3145.0624.1668-.3007.3369-.4609.6006-.576.3257-.1219.7601.6168,1.4777.5504.0125-.0459.0249-.0917.0375-.1377.0918.0251.1831.0499.2751.075.1879-.1461.3758-.2922.563-.4384.1378.0377.2757.0752.4135.1128.0126-.046.0251-.0919063.0375-.1377.092.0249.1833.0499.2751.0749.1295-.1127.2589-.2253.3883-.338.1373.0374.2752.0748937.413.1126.0125-.0461.025-.092.0375-.1378.2798-.121.559-.2423.8387-.3633.025-.0917.0501-.1836063.075-.2754.1044-.0208.2083-.0419.3128-.0628.1084-.2169.2169-.434.3254-.6509.0459.0124937.0918.0249.1378.0374937.0625-.2294936.1251-.459.1876-.6885936.1043-.0208.2088-.0417.3126-.0627.3048-.2128.609-.4257064.9138-.6386.1503-.0084.3007-.0168.4509-.0251064.0251-.0917936.0501-.1835936.0752-.2753936.7713.0033.662-.4946064,1.2263-.7014.0876-.3214.1751-.6426.2627-.9639.609.0048.5425-.2461.9131-.6389.046.0125936.0919.0251.1379.0377.025-.092.05-.1837.0751-.2755.0459.0125.0918.0251.1377.0376.0626-.2296.1251-.4591.1877-.6886.1628-.0542.3256-.1085.488-.163.2533-.2339.1899-.5974.4005-.9263.0459.0125.0918.0249.1378.0375.2467-.3933.1857-1.4307.2748-1.5523.2798-.1211.559-.2422.8388-.3633.025-.0918.0499-.1835.075-.2754.0459.0125.0918.025.1379.0376.0291-.288.0581-.5759.0872-.8638.0459.0123934.0919.025.1378.0375.025-.0917.0501-.1836.075-.2754.0461.0125.092.025.1379.0376.0875-.3214.1751-.6428.2627-.964-.1129-.1295-.2258-.2587-.3386-.388.025-.0919.0501-.1836.0751-.2755-.046-.0125-.092-.0249-.1379-.0375-.0084-.1502-.0168-.3005-.0247-.4507.2208-.0878.442-.1753.6633-.263.1582-.9431.3165-1.8861.4747-2.8291999-.0919-.025-.1838-.05-.2752-.0749.0251-.0919.0501-.1837.0752-.2755067.0453.0123067.0913.0248067.1372.0374067.1781-.2405-.3054-1.6142-.4133-1.7398-.2171-.1086068-.4339-.2168-.6512-.3254-.1538-.1841.086-.3437.0124-.5883-.2586-.3171-.5177-.6342-.7763-.9511-.2656-.1895-.9976-.123-1.0013-.1248068.0125-.0460932.025-.092.0375-.1377932-.1838-.05-.3676-.1001-.5508-.15Z"/>
  </g>
</svg>