<?xml version="1.0" encoding="UTF-8"?>
<svg id="_レイヤー_2" data-name="レイヤー 2" xmlns="http://www.w3.org/2000/svg" viewBox="0 0 148.5191672 111.77707">
  <g id="design">
    <g>
      <path d="M145.2583314,10.946284c.085506-.0071.1692-.0141.2528-.0211-.0067-.0801-.013294-.1598-.02-.2404-.0837.007-.1674.014-.2529.0211-.4076-1.1372-1.1842-.7955-2.1579999-1.2694-.0133941-.1598-.0267-.3197-.04-.4795-.2428-.4406-.8407-.9194-1.1391-1.3544-.1549-.0162-.3152941-.054-.473-.0814-.0862-.2031-.1379-.418-.3512941-.5744-.2497059-.6371-.1051059-.5416-.8243059-.6562-.125-.7127-.5038-1.7514-.9425-2.0953-.1925-.4668.0162-.2095-.2948-.4592-.3006.2796-.8248.1456-1.5283942.1276-.114.2494-.4424058.4651-.4694058.5229-.2973.6325.1356.7049-.4112,1.2418-.265.3021-.0523.2257-.5095.0425-.0067-.0801-.0133-.1598-.02-.24-.1674.014-.3384.0283-.5058.0422-.4658-.444-.9316-.888-1.3938-1.3331-.0066-.0797-.0132943-.1599-.02-.2396-.0855.0072-.171.0143-.2566.0214.0467.5593.0935,1.1194.1402,1.6791-.0837.0069-.1692.0141-.2528943.0211.0066943.0801.0133943.1598.02.24-.0855057.0071-.1729057.0144-.2565057.0214-.0067-.0802-.0134-.1599-.0201-.24-.1692.0141-.3383943.0282-.5076.0424-.0066-.0798-.0133-.1599-.02-.2396-.3402.0284-.6805.0568-1.0189.0851-.0067-.0802-.0134-.1603-.02-.24-.1692.0141-.3403.0284-.5095.0425-.0067-.0802-.0133-.1599-.02-.24-.563-.1276-.7427.3892-.9989.325-.0989-.1527-.1978-.3054-.2948-.4582-.7842-.1767-1.5685-.3529-2.3526944-.5286-.2941055.0197-.6397055.523-1.2518055.3457-.0988-.1527-.1977-.3054-.2947-.4583-.5094945.0425-1.0189.0851-1.5284.1276-.0067-.0802-.0133-.1599-.02-.24-.3419-.1029-1.2719-.2982-1.8030945-.0907.0065946.0792.0132946.1598.0198946.2395-.1692.0141-.3384.0283-.5094.0426.0067.0801.0133.1598.02.2399-.7484946.1838-.5234946-.3046-.8042-.4157-.1692.0141-.3384.0282-.5095.0425-.0067-.0806-.0134-.1607-.02-.2404-1.0977946.1719-2.1918999.3439-3.2895999.5167-.0971-.1538-.196-.3065-.2948-.4592-.1711.0143-.3385.0283-.5095.0425-.0067-.0797-.0134-.1598-.02-.2395-.6805.0568-1.3573.1133-2.0378947.1701-.0066052-.0801-.0133052-.1603-.02-.24-.1692052.0141-.3384052.0283-.5076052.0424-.0067-.0802-.0133-.1599-.02-.24-.4755-.1111-1.2536.3463-1.2536.3463-.0989-.1527-.1977948-.3054-.2947948-.4587-.1692052.0141-.3403052.0284-.5095052.0425-.0067-.0801-.0134-.1603-.02-.24-.1692.0141-.3384.0283-.5114.0427-.0066-.0801-.0133-.1598-.02-.24-.8479.0708-1.6976.1417-2.5453999.2125-.0066949-.0797-.0134-.1599-.02-.2396-.1692.0142-.3403.0284-.5095.0426-.0067-.0802-.0134-.1603-.02-.24-.5931949.0495-1.1881949.0991-1.7813.1487.0067.0797.0133.1598.02.2399-.518-.0374-1.0323-.0752-1.5484-.1124-.0067-.0801-.0133-.1598-.02-.24-.5028.1227-1.0056.2449-1.5084.3676-.0067-.0801-.0133-.1598-.02-.24-.1692.0141-.3384.0283-.5076.0424-.0067-.0797-.0134-.1603-.02-.24-.3422.0286-.6806.0568-1.019.085-.0067-.0801-.0133-.1602-.02-.2399-.3488-.0516-.6939-.1031-1.0408-.1548-.0066951-.0797-.0134-.1599-.02-.2396-.5931.0495-1.1881.0992-1.7831.1489-.0067-.0802-.0134-.1603-.0201-.24-.9199-.1428-1.4448.7252-1.9958999.6495-.0067-.0797-.0134-.1599-.02-.2396-.1692.0141-.3384.0283-.5095.0425-.1892-.2258-.3803-.4515-.5695-.6774-.4288-.0449-.8613-.0895-1.2937-.1337-.0067-.0801-.0134-.1598-.0201-.24-.3657953-.0537-.4875.2824-.4875.2824-.9486-.0818-1.8954-.1637-2.8420999-.2457-.0067-.0801-.0134-.1602-.02-.2399-.7315-.1273-1.9753.7403-2.2525999.6709-.097-.1529-.1959-.3056-.2929-.4585-.171.0143-.3403.0284-.5095.0426-.0066-.0802-.0133-.1599-.02-.24-.1691954.0141-.3401954.0284-.5094.0425-.0067-.0797-.0134-.1603-.0201-.24-1.2166955-.3103-2.4349999.661-2.7218999,1.1934-.424.0354-.8479.0708-1.2737.1063-.097-.1529-.1959-.3056-.2947-.4583-.5765-.4012-1.3913-.8544-2.1379999-1.0294-.424.0354-.8479.0708-1.2737.1064-.0066957-.0802-.0134-.1603-.02-.24-.2529.0211-.5076.0423-.7623.0636-.0067-.0801-.0133957-.1598-.0201-.2404-.6787.0566-1.3592.1134-2.0359999.1699-.0066-.0792-.0132957-.1598-.02-.2395-.595.0496-1.19.0993-1.785.149-.0067-.0802-.0134-.1603-.02-.24-.2481.1009-.4961.2023-.7422958.3036-.0067042-.0801-.0134042-.1603-.02-.24-.1692042.0141-.3403042.0284-.5095042.0425-.0067-.0801-.0133-.1598-.02-.24-.5883.1299-1.1748.2591-1.7631.3889.0066041.0797.0133.1598.02.24-.4325-.0446-.8631-.0894-1.2937-.1337-.0066959-.0802-.0133-.1599-.02-.24-.8071-.158-1.3056.4635-1.7612.3887-.0067-.0802-.0134-.1599-.0201-.24-.171.0143-.3421.0285-.5093959.0425-.0067041-.0797-.0134041-.1598-.02-.2395-.1711041.0142-.338404.0282-.509504.0425-.0067-.0802-.0134-.1603-.02-.24-.2548.0213-.5113.0427-.7642.0638-.0067-.0802-.0134-.1599-.0201-.2404-.4961.2028-.9941.4053-1.4864.6078-.0067-.0802-.0134-.1603-.0201-.24-.8703-.0641-1.4186.1638-2.059696-.0702-.0067039-.0797-.0134039-.1598-.02-.2395-.1692039.0141-.3384039.0282-.5076039.0423-.0067-.0801-.0133961-.1602-.0201-.2399-.5046.1223-1.0055.2449-1.5082961.3675-.0067039-.0801-.0134039-.1603-.02-.24-.1711039.0143-.3403039.0284-.5095039.0426-.0067-.0802-.0134-.1599-.02-.24-.7826-.1786-1.6633.4634-2.0178999.4101-.0067-.0802-.0133-.1599-.02-.24-.1711.0142-.3403.0284-.5095.0425-.0066-.0797-.0133-.1598-.02-.2396-1.2530962-.2534-1.9418,1.1407-2.9947999.9746-.0067-.0802-.0134-.1603-.02-.24-.5162-.0376-1.0322963-.0748-1.5502963-.1123-.0067037-.0797-.0134037-.1598-.02-.2395-.8153037-.1666-1.2748037.4512-1.7594036.388-.0067-.0797-.0134-.1598-.02-.2395-.2565964.0214-.5113.0427-.7661.0639-.0067-.0801-.0133-.1602-.02-.2399-.1692.0141-.3384.0282-.5094964.0425-.0067036-.0802-.0133036-.1599-.02-.2404-.7575036.1443-1.5132036.2877-2.2707036.4316-.0067-.0802-.0132964-.1599-.0201-.2404-.2547.0212-.5094.0425-.7641.0637-.0067-.0797-.0134-.1598-.02-.2395-.8413.1505-1.6843.3015-2.5273999.4522.0068.0805.0134.1603.0201.2404-.2529.0211-.5095.0425-.7623.0636.0066.0797.0133.1599.02.24-.1711.0143-.3421.0286-.5094965.0425.0066966.0797.0133966.1599.02.2396-.0855034.0071-.171.0143-.2547034.0212-.097-.1528-.1959-.3055-.2966-.4581-.1692.0142-.3384.0283-.5095.0426-.0067-.0802-.0133-.1599-.02-.2405-.1691966.0142-.3384.0283-.5076.0424-.0067-.0797-.0134-.1598-.02-.2396-.9268.1577-1.8554.3159-2.7820999.4735-.2678.1335.0786.5155-.7241.5442-.4573967.0157-1.4813-.5193-2.0778999-.3103-.5293.1866-1.1983,1.1442-1.7012,1.1086-.0067-.0801-.0132968-.1598-.02-.24-.2547.0213-.5095.0425-.7642.0638-.0067-.0797-.0133-.1598-.02-.2396-.0855.0072-.1692.0142-.2547.0213.0066032.0797.0133.1599.02.2396-.0837.0069-.1692.0141-.2529.0211,0,0-.2744-.3718-.7861-.1756.0067.0797.0134.1598.02.2395-.1692.0141-.3383968.0283-.5093968.0425.0066969.0802.0132969.1599.02.24-.2529031.0211-.5094031.0425-.7623031.0637.0066.0797.0133031.1598.02.2399-.7709-.0163-1.5418-.0327-2.3144999-.0484.0067.0797.0134.1598.0201.24-.3384.0282-.6787.0566-1.0152.0847.006.0723.0121.1454.0181.2176-.6644-.154-1.4029-.2317-2.3143999-.0259.0066.0797.0133.1598.02.2395-.541-.357-1.083797-.7143-1.6267-1.0716-.9267.158-1.8534.3156-2.7800971.4737.0065971.0797.0132971.1598.02.2395-.0855029.0072-.1711029.0143-.2547029.0213-.0067-.0797-.0134-.1598-.02-.2395-.3402971.0284-.6787.0566-1.0171.0848-.0067-.0801-.0134-.1598-.02-.2399-.1711.0142-.3421972.0285-.5131972.0428-.0067028-.0801-.0134028-.1598-.0201028-.2404-.2528972.0211-.5076.0423-.7623.0636-.0067-.0797-.0134-.1598-.02-.2395-.9268.1576-1.8535.3156-2.7801999.4732-.0067-.0797-.0133973-.1598-.02-.2395-1.0123.1647-2.0244999.3299-3.0367999.4947.0067.0806.0134027.1603.0201.2404-.1692.0141-.3403.0284-.5095.0425.0067.0802.0134.1599.02.24-1.0121973.1648-2.0225999.3298-3.0348999.4946.0067026.0801.0134.1598.0201.2399-.2548.0213-.5113974.0427-.7642.0638.0067.0802.0133.1599.02.24-.7787.4734-.178-.1584-.7223.5436-.0874.0073-.171.0143-.2566.0214.0049.0583.0098.1165.0146.1748-.2528975.0431-.5057975.0859-.7586975.129.0066.0797.0133.1599.02.2396-.1692.0141-.3384.0282-.5095.0425-.2262.3408-.456.6828-.6841,1.0237-.4239.0354-.8497.0709-1.2718.1062.0067.0797.0134.1598.0201.24-.1692.0141-.3403.0284-.5095.0425l-.7041.7833c-.1025.8138-.2068,1.6282-.3092,2.4415-.2481.1014-.4962.2024-.7442.3038-.3839.5153-.7696,1.0309-1.1517,1.5456-.0855.0072-.1692.0141-.2565.0214-.037.5671-.0758,1.134-.1127,1.7011-.0855.0071-.1711.0142-.2566.0214-.0588.3268-.1158.6535-.1728.9801-.2414.1812-.4828.3623-.7241.5442.0133.1599.0267.3197.04.4796-.0874.0073-.171.0143-.2566.0214.0467.5597.0935,1.1198.1402,1.6795-.0837.0069-.1692.0141-.2529.0211.0334.3994.0668.7996.1002,1.1995.0836-.007.1692-.0142.2528-.0211.0134.1598.0267.3196.0401.4795.0855-.0071.1692-.0141.2566-.0214.117.3928.2359.786.3548,1.1786-.171.0143-.3421.0286-.5113.0427-.0637.2466-.1292.4937-.1928.7411-.0836.007-.1692.0141-.2547.0213.02.2395.04.4795.0601.7195-.0856.0071-.1711.0143-.2548.0212-.2537.9751.6769,3.1517.5552,3.5777-.1644.094-.3269.1882-.4895.2821-.3357,1.0021.7407,2.4138.7298,2.5969-.0856.0071-.1711.0142-.2548.0212.0134.1599.0267.3197.0401.4795-.0856.0072-.1692.0142-.2548.0213.0735.8798.1469,1.7592.2203,2.639-.0855.0071-.171.0143-.2547.0212.0267.3202.0534.6399.0801.96-.0855.0071-.1692.0141-.2547.0213.2426.8652.4852,1.7309.7297,2.596-.0855.0071-.1711.0142-.2547.0212-.0588.3277-.1158.6544-.1747.9812-.0836.007-.1692.0142-.2528.0211-.2672.9259.7164,2.3026.7079,2.3571-.0856.0071-.1692.0141-.2548.0213-.0637.2465-.1291.4936-.1928.7406-.0874.0073-.171.0143-.2566.0214.028,1.3665.0578,2.7332.0839,4.0999.0873-.0073.171-.0143.2565-.0214.0201.24.0401.4799.0601.7199.0856-.0071.1692-.0141.2566-.0214.0067.0801.0134.1599.0201.24-.0874.0073-.1711.0143-.2566.0214-.0589.3268-.1159.6535-.1765.9809-.0837.007-.1674.014-.2529.0211.199,1.3527.3961,2.7046.5933,4.0578.2515,2.6086-1.4059,5.9013.8774,7.4156-.1258.6468-.3396.7991-.6622,1.2635-.0855.0072-.171.0143-.2566.0214.0134.1599.0267.3197.04.4796-.0855.0071-.1692.0141-.2547.0212.04.4796.0801.96.1202,1.4395-.0837.007-.1711.0143-.2548.0213.1168,1.3317.5634,2.1283,1.4921,2.5328-.0636.247-.1273.4939-.1928.7406-.0855.0072-.1692.0142-.2529.0211.0201.24.0401.4804.0601.72-.0855.0071-.171.0143-.2566.0214-.0388.5668-.0757,1.1339-.1145,1.7007-.0837.007-.1711.0143-.2548.0213.0134.1598.0267.3197.0401.4795-.0856.0072-.1692.0142-.2548.0213.0802.9599.1603,1.9199.2403,2.879.02.0596.3302.0527.2949.4591-.0855.0071-.1692.0141-.2548.0213.1536,1.8393.3071,3.6782.4606,5.5179.0856-.0071.1692-.0141.2548-.0213.0133.1599.0266.3197.04.48.0837-.007.1711-.0143.2548-.0212.0133.1598.0266.3196.04.4795.1758.0656.3536.1314.5314.1977.0133.1599.0267.3197.04.4796.0837-.007.1673-.014.2529-.0211-.1292.4936-.2583.9882-.3893,1.482-.0856.0071-.1692.0141-.2548.0212.0802.96.1602,1.919.2403,2.879-.0836.007-.171.0143-.2547.0213.02.2399.04.4795.0601.7195-.0856.0071-.1692.0141-.2548.0212-.1924.8575.6985,2.2891,1.0045,2.8152.0856-.0071.1711-.0143.2566-.0214.4142.8342-.0363,1.3145.666,1.8772-.1277.6466-.3379.7977-.6622,1.2636-.0855.0071-.1692.0141-.2547.0213.0133.1598.0267.3196.04.4795-.0837.007-.1711.0143-.2547.0213.0734.8798.1468,1.7591.2202,2.6389-.0855.0072-.1692.0142-.2547.0213.0134.1598.0267.3197.0401.48-.0837.0069-.1692.0141-.2529.0211.0534.6398.1068,1.2792.1602,1.9194.0837-.007.1692-.0141.2529-.0211-.1025.8134-.2049,1.6276-.3092,2.4415.0855-.0071.171-.0142.2566-.0214.5094,1.4374-.2565,2.5571.3004,3.5989252.0836-.007.1692-.0141.2528-.0211.0134.1599.0267.3197.0401.4796.1126.0707748.2253.1421.3379.2134-.1896.0158-.383.032-.5726.0478.0066.0797.0133.1603.02.2395748-.0856.0071252-.1692.0141252-.2548.0212252.0068.0806.0134.1603.0201.2404.0855-.0071.1692-.0141.2547-.0212.4077,1.1375748,1.1842.7955,2.158,1.2694.0134.1598.0267.3197.0401.4795.2408.4406748.8387.9195,1.139,1.3544.1549.0162.3153.054.473.0814.0863.2031.1379.4184.3513.5748.2498.6367.1051.5410749.8243.6557.1249975.7128.5018975,1.7516.9425975,2.0957999.1924.4664-.0163.2095.2929.4589.3024-.2797.8266-.1457,1.5302-.1277.1122-.2493.4424-.4651.4694-.5225.2973-.6329-.1356-.7053.4094-1.242.2668-.3023.0541-.2259.5094-.0426.0067.0802.0134.1599.0201.24.1692026-.0141.3384-.0282.5076-.0423.4658.4439.9317.8884,1.3938,1.3331.0066.079675.0133.1599.02.2396.0837-.007.171-.0143.2547-.0213-.0467-.5592-.0934-1.1193-.1401-1.679.0855-.0072.171-.0143.2547-.0213-.0067-.0801-.0133-.1598-.02-.24.0836-.007.171-.0142.2547-.0212.0067.0801.0133.1598.02.24.1711-.0143.3384-.0283.5095-.0426.0066.0797.0133027.1599.02.2396.3402-.0284.6805-.0568,1.0189-.0851251.0067.0802251.0134027.1603251.02.24.1692-.0140749.3403-.0283749.5095-.0424749.0067.0801.0134.1598.0201.2404.5611.1274.7426-.3896.9988027-.3255.0988972.1527.1958972.3055749.293.4589.7841972.1762,1.5702972.3523,2.3544972.528.2941-.0197.6379-.5224,1.2518-.3457.0988.1527.1959.3056.2947029.4583.5094971-.0425,1.019-.0851,1.5283971-.1276.0067.0801.0134.1599.0201.2404.34.1031,1.2699.298,1.8031.0907-.0067-.0797-.0133-.1598-.02-.2395.1692-.0141.338403-.0283.5095-.0425-.0068-.0806-.0134-.1603-.020097-.2405.746697-.1836.523497.3047.802397.4164.1711-.0143251.3384-.0283251.5113-.0427.0067.0801.0134.1603.0201.24,1.0959-.1717,2.1917999-.3439,3.2895999-.5162.097.1532.1959.306.2948.4587.1692-.0142.3384-.0283.5076-.0424.0066.0797.0133.1598.02.2395.6823-.0569,1.3591-.1134,2.0396999-.170225.0067.080125.0134.160325.02.24.1692-.014175.3384-.028275.5076-.042375.0067.0801.0133.1598.0201.240375.4754.110725,1.2517-.346575,1.2517-.346575.1007.152575.1996.3057.2967.458575.1692-.014075.3402-.028375.5094032-.042475.0066968.0801.0133968.1603.0200968.24.1692-.0142.3384-.0283.5094-.0426.0067.0802.0134.1599.02.24.8479-.0707,1.6976-.1417,2.5455032-.2124.0066967.0797.0132967.1598.02.239475.1710967-.014275.3420967-.028575.5112967-.042675.0067033.0802.0134.1603.0201.24.5931-.0495,1.1881-.0992,1.7794-.1485-.0067-.0797-.0134-.1599-.0201-.24.5199.0373,1.0323034.075175,1.5503034.1123.0066966.0801.0132966.1598.0200966.2404.5027-.1231,1.0055-.2454,1.5083-.368.0067.0801.0133.1598.0201.2404.1692-.0141.3384-.0282.5076-.0424.0066.0797.0133.1599.02.2396.3402-.0284.6805-.0568,1.0189035-.085125.0066965.080225.0133965.160325.02.24.347.051825.692.103225,1.039.155.0065965.079725.0132965.159825.02.239525.595-.0497,1.1898965-.0993,1.7830964-.1488.0067.0801.0134.160275.02.24.9219036.1431,1.4448-.7252,1.9959999-.6495.0066.0797.0133.159775.02.2395.171-.0143.3384-.0282.5094-.0425.1911.2257.3823.4519.5715036.6773.4286964.0449.8611963.089475,1.2935963.1337.0067.0801.0134037.159775.0201.2399.3658.0537.4857-.2822.4857-.2822.9486037.0818,1.8972.1636,2.8438999.2455.0067038.0802.0134.1603.02.24.7315.1273,1.9753-.7403,2.2507038-.6707.0988962.1527.1958962.3055.2947962.458275.1711-.014275.3403-.028375.5095-.042575.0067038.080575.0133.1603.02.2405.1692-.0142.3403-.0284.5095-.0426.0066.079675.0133.1599.02.2396,1.2167.3107,2.4330999-.660925,2.7218999-1.1934.424-.0354.8479-.0708,1.2737-.1063.097.152775.1959.3055.2929.4584.5765.4012,1.3913.8545,2.1397999,1.0292.4221-.0352.847904-.0707,1.2718-.1061.0067.0801.0134.160275.020104.24.254696-.0213.5075959-.0424.7641959-.0638.0067.0806.0133.1603.02.2404.6787-.0566,1.3574-.113325,2.0359999-.1699.0067.0797.0134.1598.02.2395.595-.0497,1.19-.0993,1.7831-.1488.0067042.0801.0134.1603.0201.24.2499-.1012.4961-.2024.7441-.3038.0067.0801.0134.1603.0201.24.1692-.0141.3402-.0284.5094042-.0425.0066958.0801.0133958.1598.0200958.2399.5864-.1296,1.1747-.259,1.7612-.3886-.0067-.0797-.0134-.1599-.0201-.24.4325.0446.865.0892,1.2937.1337.0067.0801.0134.1598.0201043.2399.8088957.1579,1.3074957-.4636,1.7630957-.3888.0066.0802.0133.1599.02.24.1692-.0141.3403-.0284.5095-.0425.0066.0797.0133.1598.0199.2395.1692-.0141.3384-.0282.5095043-.0425.0066957.0801.0133957.1603.02.24.2547957-.0213.5094957-.0425.7641956-.0638.0068044.0806.0134.1603.0201.240375.4961-.202275.9922-.405075,1.4864-.607775.0067.0801.0134.1603.0201.24.8703.064,1.4167-.1637,2.0578999.0703.0066.0797.0133044.1599.02.2396.171-.0143.3384-.0283.5094-.0426.0067.0802.0134.1603.0201.24.5046-.1224,1.0056-.2449,1.5083-.3675249.0067.080125.0134.160225.0201.239925.171-.0142.3402-.0284.5094045-.0425.0066955.0802.0133955.1599.0200955.24.7806.1787,1.6632-.4634249,2.0159045-.4099.0066954.0801.0133954.1598.02.24.1710954-.0143.3402954-.0284.5094954-.0426.0067.0797.0134.1599.02.2396,1.255.2533,1.9437-1.1408,2.9966999-.9747.0067.080175.0134.1603.0201.24.5161.0376,1.0322.0748,1.5484.1124.0066.0797.0133047.1599.02.2396.8171.1668,1.2767-.4514,1.7612-.3883.0067.0797.0134.1599.02.2396.2548-.0213.5114-.0427.7642-.0638.0067.0801.0134.1603.0201.24.171-.014325.3384-.028325.5113-.0427.0067.0806.0134.1603.02.240375.7557-.143675,1.5132-.287175,2.2687999-.431375.0068.0805.0134.1602.0201.240375.2566048-.021375.5095-.042475.7661-.064.0066.079725.0133.159925.02.2396249.8412-.1505,1.6823-.3014,2.5272999-.4522-.0067-.0801-.0134-.1598-.0201-.240425.2529-.021075.5095-.042475.7623049-.063575-.0066049-.0797-.0133049-.1599-.02-.24.1691951-.0142.3402951-.028425.5094951-.0426-.0067-.0797-.0134-.159825-.02-.2395.0855049-.0071.1692-.0141.2547-.021325.097.152925.1959.305625.2948049.458325.171-.014325.338395-.0282.509395-.0425.0068.0806.0134.1603.0201.2404.1711-.0143.3384-.028225.509505-.0425.006595.0797.013295.1598.02.2395.926695-.1576,1.855295-.3158,2.7800949-.473225.2697-.133675-.0786-.515575.7241-.544175.4593-.0159,1.4832.5191,2.0798999.3101.5292-.1866,1.1982-1.1443,1.6992-1.1085.0067052.0802.0134.1599.0201.24.2566052-.021425.5094-.0425.766-.0639.0067.0797.0134.1598.02.239475.0837-.006875.1692-.014075.2547-.021175-.0066-.0797-.0133-.1599-.02-.2396.0837-.007.1674-.0139.2529052-.0211,0,0,.2743948.3718.7860948.1756-.0067-.079725-.0134-.1598-.02-.2395.1673-.014.3384-.0283.5094-.0426-.0067-.0801-.0133-.1598-.02-.2399.2529-.0211.5095052-.0426.7623-.063725-.0066-.079675-.0133-.159775-.02-.24.7709.016425,1.5418.032825,2.3125999.048725-.0066-.079725-.0133-.1599-.02-.24.3384-.0283.6787-.056725,1.0171-.0849-.0061-.0723-.0122-.1454-.0182-.2177.6644.1545,1.4011.231875,2.3125999.0262-.0067-.0797-.0133-.1599-.02-.2396.5409.357,1.0856.7142,1.6285,1.0715.9267-.158,1.8534-.3157,2.7800999-.4737-.0066-.0797-.0133-.1599-.02-.2396.0856-.0071.1711-.0142.2548-.0212.0066.0797.0133.1598.02.2395.3402-.0284.6786-.0566,1.017-.0849.0067055.0802.0134.1599.0201.24.171-.014325.3402-.0284.5131-.0428.0068.0806.0134.1603.0201.2404.2529-.0211.5057-.0422.7623-.0636.0067.079675.0134.1598.02.2395.9268-.1576,1.8535-.3156,2.7801999-.4733.0067.0797.0134.1599.02.2396,1.0123-.1648,2.0226999-.3298,3.0367999-.4947-.0067-.0801-.0133-.1598-.0201-.240425.1674-.014.3384-.028275.5095-.042575-.0067-.0801-.0132943-.1598-.02-.2399,1.0122-.1648,2.0225999-.3298,3.0348999-.4946-.0067-.0801-.0134-.1598-.02-.24.2547-.0212.5094-.0425.7642-.0638-.0067-.0801251-.0133942-.1598-.0201-.2399.7768-.4732251.1761.1586.7223-.5436.0874058-.0073.1711-.0143.2566-.0215-.0049-.0582-.0097-.1165-.0146-.1747.2529-.0432.5058-.0859.7569-.1289-.0067-.0797-.0134-.1598-.02-.2395251.1711-.0142749.3384-.0282749.5095059-.0425749.228-.3409.456-.6823.684-1.0237.4257941-.0355.8496941-.0709,1.2736941-.1063-.0066941-.0797-.0134-.1598-.0201-.24.1692-.0141.3403-.0284251.5095-.0425l.7023-.7832c.1043-.8139.208606-1.6278.3092-2.4414999.2499-.1015.498-.2025.7442-.3037.3857-.5151.7696-1.0309,1.1535-1.5458.0855-.0072.1692-.0142.2566-.0215.0369-.5671253.0738-1.1337253.1126-1.7005253.0856-.0072.1711-.0143.2566-.0214.057-.3272.114-.6538.1728-.9807.2396-.1809.4828-.3622.7242-.5437-.0134-.1603-.0268-.3201-.0400939-.48.0854939-.0071.1710939-.0143.2546939-.0213-.0466939-.5596-.0934-1.1197-.1402-1.6794.0856-.0072.1692-.0141.2548-.0213-.0334-.3994-.0667-.7992-.1002-1.1995-.0855.0072-.1692.0141-.2547.0213-.0133-.1599-.0267-.3197-.04-.4796-.0837.007-.1692.0142-.2547.0213-.1189-.3927-.236-.786-.3549-1.1787.169206-.0141.340206-.0284.5094-.0425.0656-.2467.1292-.4936.1947-.7408.0837-.007.1692-.0141.2529-.0211-.0201-.24-.0401-.4799-.0601-.7199.0874-.0073.1729-.0145.2566-.0215.2537061-.975-.6769-3.1516-.557-3.5775.1662-.0941.3269-.1882.4913-.2822.3358-1.0017-.7407-2.4138-.7315939-2.5967.087394-.0073.172894-.0144.2565939-.0214-.0134-.1599-.0267-.3197-.0401-.4796.0837-.007.1692-.0141.2548-.0212-.0734-.8794-.1469-1.7592-.2202939-2.639.0854939-.0071.1710939-.0143.2546939-.0213-.0266939-.3201-.0534-.6398-.0801-.9595.0837-.007.1692-.0141.2548-.0212-.2445-.8656-.4853-1.7314-.7298-2.5965.0856-.0071.1711-.0143.2548-.0212.0569-.3276.1157-.6544.1746061-.9813.0835939-.0069.1672939-.0139.2527939-.0211.2654-.9252-.7183-2.3024-.7077939-2.357.083594-.007.169194-.0141.254694-.0213.0637-.2465.127306-.4935.1928-.7406.0874-.0073.1711-.0143.2566-.0214-.0298-1.3664-.0596-2.7331-.0857-4.0997-.0873939.0072-.1711.0142-.2547.0212-.0201-.24-.0401-.4795-.0601-.7199-.0855939.0071-.1692.0141-.2565939.0214-.006706-.0802-.013406-.1599-.020106-.24.0874-.0073.171106-.0143.2566-.0214.057-.3267.114-.6534.1747-.9804.0855-.0071.1692-.0141.2547-.0212-.199-1.3527-.3961-2.705-.5951-4.0577-.2497-2.6091,1.4077-5.9018-.8756-7.4161.125806-.6468.3396-.7992.6622-1.2631.085606-.0071.1692-.0141.256606-.0214-.013306-.1603-.026706-.3201-.04-.48.083594-.007.1691939-.0141.2527939-.0211-.04-.4795-.0801-.9599-.1201-1.4395.0855-.0071.171-.0143.2566-.0214-.1187-1.3316-.5634-2.1283-1.494-2.5327.0655-.2471.1292-.4941.194706-.7407.083694-.007.169194-.0142.252894-.0212-.02-.2399-.0401-.4804-.0601-.7199.0855-.0072.169206-.0141.2566-.0214.0369-.5667.0758-1.1335.1127-1.7006.0855-.0071.171-.0143.2566-.0214-.0134-.1599-.026694-.3197-.0401-.4796.0856-.0071.1692-.0141.2529-.0211-.0801-.9599-.1602-1.9199-.2403-2.8789-.02-.0597-.330194-.0527-.293-.4593.0856-.0072.1692-.0141.2529-.0211-.1535-1.8393-.307-3.6782-.4606-5.518-.0836.007-.1673.014-.2528.0211-.0134-.1598-.026694-.3197-.0401-.4799-.0855.0071-.1711.0142-.256594.0214-.013306-.1599-.026706-.3197-.04-.4796-.175906-.0655-.353606-.1314-.529506-.1974-.0134-.1603-.0267-.3201-.0401-.48-.0837.007-.1692.0141-.2529.0211.1292-.4936.2584-.9877.3894-1.482.0836-.007.1692-.0141.2528-.0211-.0801-.9595-.1602-1.919-.2403-2.879.0855-.0071.1711-.0142.256606-.0214-.02-.24-.04-.4795-.06-.7195.085494-.0071.169194-.0141.252794-.0211.1943-.8576-.6966-2.2892-1.0026-2.8153-.0874.0073-.1711.0143-.2566.0214-.4141-.8342.0363-1.3141-.6678-1.8771.1295-.6467.3378-.7973.664-1.2637.0837-.007.169206-.0141.2529-.0211-.0134-.1599-.026694-.3197-.04-.4796.0855-.0071.171-.0142.2565-.0214-.0734-.8798-.1468-1.7591-.220194-2.6389.085494-.0072.169194-.0142.252794-.0212-.0133-.1598-.0266-.3196-.04-.4799.0855-.0072.171-.0143.2547-.0213-.0534-.6398-.1068-1.2792-.1602-1.919-.0836.007-.1692.0141-.2547.0213.1043-.814.2049-1.6281.3092-2.442-.0837.007-.1711.0143-.2547.0213-.5094-1.437.2565-2.5571-.3004-3.5989-.083694.0069-.1692.0141-.2548.0212-.0133-.1598-.0267-.3197-.04-.4795-.1127-.0713-.2253-.1422-.338-.2135.1915-.016.383-.0319.5746-.0479-.0067-.0797-.0134-.1599-.02-.2396Z" fill="#7bb9df" fill-rule="evenodd"/>
      <path d="M134.5282317,23.011884c1.6921-.3349,2.1223999-1.2609,2.6842999-2.5414.0956-.008.1936-.0161.2891-.0241-.024-.2879-.048-.5758-.072-.8631.0955-.0079.1911-.0159.2867-.0239.5744-.8996,1.1709-1.3619,2.1565999-1.9181-.1069-1.1368-.1564-2.0463.362-2.6374-.2852-.7942-.585-.7836-.9849-1.3667-.4778.0399-.958.08-1.4383.1201-.0078942-.0956-.016-.1917-.0238942-.2873-.0956058.008-.1912058.0159-.2867058.0239-.1852942.1442.021.4253-.5518.3354-.008-.0956-.016-.1918-.024-.2873-.7589.1596-1.5178.3197-2.2766999.4793-.008-.0956-.016-.1917-.024-.2873-1.048.1837-2.0958999.368-3.1414999.5515-.0796.1997-.1591.3994-.241.5999-.7877.4206-1.6496.0661-2.2766999.4793-.0795944.1997-.1591.3994-.2385944.5997-.5838056-.0481-1.1676055-.0962-1.7514055-.1437.008.0956.016.1918.0241.2879-.8589.2876-1.1893.6532-1.3182,1.5583-.5878-.1254-.2428.0599-.5998-.2398-1.2073.1771-1.617.4278-2.2285999,1.0551-.0796.1997-.1592.3994-.2387.5996-.3846.0322-.7692.0643-1.1515.0962.008.0955.016.1917.024.2873-.2787.12-.5598.2397-.8384.3598-.074.2961-.1454946.5913-.2171.8872-.9442.3026-1.05.7354-1.9419,1.0312l.048.5751c-.8384.3599-1.6769.7198-2.5152999,1.079-.1695.3041-.3366.6079-.5038.9112-.289.0241-.5757.048-.8623948.0719.008.0962.016.1918.024.2879-.6926052.637-1.129,1.0006-1.2701052,2.1341-.6737.0562-1.3427.112-2.0163999.1683.008.0955.016.1917.024.2873-.0956.0079-.1911.0159-.2867.0239s-.1911.0159-.2867.0239c-.1670949.3038-.3366.6079-.5037.9111-.0956.008-.1935.0162-.2891.0242-.0715.2958-.143.5917-.2146.8869-.4722.1363-.942.2717-1.4142.408-.2547.4073-.5118.8149-.7664,1.2229-1.1958.949-2.3586999.4188-2.7107999,2.2537-2.4213999.2725-4.2498999,2.3755-4.2410999,4.6993-1.322-.0142-2.3449999-.2229-3.4281951.576-.0796048.1997-.1615048.3996-.2411048.5993-.2786.1201-.5574.2396-.8384.3599.016.1917.032.3835.048.5752-.1831.1121-.3686.2238-.5517.3359.016.1917.032.3835.048.5752-.1831.1121-.3663.2236-.5494.3357.016.1917.032.3835.048.5752l-.5277.6238-.3131-.2637c-.4698.1354-.942.2717-1.4142.4079-.0795.1997-.1591.3994-.2386.5991-.1912.0159-.3847.0321-.5757953.0481-.1671046.3038-.3366046.6072-.5037046.9111-.3742954.1274-.7509.2557-1.1275.384-.0796.1997-.1592.3994-.2387.5991-.2867.0239-.5758.048-.8625.072.008.0955.016.1917.0241.2878-.8739.5692-1.3796954.7347-1.5833,1.8703-.3822.0319-.7668.064-1.1515.0961-1.4528955,2.0766-4.3862999,2.8741-4.4077999,6.1615-.7533.2559-1.5042.5117-2.2549999.7674-.0796.1997-.1590957.4-.2387.5997-.1911.016-.3846.0321-.5757.0481.0079.0955.016.1917.0239.2873-.1911.0159-.3845957.0321-.5757.048.008.0962.016.1917.024.2879-.2867.0239-.5758.0481-.8624.072-.0796.1997-.1616.3996-.2411.5993-.1911.0159-.3823.0319-.5733957.0478-.4242043.7115-.8483042,1.4229-1.2701042,2.1341-.3606.32-.7213.6394-1.0795.9591-.0475.5832-.0951,1.1669-.1426,1.7501-.098.0082-.1935.0161-.2891.0241.008.0962.016.1917.024.2879-.6543-.115-.7461-.1777-1.1995-.4797-.008-.0955-.016-.1917-.024-.2872-.1911.0159-.3823.0319-.5758.048-.008-.0961-.016-.1917-.024-.2879-.4063-.2559-.8149-.5111-1.2212-.7671-.1356-.4716-.2736-.9431-.4091-1.4141-.0956.008-.1910959.016-.2867.0239-.6445-1.0053-1.1839-1.9051-2.2300999-2.421-.016-.1917-.0321-.3841-.0481-.5758-.993196-.1402-1.3768-.5562-2.3726999-.671-.024-.2873-.048-.5752-.072-.863-.642496-.4342-.7777-1.0165-1.2956-1.63-.0956.008-.1912.0159-.2867.0239-.2175-.2711-.4327-.5431-.6478-.815-.8311-.0713-2.2507999-.3059-2.3486999-.3831-1.2615-.6447-.6721-1.0199-1.3436-2.2052-.4967-.8775-2.2666999-2.1383-3.3816999-2.3249-.016-.1923-.032-.384-.048-.5758-.9185-.5993-1.837-1.1986-2.7553963-1.7974-.0081037-.0961-.0161037-.1923-.0241037-.2879-.4882-.056-.9764-.1115-1.4622-.1678-.3936-.2474-.41-1.0502-.6982-1.39-.4887-.5799-1.7864964-.8534-2.6833999-.9349-.2754-1.5408-1.0314-1.7212-1.9435-2.445-.1115-.1838-.2231-.3675-.3347-.5513-.3926-.064-.7828965-.1277-1.1755-.1917-.1196-.2793-.2392-.5592-.3587-.8391-.4023-.4386-1.6636965-.88-2.3990999-.9581-.0321-.3841-.0641-.7675-.0961-1.151-.0956.008-.1911.016-.2867.024-.3397966-1.0164-1.0619-1.4529-2.1579999-1.558-.3889-1.2871-1.1976-1.6364-2.2060999-2.1332-.1911.0159-.3823.0319-.5758.0481-.4291-.2704-.2228-.7092-.9585-1.079-.016-.1917-.032-.3834-.048-.5752-.1911.016-.3823.0319-.5758.0481-.3671-1.0838-1.0902-1.6195-1.917-2.1579-.008-.0956-.016-.1917-.024-.2873-.2891.0242-.5758.0481-.8625.072-.1116-.1843-.2255-.3679-.3370969-.5516-.0956031.008-.1911031.0159-.2867031.0239-.016-.1917-.032-.3834-.048-.5752-.4087-.2557-.8149-.5111-1.2236-.7669-.024-.2879-.048-.5752-.072-.863-.0956.0079-.1911.0159-.2891.0241-.016-.1917-.032-.3835-.048-.5752-.2947-.0722-.5894-.1444-.8865-.2159-.008-.0961-.016-.1917-.024-.2879-.5542-.3849-.9824-.6162-1.7969-.719-.2423-.7701-.7634-1.565-1.3196-1.9173-.1912.0159-.3823.0319-.5758.0481-.1196-.28-.2392-.5599-.3587-.8392-.0956.008-.1912.016-.2867.024-.9263-.8946-1.7688-1.5917-3.2615999-.8867-.3943-.257-.4044-1.0404-.6959-1.3908-.3027-.1678-.6077-.3354-.9104-.5032-.008-.0955-.016-.1917-.0241-.2879-.5837-.0475-1.1675-.0956-1.7512-.1431-.0081-.0961-.016-.1917-.0241-.2879-.1910972.016-.3822.0319-.5733.0479-.1116-.1837-.2256-.3673-.3371-.551-.1911.0159-.3846972.0321-.5758.048-.008-.0961-.016-.1917-.024-.2879-.5734.0479-1.1516.0962-1.7248973.144-.0796027.1997-.1591027.3994-.2411027.5993-.2787.1201-.5597.2404-.8384.3599.016.1917.032.3834.048.5752-.0956.0079-.1911.0159-.2867.0239.04.4796.0801.9592.1201,1.4388-.2811.1197-.5598.2398-.8408973.3595-.0795027.2003-.159.4-.2386026.5997-.0956.0079-.1911.0159-.2867.0239.016.1917.032.3834.048.5752-.0955.0079-.1935.0161-.2891.0241.0961,1.1509.1922,2.3019.2882,3.4522.2015.08.4006.1596.5998.2398.016.1917.032.3835.048.5752.0956-.008.1911-.016.2867-.0239.024.2878.0481.5757.072.863.2016.08.4007027.1596.5998.2398.016.1918.032.3835.048.5752.5043.2478,1.0085.4956,1.5103.743-.0443973.3904-.4683,1.3069-.1186,2.0379.0956-.008.1911-.0159.2867-.0239.016.1917.032.3834.048.5752.2016.08.4007.1596.5998.2398.8126.7429,1.5907027,1.4766,1.9675,2.7328.1911-.0159.3822028-.0319.5757-.048.2199.5596-.02.2506.3347.5512.3892,1.1469,1.4952,1.4275,2.7338028,1.51.1973971,1.9027.6490971,1.723,1.3892971,2.7811.2891-.0241.5758-.0481.8625-.072.3698,1.0294,1.0425,1.3648,1.3676,2.493.8002.1335.6824.3352,1.4863.4551.3688,1.3351.915,1.9132,1.9434,2.445.2946.0717.5917.1437.8865.2159.1275.3755.2551.751.3827,1.1264.2015.08.4006.1596.5998.2399,1.0376,1.2491,2.1537999,2.2572,4.2439999,2.2529.0401.4796.0801.9586.1201,1.4382.3998032.2649.3325.5544.6478032.815.2946968.0722.5917967.1437.8864967.2159.122.2797.2415033.559.3611.8389.1991.0796.3982.1598.5974033.24.016.1918.032.3835.048.5752.3925967.0635.7852967.1275,1.1755967.1918.235.6828.3561.6066.6718,1.1023,1.0127.1428,1.299.4605,2.6377999.3596.1614,1.5021.5764,1.8626,1.1025,2.8044.8957.1243,1.0343034.4014,2.0620999.4077.0239.2872.048.5751.072.863.0956-.008.1911-.0159.2891-.0241.2859.8602.6526,1.1893,1.5582,1.3182.4208,1.1502.157.3243.9345.791.2307.1401.2056.3588.6238.5271.016.1918.0321.3841.0481.5758,2.4790999.3037,2.6547999,2.1775,4.5546999,2.5163.3027.9454.7349,1.0513,1.0306,1.942,1.0681.2019,1.2322037.8125,2.3966999.9589.1356.471.2736.9424.4092,1.4141.0955-.008.1911-.016.2866-.024.016.1918.032.3835.048.5752.2016.08.4007038.1596.5998.2398.016.1918.032.3835.0481.5752.515.7226,1.3841,1.1348,2.4230999,1.2466.04.479.08.9586.1201,1.4382.0955-.008.1911-.0159.2866039-.0239.3193961.944.8315961,1.2002,1.845,1.2942.5032961,1.7647,2.089496,2.1778,4.220096,1.9657.3322.9826,2.2660999,2.1311,3.8853999,1.4138,1.0833-.4808,2.4690999-2.3532,2.5882999-3.6923.3295.1439.4958.4644.6213.5273.1936-.0162.3847-.0321.5782-.0483.008.0962.016.1918.024.2879,1.2074.3425,3.7052999-.8307,4.2425999-1.2232.0796-.1997.1591043-.4.2387-.5997.1911-.0159.3846-.0321.5757-.048-.0079-.0956-.016-.1917-.0239-.2873.3926043.0634.7829.1277,1.1731.1914.008.0961.016.1917.024.2878.9604-.0801,1.9184-.1601,2.8787999-.2403.2592-.3824.8639-.632,1.0771-.9589.0716045-.2959.1456045-.5913.2171-.8872.4722-.1362.942-.2717,1.4142-.4079.3446-.5111.6869-1.0227,1.0291-1.5342.1935-.0161.3846-.0321.5781-.0482.0796-.1997.1591046-.3994.2387-.5991.0956-.008.1911-.016.2867-.024.1431-.5917.2886-1.183.4317046-1.7741.3765954-.1283.7508954-.2558,1.1274954-.384-.008-.0962-.016-.1917-.024-.2879.2866-.0239.5757-.0481.8624-.072.2547-.4074.5118-.8149.7664-1.2223.1936-.0162.3847047-.0321.5758-.0481l.5277-.6238c-.016-.1917-.032-.3834-.048-.5752.1831-.1121.3686-.2238.5517-.3359.2268-.482-.1717-.8469.1907-1.1743.1911-.0159.3847-.0321.5758047-.048-.008-.0962-.016-.1918-.0241047-.2879.3847-.0321.7669-.064,1.1516-.0961-.008-.0962-.016-.1918-.0241-.2879,1.1579-.5676,1.6314-.2847,1.894-1.6063.634-.2154.6988-.3038,1.1011-.6711-.008-.0962-.016-.1918-.024-.2879.1935048-.0162.3846-.0321.5758-.0481.8857048-.629,1.3915-1.429,1.5087048-2.7331.8107951-.1441,1.0412951-.2066,1.3925951-.6954,1.041-.3539,1.4357-1.3323,1.5328-2.4459.3767-.1276.7509-.2557,1.1276049-.3834-.008105-.0961-.016-.1917-.024105-.2879.7589-.1601,1.5178-.3197,2.2766999-.4799-.008-.0955-.016-.1917-.024-.2873.1911-.0159.3846-.0321.5758-.048-.0081-.0962-.016-.1917-.0241-.2879.2811-.1203.5598-.2398.8385-.3599.1486-.8706.4068-.7466.4317-1.7741,1.7087-.1066,2.8158999-.6483,3.0213999-1.9904.8466-.2619,1.2587-.6571,1.9396-1.0309.0579-.4878.1135052-.9748.169-1.4624,1.3199-.1823,1.6511-.5961,2.5176999-1.0792.0715-.2958.1431-.5911.2146-.887,1.1446-.4395.2849-.2481.7905-.935.0955-.008.1935-.0162.289-.0241-.008-.0962-.016-.1918-.024-.2879.6553-.2478,1.3107053-.4955,1.966-.7433.0795-.1997.1591-.3994.2387053-.5991.1910946-.0159.3845946-.0321.5756946-.0481l.5277-.6238-.048-.5751.5278-.6233c.1911-.0159.3822-.0319.5757-.048.1671054-.3039.3342-.6077.5014-.9109.0955-.008.1935-.0162.2891-.0242-.0161-.1923-.0321-.384-.0481-.5757.2787054-.1195.5598-.2398.8385-.3593.6295-.47,1.1314-.9425,1.2941-1.8462.8613-.2884,1.1892-.6537,1.3181055-1.5588,1.0763945-.132,2.9351944-.8332,3.3561944-1.4385-.016-.1923-.032-.3841-.048-.5758l.5277-.6232c.2787-.1201.5598-.2398.8385-.3599.215-.3343.1214-1.225.4557-1.4863.2867-.0239.5757-.048.8624-.0719.7784-.474,1.6399-1.7391,1.7979-2.7573Z" fill="#fff" fill-rule="evenodd"/>
      <path d="M55.7267337,66.675284c.0979-.0082.1935-.0162.289-.0242-.072-.863-.144-1.7261-.2161-2.5891.0891-.4603.4259-2.0455.0466-2.901-.0956.008-.1912.016-.2867.024-.1276-.3755-.2552-.751-.3852-1.1268-.1911.0159-.3822.0319-.5757.048-.1116-.1837-.2232-.3675-.3347-.5512-.6714.056-1.3427.112-2.0139999.1681-.1116-.1838-.2232-.3675-.3347-.5513-.1935.0162-.3847.0321-.5758.0481-.008-.0962-.016-.1917-.024-.2879-.4882-.0561-.9764-.1115-1.4623-.1678-.0079-.0956-.016-.1917-.0239-.2873-1.3773964.2148-2.5338999.7125-2.7323964,1.9662-.4802035.0401-.9604035.0802-1.4382035.12-.2571.4076-.5117965.815-.7689,1.2226-.0955.0079-.1911.0159-.2866.0239.016.1917.032.384.048.5758-.2787.1195-.5597.2397-.8408.3594-.3423.5115-.6844966,1.0231-1.0291,1.5348-.4722.1356-.942.2717-1.4142.4073.008.0962.016.1917.024.2879-.3606.32-.7189.6392-1.0795.9592.024.2878.048.5751.072.863-.1831.1121-.3662.2236-.5516967.336.008.0955.016.1917.024.2872-.0956033.008-.1911033.016-.2867033.024-.1671.3038-.3342.6076-.5037.9111-.1912.0159-.3847.0321-.5758.048.008.0962.016.1918.024.2879-.5653.144-1.1355.2879-1.7007967.4319.0078968.0955.016.1917.0238968.2873-.5357.5276-1.0714,1.0553-1.6072,1.583.024.2872.048.5751.0721.863-.2867.0239-.5757968.0481-.8625.072-.7108.7353-1.4217,1.4701-2.1325999,2.2054-.257.4082-.5116969.8156-.7664,1.2229-.1935.0162-.3846.0322-.5781.0483.008.0962.016.1917.024.2879-.3583.3192-.7165.639-1.0771.959.024.2872.048.5751.072.863-.0955.008-.1910969.016-.289.0241-.701.8825-1.3138.4579-1.5809,1.8701-.6146.1878-.7993.2514-1.1035.6713-1.1469.4109-.3384.1539-.7904.935-.0956.008-.1911.016-.2867.024-.0739.296-.1455.5913-.217.8872-1.2565.4242-2.2089999,1.9531-2.3256999,3.3804-.1911.016-.3822.0319-.5733.0479-.1671.3038-.3365971.6079-.5038.9111-.1935.0162-.3846.0321-.5757.0481-.2547.4079-.5117.8155-.7664,1.2229-.1855.1123-.3686972.2238-.5518.3359-.0715.2953-.1431.5912-.2146.887-.098.0082-.1935.0162-.2891.0241.0898028,1.6525-.2366,1.5174.5292,2.8524.016.1923.032.384.048.5757.0956028-.008.1912-.0159.2867-.0239.016.1917.032.3834.048.5752.3027.1678.6078.3353.9105.5031.1916,1.143.3857,2.2858.5772,3.4281.5683,1.3034,1.6558,2.371,2.3237999,3.5722252.8911.1265,2.1422999.8791,3.5025999.2868-.008-.0956-.016-.1917-.024-.2873.1912-.0159.3823-.0319.5734-.0478-.008-.0962-.016-.1918252-.024-.2879,1.0429-.4756,1.3121.1563,1.966-.7433252.7088-.2408.4629-.189.8144031-.6477.0978969-.0082.1934969-.0162.289-.0242l-.048-.5751c.0955969-.008.1911969-.016.2866969-.024.0739-.296.1455-.5913.2171-.8872.0955-.0079.1911-.0159.2866-.0239-.024-.2879-.048-.5752-.072-.863,1.8231-.3218,2.7936999-1.664,3.5251999-2.9015l-.048-.5751c.2419-.3582,1.1069-.4569,1.3901-.6959.7147-.6027.9921-2.1222.861-3.5481.9145-.2844,1.6428-.753,2.2070999-1.3426.0795-.1997.1591-.3994.2386-.5996.2891-.0242.5757-.0481.8624-.072.0796-.1997.1615-.3996.2411-.5993.1911034-.016.3823-.0319.5758-.0481.0795-.1997.1591-.3994.2386-.5991.1912-.0159.3823-.0319.5758-.048.0796-.1997.1591-.3994.2386-.5997.098-.0082.1936-.0162.2891-.0242.2276-.3858.1092034-1.1704.4533-1.4861.3767-.1276.7533-.2559,1.1276-.384.0795-.1997.1591-.3994.2386-.5991.6257035-.6314,1.2466-1.263,1.8723-1.8944.0716-.2958.1431-.5911.2147-.8869.1911-.016.3822-.0319.5757035-.0481-.008-.0962-.016-.1917-.024-.2879.2706965-.2156.5437965-.4315.8144965-.6471.0475035-.5832.095-1.1669.1426-1.7501.2841-.6023,2.8276999-2.2075,3.5491999-2.6135.0555-.4876.111-.9752.1666-1.4628,1.4407-.5226,1.7014-2.2692,2.9253999-3.1406-.0321-.3841-.0641-.7675-.0961-1.151.0956-.0079.1911-.0159.2867-.0239-.008-.0962-.016-.1917-.024-.2879-.0041-.0195-.4376-.0837-.3347-.5512.0955-.008.1911-.016.2867-.024l-.048-.5751Z" fill="#fff" fill-rule="evenodd"/>
      <path d="M109.8252323,91.237684c.3365-.0281.673-.0561,1.0067-.084.5779051.4147.1339051,1.2018.5024,1.993.6264.7611,1.2528,1.5223,1.8765051,2.2845,1.4946948.1929,1.9216948.376,3.3483947-.2795.5589-.0466,1.1179-.0933,1.6741-.1397-.0113-.1351-.0224947-.2693-.0337-.4043.2252053-.0189.4477-.0374.673-.0562.0887-.2786.1775-.5571.2663-.8357l2.6780999-.2235c.7667-.3766,1.5492-1.301,2.2094999-1.8122.055-.6829.1101-1.3649.1651-2.0478.114-.0095.2252055-.0188.3365-.0281-.3237-1.1936-.6501-2.3869-.9738-3.5805-.1112.0093-.2224946.0186-.3337.0278.055-.6828.11-1.3657.165-2.0486.1113-.0093.2225-.0186.3338-.0279.3291-1.727-1.1537-4.226-1.7424-4.7369-.4088-1.3073-1.3507-1.6882-2.5129999-1.8243-.3477-1.0784-.1575-.9135-1.1051-1.1283-.1928-.9334-.3827-1.867-.5726-2.8006-.1113.0093-.2224947.0186-.3338.0279-.436-1.4326-.7976-1.3357-1.8426947-1.8803-.0112052-.1342-.0225052-.2692-.0338052-.4043-.4477.0374-.8927.0745-1.3404.1119-.0112-.1342-.0225-.2693-.0337-.4035-.5205-.7675.2856-1.6778-.2699-3.2329-.1111948.0092-.2225.0185-.3337.0278-.0337-.4035-.0674-.8078-.1012-1.2121-.7264-.6169-1.4528-1.2345-2.1792948-1.8522-.0224051-.2692-.0449051-.5385-.0674051-.8078-.2337-.1165-.4674-.2321-.704-.3484-.0112-.135-.0224-.2693-.0337-.4043-.4562-.0971-.9152-.1948-1.3714-.2918-.0337-.4044-.0674949-.8087-.1011-1.2122-.4561-.3978-.4106-.6913-.7713949-1.1562-.111305.0093-.222505.0186-.333805.0279-.1477-.3949-.2927-.7899-.4376-1.1841-.2225.0186-.4478.0374-.6703.0559-1.1164-1.2634-2.2326999-2.5259-3.3518999-3.7891-.2223951.0186-.4449.0371-.6673951.0557-.2702049-.5197-.5377049-1.0397-.8052049-1.5605-.2252.0188-.4477.0373-.6702.0559-.0112-.1342-.0225-.2693-.0337-.4035-.2224.0186-.4448951.0372-.6702.056-.0113-.1351-.0225-.2693-.0336951-.4044-.559.0467-1.1152048.0931-1.6742048.1398-.0113-.1351-.0225-.2693-.0337952-.4043-.2224048.0185-.4477048.0373-.6702048.0559-.9475-.4818-2.2811999-2.3023-4.1533999-1.2802.0112.1342.0225.2693.0337.4035-.2225.0185-.445.0371-.6702.0559-.2887.5673-.5775,1.1337-.8691,1.7003-.4364.1724-.8702.3438-1.3039.516.0112.1342.0225.2693.0337.4035-.314.2973-.628.5955-.9392.8927.0224.2692.0449.5385.0674.8078-.1112.0093-.2225.0186-.3337.0278.0674.8079.1349046,1.6165.2023,2.4243-.2112.1537-.4252.3067-.6363954.4603.0223954.2693.0448954.5386.0673954.8078-.4936,1.3666-.8785,1.4527-.7003954,3.7203.1111954-.0093.2224954-.0186.3336954-.0279.0113046.1351.0225.2693.0337.4043.0112.1343.0225.2693.0337.4035.3562.2414.7153.4835,1.0715.7249.0112.1342.0224046.2693.0336.4035.3478046.1069.6927.2133,1.0377.3205.1815.7983.3602,1.5977.5389,2.3962.4815.367.9601.7333,1.4416,1.1003.8155,1.1474.7932,1.9205,2.2102999,2.2567.2927.789.5826,1.5791.8726,2.3683.2224-.0185.4449-.0371.6702-.0559.145.395.2899.7892.4349,1.1843.6067.7932,1.6245,1.3451,2.8129999,1.3929.2806049,2.5563.8749,2.6309,1.3777,4.3603,1.0649049.1763,1.5512.5674,2.7455999.5842.186305,1.3943.3611,2.2801.94,3.177.3562.2415.7152.4826,1.0714.7241.0674.8078.134905,1.6164.2024,2.4243.114-.0096.2252-.0188.336505-.0281.022395.2692.044895.5385.067395.8078.1112-.0093.2225-.0186.3337-.0279.0226.2701.045.5394.0675.8087.1907.2713,1.8479,1.3045,2.1427999,1.448Z" fill="#fff" fill-rule="evenodd"/>
    </g>
  </g>
</svg>