<?xml version="1.0" encoding="UTF-8"?>
<svg id="_レイヤー_2" xmlns="http://www.w3.org/2000/svg" version="1.1" viewBox="0 0 205.5 153.9">
  <!-- Generator: Adobe Illustrator 29.6.1, SVG Export Plug-In . SVG Version: 2.1.1 Build 9)  -->
  <defs>
    <style>
      .st0 {
        fill: #fff;
      }

      .st0, .st1, .st2, .st3 {
        fill-rule: evenodd;
      }

      .st1 {
        fill: #a7d2e8;
      }

      .st2 {
        fill: #fcd48e;
      }

      .st3 {
        fill: #f9c663;
      }
    </style>
  </defs>
  <g id="design">
    <g>
      <path class="st1" d="M36.2,125.9h.3c.4,1.4-.4,2.5.6,3.4.4,1.5,1,1,2,1.7.4.5.8.9,1.1,1.4.6,0,1.1.2,1.7.3v.3h2.8c0-.2.2-.4.3-.6.9-.8,1.5-1.1,1.7-2.6.5,0,.9.2,1.4.3v.3c1.5,0,2.8-.3,3.4-1.1v-.6c.2,0,.4-.2.6-.3v-.3c.6.1,2.2.6,3.1.3v-.3h.6c0-.2.2-.4.3-.6.5,0,.9-.2,1.4-.3,0-.3.2-.6.3-.9.9-.3,1.7-.6,2.6-.9h.9c0-.2.2-.4.3-.6h.6c0-.2.2-.4.3-.6h.6v-.3h.9v-.3h.9v-.3h.6c.4-.5.8-.9,1.1-1.4h2.3v-.3h.6v-.3c.3,0,.6-.2.9-.3v-.6c.9,0,2,.4,2.8,0,.2-.3.4-.6.6-.9h1.7v-.3c.5,0,.9-.2,1.4-.3,0-.2.2-.4.3-.6.4,0,.8-.2,1.1-.3.4-.5.8-.9,1.1-1.4h1.1v-.3h.9c0-.2.2-.4.3-.6h1.7v-.3h.9v-.3h2.3v-.3h.6v-.3h.9v-.3h.6v-.3c.5,0,.9-.2,1.4-.3v-.3h1.1v-.3h.6v-.3h.6c.4-.5.8-.9,1.1-1.4h.6v-.3h2.8v-.3h.6c.2-.3.4-.6.6-.9h2.8c.4-.1,1.5-.9,1.7-1.1,0-.3.2-.6.3-.9.1,0,1.4.3,2,.3,1.3-.2,2.6-.4,4-.6v-.3h.6v-.3c.6,0,1.1-.2,1.7-.3,0-.2.2-.4.3-.6h1.1v-.3h.6v-.3h2.6v-.3h.6c0-.2.2-.4.3-.6.5-.2.9.3.9.3h.3v-.3h1.4c.2-.3.4-.6.6-.9h2.6v-.3h.6v-.3h2v-.3h.6v-.3h1.4v-.3c.4,0,.8-.2,1.1-.3,0-.2.2-.4.3-.6.4,0,.8-.2,1.1-.3v-.3c1-.3,1.9,1.1,3.4.6v-.3h.6v-.3h2v-.3h.6v-.3h.6c.3-.4.6-.8.9-1.1.9-.4,2.7,1.1,4.3.6v-.3h.9v-.3c1,0,2.1-.2,3.1-.3v-.3h.6v-.3c1.1,0,2.3.2,3.4.3v-.3h.6v-.3c.5-.1.5.3.6.3.9,0,1.9-.2,2.8-.3,0-.2.2-.4.3-.6.9,0,1.9.2,2.8.3v-.3h.6v-.3c.8,0,1.5-.2,2.3-.3v-.3c.3,0,.6-.2.9-.3v-.3c.5-.2.5.3.6.3,2.2,0,4.3.2,6.5.3v-.3h.6v-.3h2.6v-.3h.6v-.3c.6,0,1.1-.2,1.7-.3v-.3h.6v-.3c.8,0,1.5.2,2.3.3h2.3v-.3c.6,0,1.1-.2,1.7-.3v.3h4.3v-.3h2.3v-.3c.5,0,.9-.2,1.4-.3v-.3c.9,0,1.9.2,2.8.3v-.3h.6c0-.2.2-.4.3-.6h.6c0-.2.2-.4.3-.6.6.2,1.1.4,1.7.6v.3h1.4v.3c.7-.2,1.3-.4,2-.6v-.3h2.6v-.3h.6v-.3c.5-.1.5.3.6.3.6.1,1.7,0,2-.3v-.3c1.4-.4,1.1-1.1,1.7-2.3h.3v-.9c.1-.3,1.2-1.5,1.4-1.7v-2.3h-.3c0-.4-.2-.8-.3-1.1h-.3c-.1-.6.8-1.7.3-2.6h-.3c-.3-1.3-1.5-1.8-2.8-2-.2-1-.7-1.2-1.1-2-.9-.2-1.3-.5-2.3-.6h-1.4v.3h-.3c-.3-.5-.6-.9-.9-1.4h-.6v-.3h-.6v-.3h-.9c0-.2-.2-.4-.3-.6-.6,0-1.1-.2-1.7-.3v-.3h-.6v-.3c-1.1-.4-3,.4-3.4.9-.9-.1-.9-.2-1.4-.6v-.3c-.3,0-.6-.2-.9-.3v-.6c-.2,0-.4-.2-.6-.3v-.3c-.4,0-.8-.2-1.1-.3v-.3h-2.3v-.3h-.6v-.3h-.9v-.3c-.6,0-1.1.2-1.7.3v-.3h-.6v-.3h-4.5c-.2,0-.2.9-1.1.6,0-.2-.2-.4-.3-.6-.5-.3-2.4-1.1-3.1-.9v.3c-.5,0-.9.2-1.4.3-.3-.4-.4-.6-.9-.9v-.6c.9-.2,1.7-.4,2.6-.6v-.3c1-.3,1.2-.9,2-1.4,0-.6.2-1.1.3-1.7h.9v-.3c3.1-.1,2.8-2.6,5.4-3.1.2-.7.1-.5.6-.9v-.3h.6c.6-.7,1.1-1.3,1.7-2h.3v-.6h1.1c0-.2.2-.4.3-.6h.6c.2-.6.2-.7.6-1.1h.3c0-.3.2-.6.3-.9h.6c.3-.5.6-.9.9-1.4h.6c0-.2.2-.4.3-.6h1.1c.3-.4.6-.8.9-1.1h.6c.5-.6.9-1.1,1.4-1.7v-.6c.5-.4.9-.8,1.4-1.1v-.6h.3v-1.7h-.3v-.3c.3-.2.6-.4.9-.6,1-1.6.2-2.8-.3-4.3v-2h-.3c-.3-1.2-1.2-1.5-2.3-2h-.9c-.4-.5-.8-.9-1.1-1.4-.6,0-1.1-.2-1.7-.3v-.3h-1.1v-.3h-.3c-.8.5-1.9,0-2.8.3-.4.1-1.3,1.1-1.7,1.1-.2-.3-.4-.6-.6-.9-.4,0-.8-.2-1.1-.3v-.3c-1,0-2.1.2-3.1.3v-.3h-2v.3c-.3,0-.6.2-.9.3v.3c-.7.2-1.6-1.2-2.8-.9v.3h-.9c0,.2-.2.4-.3.6h-.6v.3c-.6.2-2-1-3.4-.6v.3c-1,0-2.1-.2-3.1-.3-.4,0,.1.3-.3.3v-.3h-.9v.3h-.9c0,.2-.2.4-.3.6-.9,0-1.9-.2-2.8-.3v.3h-.3c.6-1.3,1.8-2.1,2-3.7h.9v-.3c.4-.3.8-.6,1.1-.9v-.9h.3v-1.1c.6-.5,1.1-.9,1.7-1.4,0-.4.2-.8.3-1.1.7-.4,1.3-.8,2-1.1,0-.6.2-1.1.3-1.7.9-.2,1-.7,1.7-1.1.1-.7.3-1,.3-2,.7-.1,1.7-.7,2-1.1v-.9c.3,0,.6-.2.9-.3.4-.3.3-.9.6-1.4h.3v-1.1h.3c.8-.9,1.4-.4,1.7-2h.6c.3-1,.5-.6.6-2,1.6-.5.6-.5,1.1-1.4.7-.4,1.3-.8,2-1.1.2-.9.4-1.7.6-2.6,0-.4-.2.1-.3-.3v-1.1h-.3v-.6h-.3c-.3-.9.4-1.4.3-2h-.3c-.2-.9-.4-1.7-.6-2.6h-.3c-.2-.3-.4-.6-.6-.9-.6,0-1.1-.5-2-.3v.3c-.5,0-.9.2-1.4.3v-.3h-.6v-.3c-.8,0-1.5-.2-2.3-.3v.3h-.9c-.2.3-.4.6-.6.9h-.6v.3h-1.4v.3h-.6c0,.2-.2.4-.3.6-.6.2-1.1.4-1.7.6-.3.4-.6.8-.9,1.1h-.9v.3h-.6c-.2.3-.4.6-.6.9-.4,0-.8.2-1.1.3-.2.3-.4.6-.6.9-.3,0-.6.2-.9.3,0,.2-.2.4-.3.6-.9.2-1.7.4-2.6.6v.3h-.6v.3c-.5.4-.7.7-1.4.9v.6c0,.1-1.9.7-2.3,1.1-.2.4-.4.8-.6,1.1h-.3v-.3c-.6,0-1.7,0-2,.3v.3c-.9.2-1,.5-1.1,1.4-1.5.3-3.3,1.1-3.7,2.6h-1.1c-.3.4-.8.5-1.1.9,0,.2-.2.4-.3.6h-.6c-.2.3-.4.6-.6.9h-.9v.3c-.4.3-.8.6-1.1.9v.9h-1.1v.3h-.6c-.2.3-.4.6-.6.9h-.3v.6c-.2,0-.4.2-.6.3v.3c-.5,0-.9.2-1.4.3-.3.4-.6.8-.9,1.1-.3,0-.6.2-.9.3,0,.2-.2.4-.3.6h-.6c-1,.6-1.6,1.3-1.7,2.8-2.3,0-3.6.7-4,2.6-1.5,0-2.1.5-2.8,1.1,0,.2-.2.4-.3.6h-.6c-.6.5-1.1,1.5-1.1,2.6-2.4,0-4.4,1.2-4.8,3.1h-1.4c-1.2,1.5-3.8,2-4.3,4.3-1.3,0-1.6.2-2.3.9,0,.2-.2.4-.3.6-.4,0-.8.2-1.1.3-.2.3-.4.6-.6.9-.4,0-.8.2-1.1.3-.6.4-1.3,2-1.4,2.8-.9.2-1.8,1.1-2,2-1.4.2-3.9.7-4.8,1.4,0,.3-.2.6-.3.9-.6.5-1.1.9-1.7,1.4,0,.3-.2.6-.3.9h-1.1v.3c-.8.4-1.1.4-1.4,1.4-1,.2-1.7.7-2.6,1.1-.2.9-.5,1.1-.6,2.3h-2c-1,1.2-2.4,1.3-2.8,3.1h-.6c-.3.4-.6.8-.9,1.1-.3.2-1.2.2-1.4.6v.6c-1.2.3-3.1,1.7-3.4,2.8-1.4.4-.7.8-1.4,1.4h-.6v.3c-.3.2-.6.4-.9.6v.6h-.3v1.1c-.7.2-1.3.4-2,.6v.3c-.8.7,0,0-.6.9h-.3v.6c-.5.4-.9.8-1.4,1.1v1.1c-.4.2-.8.4-1.1.6v.6c-.3.2-.6.4-.9.6,0,.4-.2.8-.3,1.1-.3.2-.6.4-.9.6-.4.6-.6,1.8-.6,2.8-.6,0-1.1.2-1.7.3-.4.5-.8.9-1.1,1.4-.4,0-.8.2-1.1.3-.4.5-.8.9-1.1,1.4h-.3c0,.6-.2,1.1-.3,1.7,0,.1-3,1.6-3.4,1.7v.6c-1.2.3-.3.1-.9.9-.2,0-.4.2-.6.3v.9h-.3v.6c-.9.5-1.7.9-2.6,1.4v.6h-.3v2.3h-.3v.6h-.3v.9h-.3c-.6,2.1-2,1-3.4,2-.6.9-1.1,1.9-1.7,2.8v1.7h-.3c-.2.7-.4,1.3-.6,2-.6.1-.8.2-1.1.6-1.4.4-1.5,2.4-1.7,4-2.5.6-1.4,3-2.6,4.8-.7.5-1.3.9-2,1.4,0,.7-.2,1.3-.3,2h-.3v1.1h-.3c0,.4-.2.8-.3,1.1h-.3c-.4,1,.4,1.8.6,2.3v2.3h0ZM168.4,82.5c.8.2,1.1.5,1.4,1.1h.3v.3c-.6.3-.8-.3-1.1-.3v.3h-.9v.3h-.6v.3c-.3,0-.6.2-.9.3-.2-.3-.3-.3-.6-.6.9-.4,1.8-.8,2.3-1.7Z"/>
      <path class="st3" d="M16.4,122v-.2h.2c.3.5.6,1,.9,1.5.6.1,1.1.3,1.7.4,0,.1.1.3.2.4h.4c0,.2.1.4.2.6.1,0,.3.1.4.2v.2h.4v.2c.4.2,1.5,0,1.7.4v.2c.4.8-.2.5,0,1.3h.2v.6h.2v.2h-.2c0,.4-.1.9-.2,1.3h.2v.9c.1,0,.3.1.4.2v.4c.1,0,.3.1.4.2.2.4-.2.6-.2.6v1.3c-.1,0-.3.1-.4.2-.3.3-.7,1.2-.4,1.9h.2v.6h.2v1.1h-.2c0,1.5.1,3,.2,4.5h.2c.2.6,0,1.1.2,1.5.2.1.4.3.6.4.2.5-1.2,1.7-.6,3,.1,0,.3.1.4.2v.9h.2v.4h.2v.4c.1,0,.3.1.4.2,0,.3.1.6.2.9.4.2.7.4,1.1.6v.4h.2v.4h.2c.4.7.4,1.1,1.3,1.3v.2h1.7v.4c.5.3,1,.6,1.5.9,1.1,0,2.3-.2,2.8-.9v-.4c.1,0,.3-.1.4-.2v-.2h2.2c.6-.4,1.1-.7,1.7-1.1.1-.7.4-1,.4-1.7,1,0,2.4.5,3-.2.6-.2.5,0,.6-.6.4-.1.9-.3,1.3-.4.1-.2.3-.4.4-.6h.6v-.2h.4c.1-.2.3-.4.4-.6h.2c.2-.2.2-.9.4-1.1.6-.3,1.5.1,1.9-.2.4-.6.9-1.1,1.3-1.7v-.4h.2l.2-.4c.4,0,.9-.1,1.3-.2.1-.2.3-.4.4-.6.4,0,.7-.1,1.1-.2v-.2c.4-.3.7-.5,1.3-.6.1-.6.3-.5.4-1.1.3,0,.6.1.9.2v.2h2.6l.2.4c.6.1,1.3.3,1.9.4v.2h.4v.2h1.5v.2h.9v.2h.2v-.2h1.1v.2h.4v.2h.6v.2c.8-.1,1.6-.3,2.4-.4.1.2.3.4.4.6h.6v.2c.7.2,2.4-.3,2.6-.2,0,.1.1.3.2.4h.4v.2c1.1.1,2.2.3,3.2.4v-.2c.4,0,.9-.1,1.3-.2v-.2c.4,0,1.2.7,1.5.9h.9v.2h1.7v.2c.9,0,1.7.1,2.6.2v-.2h1.9v-.2c.3,0,.6-.1.9-.2v-.2h.4c0-.1.1-.3.2-.4.7-.3,1.5.2,1.9-.2.9-.3.4-.4,1.1-.9v-.6c.6-.2.6-.4,1.1-.6,0-.4.2-.4.2-.4v-2.2c.1,0,.3-.1.4-.2v-.6h.2c0-.5-.1-1-.2-1.5h-.2v-1.7h-.2v-.4c-.1,0-.3-.1-.4-.2-.1-.4-.3-.9-.4-1.3h-.2c-.2-.6.4-1.1,0-1.9h-.2v-.4c-.1,0-.3-.1-.4-.2v-.4c-.2-.1-.4-.3-.6-.4v-2.2h-.2v-.4c-.4-.3-.7-.6-1.1-.9l.2-.2c0-.6-.1-1.1-.2-1.7h-.2v-.4c-.1,0-.3-.1-.4-.2v-.9h-.2c0-.3-.1-.6-.2-.9h-.2v-.4c-.4-.2-.7-.4-1.1-.6v-1.5h-.2c-.4-1.1-.4-1.8-1.5-2.2,0-.5,0-.6-.2-.9h-.2c0-.4-.1-.9-.2-1.3,0-.3-.2,0-.2-.2h.2v-.4h.2c.1-.3.9-1.7.6-2.2h-.2c0-1.1.1-1,.6-1.5v-.2c.2,0,.4-.1.6-.2v-.4l.4-.4h.4v-.2c.2-.1.4-.3.6-.4.3-.4,0-1,.2-1.5h.2v-.4c.1,0,.3-.1.4-.2.1-.6.3-1.3.4-1.9.2,0,.4-.1.6-.2v-.2c.2-.1.4-.3.6-.4,0-.4.1-.7.2-1.1h.2v-.4h.2c0-.3.1-.6.2-.9h.2c0-.4.1-.9.2-1.3h.2c0-.4.1-.9.2-1.3.4-.3.7-.6,1.1-.9v-.6h.2v-1.1h-.2c0-.3-.1-.6-.2-.9-.1,0-.3-.1-.4-.2,0-.2.1-.4.2-.6h.2v-.4h.2v-.9h.2c.3-1.1-.4-1.6-.6-2.2v-1.1h-.2c-.3-1.1-1-1-1.9-1.5v-.2h-.4v-.2h-.6c0-.1-.1-.3-.2-.4h-.4v-.2h-.4v-.2h-.9v-.2c-.6,0-1.3.1-1.9.2v-.2h-1.5v.2c-.9-.1-1.7-.3-2.6-.4h-1.3c0,0,0,.3-.4.2v-.2h-1.3v.2h-.4v.2c-.6.1-.5-.4-.6-.4-.7-.3-1.5.3-1.9.2v-.2h-2.4v.2h-.4v.2c-.1,0-.6-.3-1.1-.2v.2h-.9v-.2h-1.3v.2h-1.7v.2h-.6v.2c-.4,0-1-.4-1.7-.2v.2h-.4v.2h-1.7v.2h-1.7v.2h-.6v.2c-.2,0-.4.1-.6.2-.3-.8-.6-1.6-.9-2.4-.4-.2-.9-.4-1.3-.6-.3-.5,0-1.3-.2-1.7-.2-.1-.4-.3-.6-.4v-.6c-.2-.1-.4-.3-.6-.4v-.6c-.1,0-.3-.1-.4-.2v-.4c-.2-.1-.4-.3-.6-.4v-.6c-.3-.2-.6-.4-.9-.6-.1-.4-.3-.9-.4-1.3-.2-.2-1.2-.8-1.3-.9,0-.5-.1-1-.2-1.5-.1,0-.3-.1-.4-.2v-.4c-.5-.4-1-.9-1.5-1.3v-.6h-.2v-.4h-.2v-.4h-.2c0-.1-.1-.3-.2-.4h-.4v-.2h-.4v-.2c-.7-.6,0-.1-.4-.9h-.2v-.4c-.3-.2-.6-.4-.9-.6,0-.2-.1-.4-.2-.6-.1,0-.3-.1-.4-.2,0-.4-.1-.7-.2-1.1-.2-.1-.4-.3-.6-.4-.1-.2-.3-.4-.4-.6h-.2v-.4c-.4-.3-.7-.6-1.1-.9v-.4c-.2-.1-.4-.3-.6-.4v-.2c-.5,0-1-.1-1.5-.2v-.2c-.8-.6-.6-1.1-1.9-1.3v-.2c-.5.1-1,.3-1.5.4,0,.1-.1.3-.2.4h-.2v-.2c-.6-.2-1.5-.4-1.9,0-.9.2-.7.6-1.1,1.3h-.2v.9c-.2.1-.4.3-.6.4v.4c-.4.2-.7.4-1.1.6-.1.5-.3,1-.4,1.5-.2.1-.4.3-.6.4v1.9h-.2v.4c-.1,0-.3.1-.4.2v2.2h-.2v.6h-.2v1.3h-.2v.6h-.2v.4h-.2v1.1h-.2v3.7c0,0,.3,0,.2.4h-.2v.9h-.2c0,.7-.1,1.4-.2,2.2h-.2c0,.4.1.7.2,1.1h-.2v.6h-.2c-.4,1.1.3,2.7.9,3-.1.2-.3.4-.4.6h-.2c-.3.5,0,1.1-.2,1.7h-.2c-.3.9.3,1.7,0,2.2,0,.8-.1,1.5-1.1,1.3,0,0,0-.3-.4-.2v.2c-.3,0-.6.1-.9.2v.2h-.9c0,.1-.1.3-.2.4-.7,0-1.4.1-2.2.2v.2h-.6c-.2.3-.4.6-.6.9h-.9v.2h-.6v.2c-.4.1-.6-.2-.6-.2-.6,0-1.1.1-1.7.2v.2h-.4v.2h-.9v.2h-.4v.2h-.9v.2c-.4,0-.7.1-1.1.2v.2h-.4v.2c-.5,0-1,.1-1.5.2v.2c-.4.3-.7.6-1.1.9v.6c-.6,0-1.3.1-1.9.2v-.2h-1.7c-.4.4-.9.7-1.3,1.1v.6c-.7,0-1.6.2-1.9.6-1.4.4-.6,1.2-1.3,2.2-.2,0-.4.1-.6.2,0,.2-.1.4-.2.6h-.2c-.2.3-.2.4-.4.6,0,.9,0,1.6.4,2.2.2.1.4.3.6.4.3.7-.1,1.8.4,2.4.2.8.4.7,1.1,1.1v.2h.9v.2c.3.2.6,1.1.6,1.5.6.2.7.3,1.1.6v.2c.4,0,.7.1,1.1.2,0,.2.1.4.2.6.3.4.8.6,1.5.6v.4c.5.1,2.6.8,2.8,1.1v.4h.2v.4c.1,0,.3.1.4.2v.2c.3,0,.6.1.9.2.2.3.4.6.6.9h1.3c.4.4.7.9,1.1,1.3h.9c.3.1,0,.1.2.2h0Z"/>
      <path class="st2" d="M45.9,82c0,0-.2,0-.2,0,0-.3-.1-.7-.2-1,0,0-.2,0-.2,0,0-.1,0-.3,0-.4,0,0-.2,0-.2,0,0-.2,0-.4-.1-.6-.2,0-.3,0-.5-.1,0-.1,0-.3,0-.4-.1-.1-.3-.1-.5-.4-1.1.2-1.3.4-2.1.7,0,.1,0,.3,0,.4-1,.2-.7,0-1.1.6,0,0-.2,0-.2,0,0,.2,0,.4.1.6-.3.3-.6.5-.8.8,0,.3,0,.6.1.8-.1,0-.3.2-.4.3,0,.3,0,.6.1.8-.1,0-.3.2-.4.3-.2.6.4,1.2.5,1.4-.1,0-.3.2-.4.3.2.6.4,1.2.6,1.9,0,.3-.3.4,0,.9,0,0,.3,0,.3.4,0,0-.2,0-.2,0,0,.3,0,.6.1.8,0,0,.2,0,.2,0,0,.3,0,.6.1.8,0,0,.2,0,.2,0,.6,1.2.2,2.7.9,3.5.2,0,.3,0,.5.1,0,.1,0,.3,0,.4,0,0,.2,0,.2,0,.1.2.2.4.3.6,0,0,.2,0,.2,0,0,.2,0,.4-.1.7,0,0-.2,0-.2,0,0,.7,0,1.4.1,2.1,0,0,.2,0,.2,0,0,.3,0,.6.1.8,0,0,.2,0,.2,0,0,.2,0,.4.1.6.5.3,1.1.6,1.6.9,0,0,0,.1,0,.2.2,0,.5,0,.7,0,.2.2.4.4.6.6,0,0,.2,0,.2,0,0,0,.2,0,.2,0,0,0,0,.1,0,.2.7-.1,1.2-.2,1.6-.4,0-.2.1-.3.2-.5.2,0,.5,0,.7,0,0,0,0-.1,0-.2.2,0,.3,0,.5,0,0,0,0-.1,0-.2.2-.2.4-.3.6-.5-.1-.7-.2-1.4-.6-1.9-.2,0-.3,0-.5-.1,0-.7,0-1.4.1-2.2,0,0,.2,0,.2,0,.1-.8-.8-1-.3-1.7-.2-1.1-.4-1.5-1.3-1.8,0-.4-.1-.8-.2-1.3,0,0,.2,0,.2,0,0-.1,0-.3,0-.4,0,0,.2,0,.2,0,0-.6-.2-1.1-.3-1.7,0,0-.2,0-.2,0-.3-.7-.6-1.5-.9-2.2,0,0-.2,0-.2,0,0-.1.3-.8,0-1.3,0,0-.2,0-.2,0,0-.1,0-.3,0-.4,0,0-.2,0-.2,0,0-.2,0-.4.1-.7,0,0,.2,0,.2,0-.1-.6-.2-1.3-.3-1.9h0Z"/>
      <path class="st2" d="M58.8,104.1c0,0,0,.1,0,.2-.3.1-.7.3-1,.4,0,0,0,.1,0,.2-.1,0-.3.1-.4.2,0,0,0,.1,0,.2-.2,0-.4.2-.6.2,0,.2,0,.4,0,.5-.1,0-.3.1-.4.2,0,.1,0,.4-.2.6.4,1,.7,1.1,1.1,1.8.1,0,.3-.1.4-.2.4.9.2.7.8,1,0,0,0,.1,0,.2.2,0,.4-.2.6-.2.3.2.6.4.9.6.3-.1.5-.2.8-.3.1.1.2.2.4.4.3-.1.5-.2.8-.3.1.1.2.2.4.4.6,0,1.1-.7,1.3-.8.1.1.2.2.4.4.6-.3,1.1-.6,1.7-1,.3,0,.4.2.9-.1,0,0,0-.3.3-.4,0,0,0,.1,0,.2.3-.1.5-.2.8-.3,0,0,0-.1,0-.2.3-.1.5-.2.8-.3,0,0,0-.1,0-.2,1-.9,2.6-.8,3.2-1.6,0-.2,0-.4,0-.5l.4-.2c0,0,0-.1,0-.2.2-.2.3-.3.5-.5,0,0,0-.1,0-.2.2,0,.4,0,.7,0,0,0,0,.1,0,.2.7-.2,1.4-.4,2-.6,0,0,0-.1,0-.2.3-.1.5-.2.8-.3,0,0,0-.1,0-.2.2,0,.4-.2.6-.2.2-.6.3-1.2.5-1.7,0,0,.1,0,.2,0,0-.2-.2-.4-.3-.7.1-.2.3-.5.4-.7,0,0,0-.1,0-.2,0,0,0-.1,0-.2h.2c-.2-.7-.4-1.2-.8-1.6-.2,0-.3,0-.5,0,0-.2-.2-.4-.3-.7h-.2c0,0-.1-.2-.2-.4,0,0-.1,0-.2,0-.2-.2-.4-.3-.6-.5-.7.3-1.3.5-1.7,1,0,.2,0,.4,0,.5-.7.1-1.4.2-2.1.4,0,0,0-.1,0-.2-.9,0-.8,1-1.6.7-1.1.4-1.4.7-1.4,1.6-.4.2-.8.3-1.2.5,0,0,0-.1,0-.2l-.4.2c0,0,0-.1,0-.2-.5.2-1,.4-1.6.7,0,0,0,.1,0,.2-.7.4-1.3.9-2,1.3,0,0,0,.1,0,.2-.1,0-.9,0-1.3.3,0,0,0,.1,0,.2-.1,0-.3.1-.4.2,0,0,0,.1,0,.2-.2,0-.4,0-.7,0,0,0,0-.1,0-.2-.6.2-1.2.5-1.8.7h0Z"/>
      <path class="st2" d="M18.5,103.6c0,0,0,.2,0,.2-.3-.1-.7-.2-1-.3,0,0,0,.2,0,.2h-.4s0,0,0,.1c-.2,0-.4-.1-.6-.2-.1.1-.2.3-.4.4-.1,0-.3,0-.4-.1-.2,0-.3.3-.6.3-.3,1.1-.2,1.3-.3,2.2.1,0,.3,0,.4.1-.3,1-.3.7,0,1.3,0,0,0,.2,0,.2.2,0,.4.1.6.2.1.4.2.7.3,1.1.3,0,.5.2.8.2,0,.2,0,.3,0,.5.3,0,.5.2.8.2,0,.2,0,.3,0,.5.4.4,1.2.2,1.5.2,0,.2,0,.3,0,.5.6.1,1.3.2,1.9.3.3.1.2.4.7.5,0,0,.1-.3.5-.1,0,0,0,.2,0,.2.3,0,.5.2.8.2,0,0,0-.2,0-.2l.8.2c0,0,0-.2,0-.2,1.4,0,2.5,1,3.5.8.1-.1.2-.3.4-.4h.4s0,0,0-.1c.2,0,.5,0,.7,0,0,0,0-.2,0-.2.2.1.4.3.5.4,0,0,0,.2,0,.2.7.3,1.3.6,2,.8,0,0,0-.2,0-.2.3,0,.5.2.8.2,0,0,0-.2,0-.2.2,0,.4.1.6.2.5-.3,1-.7,1.5-1,0,0,.1,0,.2,0l.2-.7c.3,0,.5-.2.8-.3,0,0,0-.2,0-.2,0,0,0-.2,0-.2,0,0,.1,0,.2,0,.2-.6.4-1.2.3-1.6-.1-.1-.2-.2-.3-.3l.2-.7c0,0-.1,0-.2,0,0-.2.1-.3.2-.5,0,0-.1,0-.2,0,0-.3-.1-.5-.2-.8-.7-.2-1.3-.5-1.9-.3-.1.1-.2.3-.4.4-.6-.4-1.3-.7-1.9-1.1,0,0,0-.2,0-.2-.7-.5-1.2.2-1.6-.5-1.1-.4-1.5-.3-2.1.3-.4-.1-.8-.2-1.2-.4,0,0,0-.2,0-.2h-.4c0-.2,0-.3,0-.3-.5-.2-1.1-.3-1.6-.5,0,0,0,.2,0,.2-.8,0-1.6-.2-2.4-.2,0,0,0,.2,0,.2-.1,0-.6-.6-1.1-.6,0,0,0,.2,0,.2-.1,0-.3,0-.4-.1,0,0,0,.2,0,.2-.2-.1-.4-.3-.5-.4,0,0,0-.2,0-.2-.6-.2-1.2-.4-1.8-.6h0Z"/>
      <path class="st2" d="M62.8,119.9c0,0,0,.1-.1.2-.3-.2-.6-.3-.9-.5,0,0,0,.1-.1.2-.1,0-.3-.1-.4-.2,0,0,0,.1-.1.2-.2,0-.4-.2-.6-.3-.1.1-.3.2-.4.3-.1,0-.3-.1-.4-.2-.2,0-.3.2-.6.2-.5,1-.4,1.3-.7,2.1.1,0,.3.1.4.2-.4.9-.4.6-.2,1.2,0,0,0,.1-.1.2.2,0,.4.2.6.3,0,.4,0,.7.1,1.1.3.1.5.3.8.4,0,.2,0,.3,0,.5.3.1.5.3.8.4,0,.2,0,.3,0,.5.4.5,1.2.4,1.4.5,0,.2,0,.3,0,.5.6.2,1.2.4,1.8.7.3.2.1.5.6.6,0,0,.2-.3.5,0,0,0,0,.1-.1.2.3.1.5.3.8.4,0,0,0-.1.1-.2.3.1.5.3.8.4,0,0,0-.1.1-.2,1.3.2,2.3,1.4,3.3,1.4.1-.1.3-.2.4-.3.1,0,.3.1.4.2,0,0,0-.1.1-.2.2,0,.5,0,.7,0,0,0,0-.1.1-.2.2.2.3.3.5.5,0,0,0,.1-.1.2.6.4,1.2.8,1.8,1.2,0,0,0-.1.1-.2.3.1.5.3.8.4,0,0,0-.1.1-.2.2,0,.4.2.6.3.5-.3,1.1-.5,1.6-.8h.2c.1-.1.2-.3.3-.5.3,0,.5,0,.8-.1,0,0,0-.1.1-.2,0,0,0-.1.1-.2h.2c.3-.5.6-1,.6-1.5,0-.1-.2-.3-.3-.4.1-.2.2-.4.3-.6h-.2c0-.2.2-.4.2-.5,0,0-.1,0-.2,0,0-.3,0-.5,0-.8-.7-.3-1.2-.7-1.8-.7-.1.1-.3.2-.4.3-.6-.5-1.1-.9-1.7-1.4,0,0,0-.1.1-.2-.6-.6-1.3,0-1.5-.8-1-.5-1.4-.6-2.2,0-.4-.2-.8-.4-1.1-.6,0,0,0-.1.1-.2-.1,0-.3-.1-.4-.2,0,0,0-.1.1-.2-.5-.3-1-.5-1.5-.8,0,0,0,.1-.1.2-.8-.2-1.5-.4-2.3-.6,0,0,0,.1-.1.2-.1,0-.5-.7-1-.8,0,0,0,.1-.1.2-.1,0-.3-.1-.4-.2,0,0,0,.1-.1.2-.2-.2-.3-.3-.5-.5,0,0,0-.1.1-.2-.6-.3-1.1-.6-1.7-.9h0Z"/>
      <path class="st2" d="M31.9,138.9c0,0,.1,0,.2.1-.2.3-.4.6-.6.9,0,0,.1,0,.2.1,0,.1-.2.2-.2.4,0,0,.1,0,.2.1-.1.2-.2.4-.4.5,0,.2.2.3.3.5,0,.1-.2.2-.2.4,0,.2.2.3.2.6.9.6,1.2.5,2,.9,0-.1.2-.2.2-.4.8.5.5.5,1.2.3,0,0,.1,0,.2.1.1-.2.2-.4.4-.5.4,0,.8,0,1.1,0,.2-.2.3-.5.5-.7.2,0,.3,0,.5.1.2-.2.3-.5.5-.7.2,0,.3,0,.5.1.5-.3.5-1.1.6-1.4.2,0,.3,0,.5.1.3-.6.6-1.2.9-1.7.2-.2.5,0,.7-.6,0,0-.2-.2,0-.5,0,0,.1,0,.2.1.2-.2.3-.5.5-.7,0,0-.1,0-.2-.1.2-.2.3-.5.5-.7,0,0-.1,0-.2-.1.4-1.3,1.7-2.1,1.8-3.1,0-.2-.2-.3-.3-.5,0-.1.2-.2.2-.4,0,0-.1,0-.2-.1,0-.2.1-.4.2-.7,0,0-.1,0-.2-.1.2-.1.4-.3.5-.4,0,0,.1,0,.2.1.5-.5.9-1.1,1.4-1.6,0,0-.1,0-.2-.1.2-.2.3-.5.5-.7,0,0-.1,0-.2-.1.1-.2.2-.4.4-.5-.2-.6-.4-1.1-.6-1.7,0,0,0-.1.1-.2l-.6-.4c0-.3,0-.5,0-.8,0,0-.1,0-.2-.1,0,0-.1,0-.2-.1v-.2c-.4-.4-.9-.7-1.4-.8-.1,0-.3.1-.4.2-.2-.1-.4-.3-.6-.4,0,0,0,.1-.1.2-.1,0-.3-.2-.4-.3,0,0,0,.1-.1.2-.3,0-.5,0-.8,0-.4.6-.8,1.1-.9,1.7,0,.2.2.3.3.5-.5.5-1,1-1.6,1.5,0,0-.1,0-.2-.1-.7.5-.1,1.2-.9,1.4-.7,1-.7,1.4-.3,2.1-.2.4-.5.7-.7,1.1,0,0-.1,0-.2-.1,0,.1-.2.2-.2.4,0,0-.1,0-.2-.1-.3.5-.6.9-.9,1.4,0,0,.1,0,.2.1-.3.7-.6,1.5-.9,2.2,0,0,.1,0,.2.1,0,.1-.8.4-.9.9,0,0,.1,0,.2.1,0,.1-.2.2-.2.4,0,0,.1,0,.2.1-.2.1-.4.3-.5.4,0,0-.1,0-.2-.1-.4.5-.7,1.1-1.1,1.6Z"/>
      <path class="st0" d="M139.9,44.1h-.3c-.3-.4-.6-.8-.8-1.1h-1.1c-.4,0,.1-.3-.3-.3v.3h-1.1v.3s-1.6-1-1.7-1.1c-1.9.2-1.8.7-2.8,1.7,0,.2-.2.4-.3.6h-1.1v.3c-.8.4-1.2.4-1.4,1.4-1,.3-.7.6-1.7.8-.2.8-.5.7-.6,1.7h-1.4v.3h-.6v.3c-.5.4-.7.6-1.4.8v.6c-.9.2-1.2.5-1.4,1.4h-.8c0,.2-.2.4-.3.6h-.6v.3h-.6c0,.2-.2.4-.3.6h-.3c0,.3-.2.6-.3.8h-.8c-.3.4-.6.8-.8,1.1h-.6c0,.2-.2.4-.3.6h-.6c0,.2-.2.4-.3.6h-.3c0,.4-.2.8-.3,1.1-1-.7-2,1-2.8,1.4v.8c-2.2.2-3.2,1.7-4.8,2.5v.8c-1.5.3-3.4,1.4-3.7,2.8-.9.2-1.1.5-1.7.8-.3.6-.5,1.1-.6,2-1.3.3-1.4,1.3-2,2.3v.6c-.4.3-.8.6-1.1.8-.3,1.1-.6,2.3-.8,3.4h.3v.8c.2,0,.4.2.6.3v.3c.5,0,.9.2,1.4.3,0,.3.2.6.3.8h.3c.2.3.4.6.6.8h.3c.3.2,0,0,.3.3,2.2,0,5-2.1,5.4-4,1,0,1.5-.2,2.3-.3v-.6h.6c.2-.3.4-.6.6-.8h.6c.2-.3.4-.6.6-.8h.3c0-.3.2-.6.3-.8.5,0,.9-.2,1.4-.3.2-.3.4-.6.6-.8,1.4-.9,2.7-1,3.1-2.8.6,0,1.1-.2,1.7-.3.3-.3.9-.6,1.1-.8.2-.3.2-1.2.6-1.4h1.4v-.3c.4-.3.8-.6,1.1-.8,0-.5.2-.9.3-1.4,1.7,0,3.2-.7,4-1.7.3-.3.1,0,.3-.6.8-.2.6-.4,1.4-.6v-.6c.6-.2.2,0,.6-.3.9-.2,1.2-.7,1.4-1.7,1-.1,1.1-.4,2-.6,0-.3.2-.6.3-.8h.3v-.6h.3c0-.6.2-1.1.3-1.7h.3v-.3c.7,0,1.3-.2,2-.3,0-.2.2-.4.3-.6h.6c.5-.3,1.1-.8,1.7-1.1.2-1,.4-2.1.6-3.1.2,0,.4-.2.6-.3.2-.7.4-1.3.6-2h-.3v-2.5h0Z"/>
      <path class="st0" d="M155.8,77.8c0,0-.2,0-.3-.1,0-.5-.2-.9-.3-1.4-.3-.2-.7-.3-1-.5-.3-.2.2-.2-.1-.4,0,0,0,.2-.1.3-.3-.2-.7-.3-1-.5,0,0,0,.2-.1.3,0,0-1-1.6-1.1-1.7-1.8-.6-2,0-3.3.4-.2.1-.3.3-.5.4-.3-.2-.7-.3-1-.5,0,0,0,.2-.1.3-.9,0-1.2-.1-1.9.7-1-.2-.9.2-1.9,0-.5.7-.7.4-1.2,1.3-.4-.2-.9-.4-1.3-.6,0,0,0,.2-.1.3-.2,0-.3-.2-.5-.2,0,0,0,.2-.1.3-.6.1-.9.3-1.6.2,0,.2-.2.3-.2.5-.9-.2-1.3,0-1.9.7-.3-.1-.5-.2-.8-.4-.2.1-.3.3-.5.4-.2,0-.3-.2-.5-.2,0,0,0,.2-.1.3-.2,0-.3-.2-.5-.2-.2.1-.3.3-.5.4,0,0-.2,0-.3-.1-.2.2-.4.4-.6.7-.3-.1-.5-.2-.8-.4-.4.2-.8.4-1.2.7-.2,0-.3-.2-.5-.2-.2.1-.3.3-.5.4-.2,0-.3-.2-.5-.2-.2.1-.3.3-.5.4,0,0-.2,0-.3-.1-.2.3-.5.6-.7.9-.6-1.1-2.3,0-3.2.1-.1.3-.2.5-.4.8-2.1-.7-3.6.2-5.4.3-.1.3-.2.5-.4.8-1.4-.3-3.6-.2-4.5,1-.9-.2-1.2,0-1.9,0-.5.5-.9.8-1.3,1.6-1.3-.2-1.8.5-2.7,1.2,0,.2-.2.3-.2.5-.5,0-.9.2-1.4.3-.7.9-1.5,1.8-2.2,2.7,0,0,.2,0,.3.1-.1.3-.2.5-.4.8.1.2.3.3.4.5,0,0,0,.2-.1.3.4.3.8.6,1.2.8,0,.3,0,.6,0,.9,0,0,.2,0,.3.1,0,.3.1.7.2,1,0,0,.2,0,.3.1.2.3,0,0,.1.4,2,.8,5.4.2,6.5-1.4.9.4,1.5.5,2.2.7,0-.2.2-.3.2-.5.2,0,.3.2.5.2.3-.2.6-.4.9-.5.2,0,.3.2.5.2.3-.2.6-.4.9-.5,0,0,.2,0,.3.1l.6-.7c.5.1.9.2,1.4.3.3-.2.6-.4.9-.5,1.6-.2,2.9.2,4-1.3.6.2,1.1.3,1.7.5.4-.2,1.1-.1,1.4-.3.3-.2.7-1,1.1-1,.4.2.9.4,1.3.6,0,0,0-.2.1-.3.5,0,.9-.2,1.4-.3.3-.4.6-.8.8-1.2,1.5.6,3.2.7,4.3.1.4-.2.1,0,.5-.4.8.1.7,0,1.5,0,0-.2.2-.3.2-.5.6,0,.2.1.6,0,1,.2,1.4-.1,2-1,1,.3,1.2.1,2,.3l.6-.7c0,0,.2,0,.3.1,0-.2.2-.3.2-.5,0,0,.2,0,.3.1.3-.5.6-.9,1-1.4,0,0,.2,0,.3.1,0,0,0-.2.1-.3.6.2,1.3.4,1.9.6.2-.1.3-.3.5-.4.2,0,.3.2.5.2.6,0,1.4-.3,2-.3.6-.9,1.2-1.7,1.8-2.6.2,0,.4,0,.6,0,.4-.5.9-1,1.3-1.6,0,0-.2,0-.3-.1.4-.8.7-1.5,1.1-2.3h0Z"/>
    </g>
  </g>
</svg>