<?xml version="1.0" encoding="UTF-8"?>
<svg id="_レイヤー_2" data-name="レイヤー 2" xmlns="http://www.w3.org/2000/svg" width="60.0900057" height="49.4266" viewBox="0 0 60.0900057 49.4266">
  <defs>
    <style>
      .cls-1 {
        fill: #f9c663;
        fill-rule: evenodd;
      }
    </style>
  </defs>
  <g id="design">
    <path class="cls-1" d="M60.0617373,12.827h-.1712v-.5131h-.1712c-.1141-1.1973-.2283-2.3944-.3424-3.5916h-.1705v-.342h-.1712c-.1746-.4715.0376-.8295-.1712-1.1973-.1134-.0569-.2275-.114-.3417-.171v-1.5392c-.1141-.0571-.2282-.114-.3423-.171-.0571-.2281-.1142-.456-.1712-.6841-.1705-.1141-.3417-.2281-.5129-.342v-.5131h-.1705v-.342h-.1712v-.3422h-.1712v-.1711c-.1712-.0569-.3424-.1139-.5129-.171v-.171h-.5136c-.1134-.171-.2275-.342-.3417-.5131-.382-.2051-1.7112-.116-2.3946,0v.1711h-.1705v-.1711h-.3424c-.057-.1139-.1141-.2279-.1712-.342h-.3417c-.057-.114-.1141-.2281-.1712-.342h-.5128c-.1142-.1711-.2283-.3421-.3424-.5131h-.3424v-.171c-.4558.057-.9117.1139-1.3682.171v-.171c-.279-.1075-.9172-.2902-1.3681-.171v.171h-.8546c-.0571-.114-.1141-.2281-.1712-.3421h-.3424v-.171c-.3417.0569-.6841.114-1.0258.171,0,0-.1363-.2394-.5135-.171-.0279.0051-.0613.2399-.3417.171v-.171h-.3417v-.171c-.3424.0569-.6848.114-1.0265.171v.171c-.2853-.057-.5699253-.1141-.8553252-.171v-.171h-1.0257v.171c-.2401.0296.0654252-.1228-.1712-.171-1.1406.0569-2.2804999.114-3.4210999.171-.0564.114-.1134.2281-.1705.3421-.2985.104-1.1851-.3022-1.3682-.3421-.6242-.1357-.8455.439-1.1975749.5131-.3417251-.114-.684125-.2281-1.025825-.3421v-.171c-.8657-.3098-1.5908.411-2.052175.3421v-.1711h-1.026525s-.0689.2448-.5129.1711c-.0222-.0037-.0668-.2367-.3424-.1711v.1711h-.3417v.171c-.2881.063-.3013-.1625-.3423-.171h-1.0258v.171c-.4565-.0571-.9123-.114-1.3682-.171v.171h-.3424c-.057.1139-.1141.2281-.1711.342-.2276-.057-.4559-.1139-.6841-.171v.171h-.6841v-.171h-.3417v-.171c-.5435-.1804-.81.222-1.1977.171v-.171c-.3604-.0423-.3416.171-.3416.171h-1.8811v.171c-.5525.1482-.8629-.2371-1.1976-.171v.171h-.5129v.171c-.0598753.0077-.7718-.2912-1.197-.171v.171h-1.1977v.1711h-.3416v.171c-.3278.0972-.5135754-.171-.5135754-.171-.5359246-.0613-1.2374246.4352-1.5387246.684-.057.1142-.1141.2281-.1712.3421-.2248.0906-.0682-.0764-.1712-.171-.5128755.057-1.0257.1141-1.5393.171v-.171h-1.197c-.2282.2851-.4558.5701-.6841.8551,0,0-.9401-.2699-1.3681,0-.1712.228-.3423756.4561-.5129.6842h-1.1977v.171h-.3417v.171h-.3423v.1711h-.3417c-.5498.3049-1.0355.8286-1.197,1.5391-.6938-.1452-1.1002-.354-2.0528999-.342-.1851.23-.4691.3149-.6841.5131-.0570757.1141-.1134.228-.1705.342h-.3424v.171c-.1711758.1141-.3424.2281-.5129.3421-.057.342-.1141.6842-.1712,1.0262-1.0417.2788-.8120758,1.1504-1.1969,2.0523h-.1711758c-.0571242.285-.1142242.5701-.1712242.8551h.1712242c.057.2851.1140758.5701.1711758.8551h.1705v.1712c-.1705.1139-.3416758.2279-.5129.342v.3421h-.1712c-.3041.7943.4113,1.5736.3424242,1.8812h-.1712242c-.0571.2281-.1142.4561-.1712.684h-.1705c.0571.5131.1141,1.0263.1705,1.5394h-.1705v1.8812h.1705v.3421h.1712v1.1971h.1712242v.171c-.1142242.0571-.2283242.1141-.3424242.1712v.342h-.1705v.3421H.0312131v.8551h.1712c.0522.3509-.1712.342-.1712.342-.1406.6143.2436,1.1474.1712,1.5392H.0312131c-.1684.8019.5491242,1.3595.5129,1.5393h-.1712v.5131h-.1705v1.3682H.0312131v.171h.1712v.513h.1705c.2199.7603-.3598,1.0211,0,1.7104.1712.114.3424242.2279.5136.3421.0779.2416-.5031758,1.1345-.5136,1.3681v.171h.1712v.6841h.1712242c-.0571242.342-.1142242.6841-.1712242,1.0263h.1712242v.5131c.1140758.0568.2274758.1139.3416758.171-.0362.2291-.3751.9141-.1705,1.3681.1134.0571.2275.114.3417.1711v.342h.1712v.5131h.1711v.513h.1712v.3421c.3417.2851.6834.5701,1.0258.8552v1.0261h.1712c.0571.2281.1141.456.1712.6841.627.2281,1.254.456,1.881.6841.0571.171.1142.342.1712.5131.197.2324.5477.2016.8553.342v.171h1.881v.171h.5129244v.1712h.5128756v.171c.6625.1876,1.5442-.6115,1.8818-.5132v.171c.1704.0571.3416.1142.5128.1712v.171c1.0258.0569,2.0522999.114,3.0786999.1711v-.1711h.1712v.1711c.9117-.1142,1.824-.2281,2.7362999-.3421v.171h.3417v.1711h1.5394c.8413.242,2.8907999.4095,3.9339999.171v-.171c.4405-.0674,1.2053.3815,1.881.171v-.171h.5129v-.1711l.1712.1711h.1712v-.1711h.8546v-.171c.2282-.057.4565-.1141.6847-.1712v-.171h.1705v.171h.6841249c.1850751.2302.4703751.3142.6840751.5133.057.1139.1141.2279.1712.342.1712.0569.3417249.114.5129.171.057.285.1141.5702.1712.8551.199.3381.8872.5947,1.3681.6841v.8551c.2164.175.2004.3988.3424.5131.1712.057.3417.1141.5129.171v.3422l.3417.342h.3424l.3423.3421v.342h.1705c.1142.171.228325.3421.3424.5131.2847.057.57.1139.8553.171.1705.342.3417.6841.5129,1.0261.5052.3664,1.3716-.083,2.0521999.171v.171h.3424c.0571251.1142.1134.2281.1705.3421h1.3682v-.171h.3424252c.1140748-.1711.2274748-.3421.3415748-.5131h.1712c.0571-.285.1142252-.5701.1712252-.8551.0236748-.0433.252-.1651.3423748-.342h.3417c.0571-.2281.1141-.4562.1712-.6841.6194-.1387.7474-.4268,1.197-.6841.057-.6842.1141-1.3683.1712-2.0524h-.1712c-.0571-.2281-.1142-.456-.1712-.6841.1712-.057.3424-.1139.5129252-.171.1898748-.9497.5802747-2.3687.1711748-3.4206.5135-.1139,1.0264252-.228,1.5393252-.342.3695.0223.8337.368,1.3682.171v-.171h.3423c.1142-.171.2283-.342.3417-.5131.1712.0571.3424.114.5129.1711v.171h.8553v-.171h1.7105v-.1711h.6841v-.171h1.5394v-.171h.3417v-.171h1.1976c.0898-.0388.0167-.2269.5129-.3421v-.342c.5825-.0311.865-.0811,1.197-.342.057-.1142.1141-.2281.1712-.3422h.684v-.1711c.4948-.1952.5178.0388.8553-.342.3027-.2916.3521-.7559.3417-1.3682.586-.1572.8741-.5854,1.3682-.8551.0619-.3392.1712-.342.1712-.342v-1.0263h.1711v-.342h.1712c-.057-.3421-.1141-.6841-.1712-1.0262h.1712v-.342h.1712v-1.0261h.1705c.0571-.2852.1142-.5701.1712-.8551h-.1712v-.171c.1817-.3518.5811-.5773.5129-1.1973h-.1705v-.1711h.1705v-.342h.1712v-1.1971h.1712v-.1711h-.1712c-.0571-.342-.1141-.684-.1712-1.0261h.1712v-.513h.1712v-.8553h.1712c.1475-.5604-.2658-1.0355-.3424-1.3682.0571-.7411.1141-1.4822.1712-2.2234h-.1712c-.0571-.2279-.1141-.456-.1712-.6841.1141-.0569.2283-.1139.3424-.171.0571-.171.1141-.342.1712-.513h.1712v-2.0523h-.1712c-.0571-.171-.1141-.342-.1712-.513h.1712c-.0571-.3991-.1141-.7982-.1712-1.1974h.1712v-.342h.1712v-1.0261h-.1712c-.023-.197.2937-.4426.1712-.8551Z"/>
  </g>
</svg>