<?xml version="1.0" encoding="UTF-8"?>
<svg id="_レイヤー_2" data-name="レイヤー 2" xmlns="http://www.w3.org/2000/svg" width="92.3366236" height="87.9162239" viewBox="0 0 92.3366236 87.9162239">
  <defs>
    <style>
      .cls-1 {
        fill: #3871af;
      }

      .cls-1, .cls-2 {
        fill-rule: evenodd;
      }

      .cls-2 {
        fill: #b9d3e8;
      }
    </style>
  </defs>
  <g id="design">
    <g>
      <path class="cls-2" d="M92.2277236,28.8831239v-.5189h.1089v-.1039h-.1089c-.0108-.0584-.0208-.1166-.0308-.1751-.0263-.2501-.0525-.501-.0787-.7512v-.0074h.108v-.4153h-.108v-1.3496h-.1096v-.2078c-.0363-.0172-.0733-.0347-.1104-.0521v-.1549h-.1088v-.1043c-.0031-.0014-.0061-.003-.0092-.0045-.0162-.1786-.0317-.3574-.0479-.5361.071-.1183.1497-.238.1659-.2897.122-.3812-.1535-.6366-.2176-.8304v-.7266h-.1103v-.3113h-.1088v-.3115c-.0726-.0346-.1459-.0692-.2192-.1038v-.2075c-.0363-.026-.0733-.0519-.1096-.078v-.0255h-.0362c-.0247-.0178-.0494-.0352-.0741-.053v-.2584h-.1088v-.4154h.0007v-1.0381c-.0478-.1184-.5463-.5189-.5463-.5189-.0648-.1704.1057-.1921.1088-.2077-.0363-.3113-.0733-.6228-.1088-.9341-.1837-.1238-.3658-.2473-.5479-.3711v-.0439c-.0718-.0338-.1428-.0679-.2145-.1017-.0016-.0007-.0031-.0016-.0039-.0023v-1.3494h-.1088v-.2075c-.0741-.0346-.1466-.0692-.2199-.1038-.0363-.1731-.0733-.346-.1088-.5189-.1822-.1384-.365-.277-.5472-.4154v-.3113c-.0733-.0345-.1458-.0692-.2191-.1038v-.2076h-.1088c-.1497-.1557-.0571-.1346-.328-.2076v-.4152c-.2786-.2162-.3557-.5234-.5471-.8303h-.1096v-.2078h-.1096c-.037-.0692-.0733-.1382-.1095-.2074h-.2184v-.1039h-.22c-.0362-.1037-.0725-.2076-.1088-.3115-.1088-.0691-.2191-.1383-.3279-.2074-.0363-.173-.0726-.3459-.1096-.519h-.1096c-.1451-.1729-.2917-.346-.4375-.5191h-.4376v-.1037h-.1096v.1037h-.1288c-.0286-.3032-.1173-.4838-.2694-.6031-.0131-.1104-.0254-.2207-.0385-.3311h-.1104c-.0363-.1035-.0725-.2074-.1088-.3113-.25-.0659-.2639-.0907-.4383-.2076v-.1039c-.2578-.0544-.517-.109-.7763-.1635-.0865-.0899-.1598-.1871-.2902-.2365-.1204-.3645-.2986-.5559-.6829-.7416v-.1039c-.1343-.0534-.2601-.0361-.3735-.0275-.1119-.1806-.2215-.3407-.2848-.3875h-.1296c-.0502-.0395-.1003-.0794-.1513-.1191-.0154-.0295-.0308-.0588-.0463-.0883h-.0648c-.0879-.0693-.1759-.1385-.2639-.2079h-.1821c-.0124-.0345-.0247-.069-.0363-.1035-.0116-.0142-.0926-.064-.1404-.0973-.0263-.0368-.0517-.0737-.078-.1105h-.0818c-.0602-.0381-.0818-.0482-.1373-.0812v-.0227h-.0394c-.0671-.0388-.1589-.0958-.179-.1032v-.0005h-.328c-.0725-.1039-.1466-.2078-.2191-.3115h-.2192c-.0363-.069-.0725-.1382-.1088-.2075-.1466-.0346-.2917-.0692-.4375-.1037-.0371-.0692-.0734-.1384-.1096-.2078-.152-.0121-.3041-.0241-.4569-.0361-.0308-.057-.0609-.1142-.091-.1711h-.328v-.1039h-.5726c-.1041-.1661-.2361-.3746-.3017-.4154-.0517-.032-.1165-.0228-.1752-.0318-.0517-.0586-.1026-.117-.1543-.1756-.1459-.0343-.2917-.0692-.4368-.1039v-.1035h-.4375v-.1039h-.2192c-.037-.0692-.0725-.1384-.1103-.2076-.2732-.134-.507-.0359-.7162.0049-.0887-.1055-.1782-.211-.267-.3165-.1828-.0306-.365-.0611-.5471-.0917v-.0118h-.071c-.2145-.036-.429-.0717-.6428-.1077-.0177-.0332-.0347-.0667-.0525-.0999h-.2191v-.1039h-.4098c-.0818-.1039-.1636-.2076-.2462-.3116h-.2191v-.1038h-.4368v-.1038h-.3279v-.1039h-1.0951c-.0725-.1037-.145-.2076-.2184-.3113h-.2183v-.1037h-1.2039v-.1039h-.2191v-.1039h-.5471v-.1037h-.2184v-.1039h-.656v-.1038h-.2191v-.1036h-.5471c-.0363-.0692-.0726-.1385-.1089-.2077h-.2199v-.1037h-.2176v-.1039h-1.0942252c-.0363-.0692-.0734-.1382-.1096-.2074h-1.0943c-.0362-.0692-.0725-.1386-.1095-.2078h-1.0943v.1039h-.2176v.1039c-.1104.0343-.2192.0692-.3295.1035-.0363-.0692-.0726-.1382-.1088-.2074h-.2192v-.1039c-.2546-.0345-.5108-.0692-.7655-.1037-.0363-.0692-.0725-.1386-.1096-.2078h-.2184v-.1035c-.3448749-.1254-1.4337.135-1.5318.1035-.0362-.0692-.0725-.1384-.1095-.2074h-.2184v-.1039h-.9855v-.1037c-.4012.0346-.8016749.0692-1.2022.1037v-.1037h-.3288v-.1038c-.2639-.0755-.4213.1179-.5471.1038v-.1038c-.7663-.0347-1.5318-.0692-2.2980999-.1039v-.1037c-.400475.0345-.8018.0692-1.203.1037v-.1037h-.2184v-.1039c-.3997-.1337-1.0997.1477-1.3126.1039-.2114751-.043-.4646-.3228-.8751-.2076v.1037h-.4383751c-.0362249.0692-.0725249.1384-.1088249.2076-.2191-.0692-.4375-.1384-.6567-.2076V.0277239h-1.3134v.1037c-.1304.0147-.7539-.1984-1.0934-.1037-.2076.0577-.6089.1605-.9846752.1037-.1574247-.0236-.4646247-.1963-.7663247-.1037v.1037c-.1821.0349-.3642.0692-.5463.1039-.0008.0012-.0016.0025-.0016.0038-.2184-.0275-.429.0019-.6173.0485-.0116-.0146-.0294-.0484-.0386-.0523h-.4368v-.1039c-.0008-.0004-.0023.0005-.0030753.0004h-.216V.0279239c-.2663247-.084-.4114247.1039-.5479247.1039-.1405,0-.2732-.1728-.5464-.1039v.1039h-.3286753v.1037h-.1088246v-.1037h-.3288V.0279239c-.4236-.1165-.8703754.1535-1.1289.404-.0964754.0203-.1922.0534-.2917.1148-.0107754.015-.0209.0299-.0317.0448-.1550754-.0656-.2485-.1413-.4074-.2522v-.1038h-.328v-.1037c-.2701-.0858-.7069.0506-.8759.1037v.1038h-.1087754v-.1038c-.3873245-.0784-.6297245.1202-.8751245.1038-.1064-.0071-.4815-.1986-.7655-.1038v.1038h-.2191v.1039c-.2917-.0347-.5834-.0692-.8751-.1039v.1039c-.1466.0345-.2917.0692-.4383.1037v.1039c-.3643-.0345-.7293-.0692-1.0935-.1039v.1039h-.2192v.1039h-.9846v.1035h-.2192c-.0363.0694-.0725.1386-.1088.2078h-.2192c-.0362.0692-.0725.1384-.1088.2076h-.2191v.1038c-.3643-.0346-.7293-.0691-1.0934756-.1038v.1038h-.3287244c-.0732756.1036-.1459.2075-.2184.3113h-.6567v.1037h-.328v.1039h-.5471v.1039c-.1450757.0345-.2917.0692-.4383.1035-.0363.0696-.0726.1386-.1087757.2078-.1459243.0345-.2917243.0692-.4376243.1037v.1039c-.233.0584-.6142-.241-.9846-.1039v.1039h-.2184c-.1466.1731-.2925.3461-.4383.5189,0,0-.5225-.1508-.656-.1037v.1037c-.1458.0346-.2924.0693-.4375.1038-.0725758.1039-.1465758.2076-.2192.3115-.2191.069-.4383.1382-.6567.2074v.1039c-.1088.0692-.2184.1384-.3279.2076v.2078h-.1096c-.0533-.1153-.3488-.1699-.5464-.1039v.1039h-.3279v.1035c-.2362.1278-.365.2259-.4384.5192h-.6567c-.2153.2446-.4452.2421-.5471.6228-.5795.0519-.6883.2243-.9839.5188-.0733.0347-.1457759.0692-.2199.1039v.2076c-.0725.0347-.1451.069-.2176.1037-.0362759.1037-.0732759.2076-.1104.3115-.3278759.0345-.6558759.0692-.9838759.1037v.1039c-.1458241.1039-.2924241.2074-.437524.3113v.3114h-.1096v.3113c-.1458.1039-.2917.2076-.4375.3115v.1039h-.2192c-.2554.2766-.5101.5535-.7655.8303h-.1088v.2074c-.0371.0036-.0741.007-.1111.0106-.0826-.0036-.1567.0072-.2285.0216-.2515.0239-.5031.048-.7547.0717v.1039c-.1095.0345-.2191.0692-.3287.1037-.1335.4094-.0255.1303-.328.3113v.1039h-.2191c-.0363.0692-.0726.1384-.108776.2075h-.2192239c-.1096.1731-.2191.346-.328.5191-.1103.0345-.2191.0692-.3287.1037v.1039c-.0972.0692-.1945.1384-.2917.2074h-.0355l-.108.1021c-.0008.0005-.0016.0012-.0023.0018v.0005l-.2184.2069c-.0733.2076-.1459.4152-.2184.6227h-.3287v.1037h-.2177v.1039c-.1466.0347-.2932.0692-.4383.1039v.1037h-.3279c-.2555.3113-.5109.6228-.7663.9341-.1821.0347-.365.0693-.5464.1038-.0724762.1384-.1466.277-.2191.4154-.4746.415-.9483762.8303-1.4215,1.2455-.037.1384-.0741.2768-.1103.4152-.1088.0345-.2192.0692-.328.1037v.1039c-.1088.0692-.2191.1384-.3287.2076-.1436.2101.02.4633-.1096.7266-.0725.0345-.1451.0692-.2184.1039-.0363.1382-.0733.2766-.1088.415-1.2007.243-1.0387,1.2933-1.8598,1.7647v.415h-.1095c.0362237.1731.0725.346.1095.5191-.8218.1666-.6158.6105-.9854,1.1418-.1088.069-.2184.1382-.328.2074-.0362.2078-.0733.4153-.1095.6228h-.1096v.1038h.1096v.7267c-.1536.2874-.6173763.1675-.7655.7264-.4175.4465.1805,1.3182.2183,1.7648h-.2183v.2074h-.1096c-.0726.1039-.1466.2076-.2192.3115-.2979.2099-.4306.1166-.5463.5188-.1706.1762-.2501.7382-.1096,1.0382.0725.0346.1451.0691.2184.1038v.8302c-.1088.0347-.2184.0692-.328.1039-.0664.0507-.4105.5535-.4375.6227-.2184.5617.0879236.914.1589236,1.3503-.047.1679-.0741236.3395-.1003236.5182h-.0586v.2074h-.1096v.7266h-.1088v.3115h-.1104c.0363.2076.0733.415.1104.6228-.0371.2422-.0741.4842-.1104.7264.0278.0883.1096.1821.1821.2801.0116236.1143.024.2286.0363.3431h-.1096v.5188h-.1088v.1039h.1088c.0108.0584.0209236.1167.0309236.1751.0261764.2503.0524764.501.0786764.7514v.0074h-.108v.4152h.108v1.3495h.1096v.2078c.0363.0174.0733.0349.1103.0523v.1549h.1088v.1041c.0031.0014.0062.003.0093.0045.0162.1788.0316.3573.0479.5361-.071.1183-.1498.238-.166.2897-.1219.3812.1536.6366.2177.8304v.7266h.1103v.3113h.1088v.3115c.0726236.0347.1459.0692.2192.1039v.2075c.0362.0261.0733.052.1096.078v.0256h.0362c.0247.0178.0494.0354.0741.053v.2583h.1088v.4153h-.0008v1.0381c.0479.1185.5464.5189.5464.5189.0648.1706-.1057.1923-.1088.2078.0363.3114.0733.6227.1088.9342.1829.1236.365.2471.5479.3709v.0439c.071.0338.1427.0679.2145.1017.0016.0007.0031.0016.0039.0024v1.3494h.1088237v.2075c.0740763.0347.1465763.0691.2198763.1038.0363.173.0725.3459.1088.519.1821.1382.3642.2768.5471.4152v.3114c.0733.0346.1459.0692.2192237.1039v.2074h.1087763c.1497.1557.0571.1348.328.2076v.4152c.2785.2162.3557.5235.5471.8303h.1096v.2078h.1096c.037.0692.0733.1384.1095.2076h.2184238v.1039h.2198762c.0363.1035.0726.2074.1089.3113.1088.0692.2191.1384.3279.2076.0363238.173.0726.3457.1096.5188h.1096c.1451238.1731.2917.346.4375.5191h.4376238v.1037h.1094762v-.1037h.1289c.0286238.303.1173.484.2693.6031.0132.1104.0255.2208.0386.3311h.1104c.0362.1037.0725.2076.1088.3115.25.0658.2639.0906.4383.2074v.1039c.2577.0544.517.1091.7763.1635.0864.0899.1597.1871.2902.2364.1196.3646.2986.5562.6829.7417v.1039c.1343.0532.2601.0359.3735.0273.1111.1808.2215.3409.2847.3877h.1297c.0501.0395.1003.0794.1512.1191.0155.0295.0309.0588.0463.0883h.0649c.0879.0694.1759.1386.2639.2079h.1821c.0123.0345.0247.069.0363.1036.0115.0142.0926.0639.1404.097.0255.037.0517.0739.0779.1109h.0826c.0602.0379.081.048.1366.0811v.0226h.0394c.0671.0388.1589.0958.179.1033v.0004h.328c.0725.1039.1466.2078.2191.3115h.2192239c.036176.0692.072476.1384.108776.2077.1458.0344.2917.0691.4375.1036.0371.0692.0733.1384.1096.2077.152.0121.304.0241.4568.0362.0309.0569.061.1141.0911.1711h.328v.1038h.5733c.1034.1661.2354.3746.301.4154.0517.032.1165.0228.1752.0318.051724.0586.1026.117.1543.1756.1458.0345.2917.0692.4368.1039v.1037h.4375v.1037h.2192c.0362.0692.0725.1384.1103.2076.2732.1339.5062.0359.7161-.0047.0888.1055.1775241.211.2663.3165.1829.0306.365.0611.5479.0917v.0118h.071c.2145.0358.429.0716.6428.1075.0177.0333.0347.0667.0524.0999h.2192v.1039h.4098c.0818.1039.1636.2078.2461241.3118h.2183759v.1036h.4376241v.1038h.3278758v.1039h1.0943c.0733.1037.1458242.2076.2191.3115h.2184v.1035h1.2038v.1039h.2184v.1039h.5472v.1037h.2191v.1039h.6559v.1039h.2192v.1037h.5471c.0363.069.0726243.1384.1088.2075h.22v.1038h.2176v.1038h1.0942243c.0362757.0692.0732757.1384.1095757.2076h1.0943c.0362.0692.0725.1386.1095.2076h1.0943v-.1037h.2176v-.1039c.1103-.0345.2191-.0692.3287244-.1037.0370756.0692.0732756.1384.1095756.2076h.2192v.1037c.2546.0345.51.0692.7655.1037.0362.0692.0725.1386.1096.2078h.2183v.1037c.345.1254,1.4338244-.1352,1.5318244-.1037.0362755.0692.0725755.1384.1095755.2076h.2184245v.1038h.9853755v.1036c.4013-.0345.8018-.0692,1.2023-.1036v.1036h.3288v.1039c.2639.0754.4213-.118.5471-.1039v.1039c.7663.0346,1.5318.0691,2.2980999.1038v.1037c.4005-.0345.8017-.0692,1.203-.1037v.1037h.2184v.1039c.3997.1337,1.0996-.1477,1.3126-.1039.2115.0432.4646.3228.8751.2078v-.1039h.4383c.0363-.0692.0726-.1384.1088-.2076.2192.0692.4376.1384.6567.2076v.1039h1.3134247v-.1039c.1304752-.0147.754.1984,1.0934752.1039.2076-.0579.6089-.1607.9847-.1039.1574.0237.4645.1963.7663.1039v-.1039c.1821-.0347.3642-.0692.5463-.1039.0008-.0012.0016-.0025.0016-.0037.2184.0275.429-.002.6173-.0486.0116.0146.0293249.0484.0386.0523h.4368v.1039c.0007.0004.0023-.0005.0031-.0003h.216v.1038c.2663.084.4113-.1038.5479-.1038.1405,0,.2732.1727.5464.1038v-.1038h.3287v-.1037h.1088249v.1037h.3287751v.1038c.4236.1165.8704-.1533,1.1289-.404.0965-.0203.1922-.0534.2917-.1148.0108-.0148.0209-.0297.0317-.0446.1558.0656.2484.1411.4074.252v.1039h.328v.1037c.2701.0857.7068-.0507.8758-.1037v-.1039h.1088v.1039c.3874.0785.6297-.1203.8751-.1039.1065.0072.4816.1988.7655.1039v-.1039h.2192v-.1039c.2917.0347.5834.0692.8751251.1039v-.1039c.1465749-.0345.2916749-.0692.4382749-.1035v-.1039c.3642.0345.7292.0692,1.0935.1039v-.1039h.2191v-.1039h.9847v-.1037h.2192c.0362252-.0694.0725-.1386.1088-.2078h.2191c.0363252-.0692.0726-.1384.1088-.2074h.2192v-.1039c.3642.0347.7292.0692,1.0935.1039v-.1039h.3287c.0733-.1037.1459-.2075.2184-.3114h.6567252v-.1037h.328v-.1039h.5471v-.1037c.1451-.0345.2917-.0692.4383-.1037.0363-.0694.0725-.1386.1088-.2078.1459-.0345.2917-.0692.4376-.1037v-.1039c.233-.0584.6142.241.9846.1039v-.1039h.2184c.1466-.1729.2925-.3459.4376-.5188,0,0,.5232.1507.6559.1037v-.1037c.1466-.0347.2932-.0694.4383-.1039.0725-.1039.1466-.2074.2192-.3113.2191-.0692.4375-.1384.6567-.2076v-.1039c.1088-.0692.2183-.1384.3279-.2076v-.2076h.1088c.0541.1151.3496.1697.5472.1039v-.1039h.3279v-.1037c.2362-.1277.365-.2259.4376-.519h.6574c.2153-.2446.4453-.2423.5464-.623.5803-.0519.6891-.2243.9847-.5188.0733-.0347.1458-.0692.2191-.1039v-.2074c.0733-.0347.1459-.0692.2184-.1039.0363-.1037.0725-.2076.1104-.3115.3271-.0345.6559-.0692.9839-.1035v-.1039c.1458-.1039.2924-.2076.4375-.3114v-.3115h.1096v-.3113c.1458-.1039.2917-.2076.4375-.3115v-.1039h.2192c.2554-.2766.5101-.5535.7655-.8301h.1088v-.2076c.037-.0036.0748-.007.1119-.0106.0826.0036.1559-.0072.2276-.0216.2516-.0239.5032-.048.7547-.0717v-.1039c.1096-.0345.2192-.0692.3288-.1035.1335-.4096.0254-.1305.3279-.3115v-.1039h.2192c.0363-.0691.0725-.1383.1088-.2075h.2192c.1095-.1729.2191-.346.3279-.5191.1104-.0345.2192-.0692.3288-.1037v-.1039c.0972-.0692.1944-.1384.2917-.2074h.0355l.108-.1021c.0008-.0005.0015-.0012.0023-.0018v-.0005l.2184-.2069c.0725-.2076.1458-.415.2184-.6227h.3287v-.1037h.2176v-.1039c.1467-.0347.2933-.0692.4384-.1039v-.1035h.3279c.2554-.3115.5109-.623.7663-.9343.1821-.0346.365-.0693.5464-.1038.0725-.1384.1466-.277.2191-.4154.4738-.415.9484-.8302,1.4215-1.2455.037-.1384.074-.2766.1103-.4152.1088-.0345.2192-.0692.328-.1037v-.1039c.1088-.0692.2191-.1384.3287-.2075.1435-.2102-.0201-.4632.1096-.7267.0725-.0343.1451-.069.2184-.1037.0362-.1384.0733-.2768.1088-.4152,1.2007-.243,1.0387-1.2933,1.8597-1.7645v-.4152h.1096c-.0363-.1729-.0725-.346-.1096-.5191.8219-.1666.6158-.6105.9855-1.1416.1088-.0692.2184-.1384.3279-.2076.0363-.2077.0733-.4152.1096-.6227h.1096v-.1039h-.1096v-.7267c.1536-.2872.6174-.1675.7655-.7264.4175-.4465-.1805-1.3182-.2184-1.7646h.2184v-.2076h.1096c.0725-.1039.1466-.2076.2192-.3115.2978-.2097.4306-.1164.5463-.5188.1706-.176.25-.738.1096-1.038-.0725-.0346-.1451-.0692-.2184-.1038v-.8304c.1088-.0347.2184-.0692.328-.1039.0663-.0507.4105-.5535.4367-.6227.2192-.5615-.0872-.9138-.1581-1.35.047-.1677.074-.3397.1003-.5183h.0578v-.2076h.1104v-.7266h.1088v-.3115h.1104c-.0363-.2074-.0734-.415-.1104-.6228.037-.2421.0741-.4841.1104-.7264-.0278-.0883-.1089-.1821-.1822-.28-.0115-.1143-.0239-.2287-.0362-.3431h.1095Z"/>
      <path class="cls-2" d="M36.3475991,72.1052239c.0723-.0768.1446-.1537.2169-.2305-.0099-.0557-.0199-.1114-.0292-.1671.0266-.0045.0524245-.009.0796-.0136.0743-.3162-.1207-.4938-.1147-.6682.0259-.0047.0524-.0091.0789-.0136-.0146-.0836-.0292-.1671-.0438-.2507.0266-.0045.0531-.009.079-.0134-.006-.0178-.0113-.0357-.0165755-.0534h.0052755v-.3391h-.0802755v-1.441h-.0802245v-.1695c-.1067755-.0847-.2142-.1696-.321-.2541-.0624-.1582.0802245-.2544.0802245-.2544-.0272245-.2262-.0537245-.4521-.0802245-.6783h-.0796v-.1695c-.134-.0847-.2679-.1694-.4019-.2541v-.2544h-.0796c-.0544-.0849-.1074-.1694-.1612-.2543-.1339-.0284-.2672-.0564-.4012-.0848-.134-.1978-.2672755-.3954-.4006-.5932-.2083-.1517-.7939-.2452-1.1235-.2544-.0597-.2392-.1433-.2435-.2401-.4239-.1665-.0324-.1578-.0839-.1610755-.0846h-.4013244v-.0849c-.1068-.0283-.2136-.0563-.321-.0847v-.0847c-.2136.0282-.4271.0565-.6413.0847-.0266-.0565-.0538-.1131-.0803-.1695-.118-.0208-.2368-.0417-.3555-.0626-.0709-.1017-.1425756-.2033-.2142-.3049-.2487-.0112-.5113-.1803-.8191-.0312-.0238.0114-.0617.0406-.0888.0595h-.9292c-.002.0007-.061.0638-.1705.0743-.0252-.0005-.0437-.0037-.0703-.0037v-.0706c-.1604756-.0365-.4642.0614-.6579.1249-.0875.0131-.1625.0272-.248.0447h-.7787v.0848c-.1717.124-.2652.3347-.4815.1696h-.642v.0847c-.2361.1761-.3435.4377-.5617.5934v.2542c-.388-.0109-.7866-.0459-.9623.1695-.2189.0648-.1831.0202-.2408.2543-.0802.0283-.1605.0565-.2407.0849-.0531.2258-.1068.452-.1605.678h-.0803c-.0922.1295-.1140758.1467-.1598.339-.2268.0634-.2308.1516-.4012758.2544-.1001242.4783-.3402242,1.0774.0802758,1.4408-.1877.1415-.3747.2827-.5624.424v.1695h-.0803c-.1267.2991.0352.507,0,.6781h-.0802v.2543h-.0796c.0265.1977.053.3955.0796.5933.0537.0284.1074.0565.1605.0849v.0021c-.004.0049-.008.0097-.012.0145-.1207.3671.2222.9439.1506,1.3501-.0259.0045-.0524.009-.0789.0136-.0073.1159-.0145758.232-.0219.3477-.0259.0047-.0524.0091-.079.0136.0193242.1114.0385.2227.0577.3343.0266242-.0045.0524-.0091.079-.0136.0809.4734.1625.9467.244,1.4201.0266242-.0045.0524-.0091.079-.0136.0092.0557.0192.1114.0285.1671.12.0654.2401242.1309.3594.1962.0889.1451-.0358.2641-.0358.2641.065.2184.1294.4366.1937.655.0265-.0047.053-.0092.0789-.0136.01.0557.0192.1114.0285.1669.1466.061.2932.1217.4391.1826.0146.0835.0292.1671.0438.2507.0258-.0047.0524-.0091.0782-.0136.0677.0744.1347.1489.2016.2233.1367242.0053.2726.0105.4099.0158.1652.1722.3303.3442.4954.5166.2308.1143.8238.1071,1.1501.0604.1001.2256.1823243.2157.309.377.1691.0038.1698.0559.1725.0562.0338243-.0058.0676-.0116.1014-.0174.1493.0622.3078.1118.5021.0556.0026-.0009.0073243-.0039.0099-.0047.0425.0038.0849.0075.1274243.0113.0045757.0277.0092757.0557.0145757.0834.1897-.059.3793-.1181.569-.1771v.0022h.0604243c.0324757.0454.0642757.0908.0960757.1361.0796.0003.1592.0007.2395.001.0862.0197.1505.0439.2586.0579.002.0089.0033.0179.0047.0267.0378-.0065.0756-.013.1127-.0194.0153.0014.0325.0013.0478.0028.0039.0243.0086244.0486.0126244.0729.0980756.0173.1657756-.0234.2346756-.0582.1692.0078.3217.0062.4875-.003.0013.0075.0027.015.004.0224.0889-.0152.1777-.0305.2666-.0457.0783-.0106.1486-.0211.2169-.0373.181-.0312.3621-.0624.5438-.0936.0027-.0011.0431-.1313.2229-.1243.0046244.0278.0093.0555.0139.0836.2043.0107.638-.2415.7627244-.3033.2891756-.0497.579-.0997.8694755-.1496-.0047-.0277-.01-.0555-.0146-.0834.1486-.1513.2049-.3747.4457-.2487.2115-.0363.4218-.0724.6327-.1087-.0046-.0277-.01-.0557-.0139-.0834.2023-.2136.2639-.4898.4523-.68-.0139-.0836-.0285-.1671-.0425-.2507.3834-.0549.7826-.088.9199-.3301.2043-.1008.1764-.0509.1937-.2913.0749-.0417.1486-.0829.2228-.1244.014-.2318.0292-.4638.0431-.6956.0266-.0044.0531-.0091.0796-.0136.069-.1432.0876-.1639.1002-.3612.2129-.1009.2016-.1884.3521-.3186.016-.4455.1075-.9976-.2341-1.3111.0372-.0311.0736-.0621.1108-.0932.0431-.0806.0597245-.1791.0656-.2847Z"/>
      <path class="cls-2" d="M25.9440993,83.3603239h.0651c-.0217-.1382-.0434-.2762-.0651-.4142h-.0656c.0217-.1382.0439-.2762.0656-.4142h-.0656v-.2071c-.0435-.023-.0869-.0461-.1307757-.069-.0217243-.2302-.0434243-.4602-.0651243-.6904-.0868-.0689-.1742-.138-.2615-.2071v-.4141c-.1302-.1151-.2615-.2301-.3918-.3451h-.1964v-.0691h-.1301757c-.0694242-.0646.0650758-.0689.0650758-.0689v-.0691h-.0650758v-.2762c-.0873242-.0689-.1747242-.138-.2615242-.2071v-.138c-.0434-.023-.0868-.046-.1308-.0691v-.069c-.141-.1002-.3472.0242-.5225-.069-.0651-.092-.1307-.1841-.1964-.2761-.192-.1137-.4247758.0404-.5225,0-.0434-.0691-.0868-.138-.1307-.2071-.0868-.0229-.1742-.046-.261-.0691v-.0689h-.2615v.0689c-.1090758-.0229-.2176-.046-.3266-.0689v-.0691c-.1742.0231-.3484.046-.5224758.0691v-.0691h-.1308242v-.0691h-.6533v-.0689c-.1372-.0384-.1958.0689-.1958.0689h-.0657v-.0689h-.5225v-.0691c-.0857-.0381-.3168-.1151-.4574-.0691v.0691h-.1958v.0691h-.458v.0689c-.2951.0827-.2843.2674-.3916759.5524h-.0651241v.345h-.0656c-.146.1401-.4547.0498-.6532759.1381-.1308241.115-.261.2301-.3923241.3452-.0238.1367-.0651.138-.0651.138v.4142c-.0651.046-.1307.092-.1959.1381.0218.2991.0435.5982.0652.8973h-.0652v.1382c-.0434.0229-.0873.046-.1306759.0689-.063524.1307-.226824,1.4583-.130824,1.7258h.0657v.138c.0868.0691.174124.1381.261.2071-.0217.069-.0434.1381-.0652.2071h-.0656c-.1563.5491.4237,1.308.523,1.7257.3722.1131.1286.1164.2616.3451.0868.0691.1736.1382.2609.2071v.0691c.1959.046.3923.092.5882.138.0217.046.0434.092.0651.1381h.1307c.1091.1841.2182.3681.3267.5522h.1307241v.0691h.1307759v.0689h.1959v.0691c.1307.046.2615.092.3922.138v.0691c.261-.0231.5225-.046.784-.0691v.0691h.1308v.0691h.6533242v-.0691h.1301758c.0222-.046.0439-.092.0656-.138.1807.0275.5936.2888.9148.138.0217-.046.0434242-.092.0651-.138h.1308v-.0691h.5225242v-.0691c.2494758-.0643.4095758-.2757.4572758-.5521.1525-.0231.305-.0461.4574-.0691v-.069c.4905-.1347.312-.703.4574-1.1735.0874-.023.1742-.046.2615-.069.0532-.2158.1536-.3092.1959-.5523.1959-.0456.2962-.1316.4574-.2071.0293-.1664.1465-.5106.0651243-.7593h-.0651243c-.0217-.092-.0434-.1841-.0651-.2761.1085-.092.2175-.184.3266-.276v-.2071Z"/>
      <g>
        <path class="cls-1" d="M25.5701994,32.5792239c.0471-.05.0942-.1001.1413-.1502-.0064-.0363-.0129-.0726-.019-.1089.0173-.0029.0342243-.0058.0519-.0088.0484-.2061-.0786757-.3218-.0748-.4355.0169-.003.0342-.006.0515-.0089-.0096-.0544-.0191-.1089-.0286-.1634.0173-.0029.0346-.0058.0515-.0087-.0039-.0116-.0074-.0232-.0108-.0348h.0034v-.221h-.0523v-.9391h-.0523v-.1105c-.0696-.0552-.1396-.1105-.2092-.1656-.0406-.1031.0523-.1658.0523-.1658-.0177-.1474-.035-.2947-.0523-.4421h-.0519v-.1104l-.2619-.1656v-.1658h-.0519c-.0353757-.0553-.07-.1104-.105-.1658-.0873-.0184-.1742-.0367-.2615-.0552-.0873-.1289-.1742-.2577-.2611-.3866-.1357-.0989-.5174-.1598-.7322-.1658-.0389-.1559-.0933-.1587-.1564-.2763-.1085-.0211-.1029-.0547-.1051-.0551h-.2615v-.0553c-.0695758-.0185-.1392-.0368-.2092-.0552v-.0553c-.1392.0184-.2783.0369-.418.0553-.0172-.0369-.035-.0737-.0523-.1105-.0769-.0136-.1543-.0272-.2316-.0408-.0463-.0663-.093-.1325-.1396-.1987-.1621-.0073-.3333-.1175-.5338758-.0204-.0155242.0075-.0402242.0265-.0579242.0388h-.6055c-.0013.0005-.0398.0416-.1111.0484-.0164-.0003-.0284759-.0023-.0458-.0023v-.0461c-.1046-.0237-.3026.04-.4288.0814-.0571.0085-.1058759.0177-.1617.0292h-.5074v.0552c-.112.0808-.1729.2182-.3137759.1105h-.4184241v.0553c-.1539.1147-.2239.2852-.3661.3867v.1657c-.2529-.0072-.5127-.03-.6272.1104-.1426.0422-.1192759.0132-.1569.1658-.0523.0184-.1046.0368-.1569.0553-.0346.1472-.0696.2945-.1046.4418h-.0523c-.0601.0844-.0743.0957-.1042.221-.1478.0413-.1503759.0988-.2615.1658-.0652.3117-.2217.7021.0523.939-.1223.0922-.2441759.1842-.3665.2763v.1105h-.0523c-.0826.1949.0229.3304,0,.4419h-.0523v.1658h-.0519c.0173.1288.0346.2577.0519.3866.035.0185.07.0369.1046.0553v.0014c-.0026.0032-.0052.0063-.0078.0094-.0787.2393.1448.6152.098124.88-.016824.0029-.034124.0058-.051424.0088-.0048.0756-.0095.1512-.0143.2266-.0168.0031-.0341.006-.0514.0089.0125.0726.025124.1451.0376.2178.0173-.0029.0341-.0059.0514-.0088.0528.3085.1059.617.159124.9255.0172759-.0029.0340759-.0059.0513759-.0089.0061.0363.0126241.0727.0186241.109.0781759.0425.1564759.0852.2342759.1278.0579.0945-.0234.1721-.0234.1721.0424.1423.0843.2845.1263.4269.0172-.0031.0345-.006.0514-.0089.0065.0363.0125.0726.0186.1088.0955.0398.191.0793.2861.119.0095.0545.019.1089.0285.1634.0169-.0031.0342241-.006.0511-.0089.044.0485.0877.0971.1314.1456.089.0034.1776.0068.2671.0102.1076241.1123.2152.2244.3229.3367.1504.0745.5368.0699.7495.0394.0652241.147.1188.1406.2014.2457.1102.0025.1106.0364.1124.0366.022-.0037.044-.0075.0661-.0113.0972.0405.2005.0728.3272.0362.0017-.0005.0047-.0025.0065-.003.0276241.0025.0553.0048.083.0073.003.0181.006.0363.0095.0544.1236-.0385.2472-.077.3708-.1154v.0014h.0394c.0211.0296.0419241.0592.0626.0887.0519.0002.1038.0004.1561.0006.0562241.0129.0981.0287.1685.0377.0013.0059.0022.0117.0031.0174.0246242-.0042.0492-.0084.0734-.0126.01.001.0212242.0009.0312242.0018.0025758.0159.0055758.0317.0081758.0476.064.0112.108-.0153.153-.0379.1102.005.2096.0039.3177-.002.0009.0049.0017.0097.0026.0146.0579-.0099.1158-.0199.1737-.0298.051-.0069.0969-.0138.1414-.0243.118-.0204.236-.0407.3544242-.061.0016758-.0007.0280758-.0856.1451758-.081.0031.0181.0061.0362.0091.0544.1332.0071.4158-.1573.4971-.1976.1884-.0324.3773-.065.5667-.0975-.0030758-.018-.0065-.0362-.0096-.0543.0969-.0987.1336-.2442.2905242-.1621.1378758-.0237.2748758-.0472.4123758-.0709-.0031-.0181-.0065-.0363-.0091-.0544.1318-.1391.172-.3192.2948-.4431-.0090758-.0545-.0186-.1089-.0277-.1634.2498-.0358.51-.0574.5995-.2151.1331243-.0657.115-.0332.1262-.1899.0489243-.0271.0968-.054.1453-.081.009-.1511.019-.3023.0281-.4534.0172-.0029.0345243-.0059.0518-.0088.045-.0934.0571-.1069.0653-.2355.1387-.0657.1314243-.1227.2295-.2076.0104-.2903.07-.6501-.1526-.8545.0242-.0202.048-.0404.0722-.0607.0281-.0525.0389-.1167.0428-.1856Z"/>
        <path class="cls-1" d="M41.6734989,32.5792239c.0471-.05.0942247-.1001.1413-.1502-.0065-.0363-.0129-.0726-.019-.1089.0173-.0029.0342-.0058.0519247-.0088.0483753-.2061-.0787247-.3218-.0748247-.4355.0169-.003.0342-.006.0514-.0089-.0095-.0544-.019-.1089-.0285-.1634.0173-.0029.0346-.0058.0514-.0087-.0038-.0116-.0073-.0232-.0108-.0348h.0035v-.221h-.0523v-.9391h-.0523v-.1105c-.0695753-.0552-.1395753-.1105-.2092-.1656-.0406-.1031.0523-.1658.0523-.1658-.0176753-.1474-.035-.2947-.0523-.4421h-.0519v-.1104l-.2619-.1656v-.1658h-.0519c-.0354-.0553-.07-.1104-.105-.1658-.0873-.0184-.1742-.0367-.2615-.0552-.0873-.1289-.1741753-.2577-.2611-.3866-.1357-.0989-.5174-.1598-.7322-.1658-.0388754-.1559-.0934-.1587-.1565-.2763-.1083754-.0211-.1028-.0547-.105-.0551h-.2615v-.0553c-.0696-.0185-.1392-.0368-.2092-.0552v-.0553c-.1392.0184-.2784.0369-.418.0553-.0173-.0369-.035-.0737-.0523-.1105-.0769-.0136-.1543-.0272-.2316-.0408-.0463-.0663-.093-.1325-.1397-.1987-.162-.0073-.3332-.1175-.5338-.0204-.0155.0075-.0402.0265-.0579.0388h-.6055c-.0013.0005-.0398.0416-.1111.0484-.0165-.0003-.0286-.0023-.0459-.0023v-.0461c-.1046-.0237-.3025.04-.4287.0814-.0571.0085-.1059.0177-.1617.0292h-.5074v.0552c-.112.0808-.1729.2182-.3138.1105h-.4184v.0553c-.1538755.1147-.2238755.2852-.3661.3867v.1657c-.2529-.0072-.5127-.03-.6272.1104-.1427.0422-.1193.0132-.1569.1658-.0523.0184-.1046.0368-.1569.0553-.0346.1472-.0696.2945-.1046.4418h-.0523c-.0601.0844-.0744.0957-.1042.221-.1478.0413-.1504.0988-.2615.1658-.0653.3117-.2217.7021.0523.939-.1223.0922-.2442.1842-.3664755.2763v.1105h-.0523245c-.0826.1949.0229.3304,0,.4419h-.0523v.1658h-.0519c.0173.1288.0346.2577.0519.3866.035.0185.07.0369.1046245.0553v.0014c-.0026245.0032-.0052245.0063-.0078245.0094-.0787.2393.1448245.6152.0981.88-.0168.0029-.0341.0058-.0514.0088-.0048.0756-.0095.1512-.0143.2266-.0168.0031-.0341.006-.0514.0089.0125.0726.025.1451.0376.2178.0173-.0029.0341-.0059.0514-.0088.0527.3085.1059.617.1591.9255.0173-.0029.0341-.0059.0514-.0089.0061.0363.0126.0727.0186.109.0782.0425.1565.0852.2343.1278.0579.0945-.0234.1721-.0234.1721.0424.1423.0843.2845.1262.4269.0173-.0031.0346245-.006.0515-.0089.0065.0363.0125.0726.0186.1088.0955245.0398.191.0793.2861.119.0095.0545.019.1089.0285.1634.0169245-.0031.0342-.006.051-.0089.0441.0485.0878.0971.1314.1456.0891.0034.1777.0068.2672.0102.1076.1123.2152.2244.3228.3367.1505245.0745.5369.0699.7495245.0394.0652755.147.1188755.1406.2014755.2457.1102.0025.1106.0364.1123.0366.0221-.0037.0441-.0075.0662245-.0113.0971755.0405.2004755.0728.3271755.0362.0017-.0005.0047-.0025.0065-.003.0276.0025.0553245.0048.0829.0073.0031.0181.0061.0363.0096.0544.1236-.0385.2472-.077.3708245-.1154v.0014h.0392755c.0212.0296.042.0592.0627245.0887.0518754.0002.1037754.0004.1560754.0006.0561.0129.0981.0287.1685.0377.0013.0059.0022.0117.0031.0174.0246-.0042.0492-.0084.0734-.0126.01.001.0212.0009.0312.0018.0026.0159.0056.0317.0082.0476.0639.0112.108-.0153.153-.0379.1102.005.2096.0039.3177-.002.0008246.0049.0017.0097.0026.0146.0579-.0099.1158-.0199.1737-.0298.051-.0069.0968-.0138.1414-.0243.118-.0204.236-.0407.3544-.061.0017246-.0007.0281-.0856.1452-.081.0031.0181.0061.0362.0091.0544.1331.0071.4158-.1573.4971-.1976.1884-.0324.3773246-.065.5666-.0975-.003-.018-.0064-.0362-.0095-.0543.0969-.0987.1336-.2442.2905-.1621.1379-.0237.2749-.0472.4123-.0709-.003-.0181-.0064-.0363-.009-.0544.1318-.1391.172-.3192.2948-.4431-.0091-.0545-.0186-.1089-.0277-.1634.2498-.0358.51-.0574.5995-.2151.1331-.0657.115-.0332.1262-.1899.0489-.0271.0968-.054.1452-.081.0091-.1511.0191-.3023.0281-.4534.0173247-.0029.0346-.0059.0519-.0088.045-.0934.0571-.1069.0653-.2355.1387-.0657.1314-.1227.2295-.2076.0104-.2903.07-.6501-.1526-.8545.0242247-.0202.048-.0404.0722247-.0607.0280753-.0525.0388753-.1167.0427753-.1856Z"/>
        <path class="cls-1" d="M57.7767985,32.5792239c.0471-.05.0942-.1001.1413-.1502-.0065-.0363-.013-.0726-.019-.1089.0173-.0029.0341-.0058.0519-.0088.0484-.2061-.0787-.3218-.0748-.4355.0168-.003.0341-.006.0514-.0089-.0095-.0544-.019-.1089-.0285-.1634.0173-.0029.0346251-.0058.0514-.0087-.0039-.0116-.0073-.0232-.0107749-.0348h.0034749v-.221h-.0523v-.9391h-.0523v-.1105c-.0696-.0552-.1396-.1105-.2092-.1656-.0406-.1031.0523251-.1658.0523251-.1658-.0177251-.1474-.035-.2947-.0523251-.4421h-.0519v-.1104l-.2619-.1656v-.1658h-.0518749c-.0354251-.0553-.07-.1104-.105-.1658-.0873251-.0184-.1742251-.0367-.2615251-.0552-.0873-.1289-.1742-.2577-.2611-.3866-.1357-.0989-.5173749-.1598-.7322-.1658-.0389-.1559-.0934-.1587-.1565-.2763-.1085-.0211-.1028-.0547-.105-.0551h-.2615v-.0553c-.0696-.0185-.139175-.0368-.209175-.0552v-.0553c-.139225.0184-.278425.0369-.418.0553-.017325-.0369-.035-.0737-.052325-.1105-.0769-.0136-.1543-.0272-.231675-.0408-.046225-.0663-.092925-.1325-.139625-.1987-.1621-.0073-.3332-.1175-.5338-.0204-.0155.0075-.0402.0265-.0579.0388h-.6056c-.0013.0005-.0397.0416-.111.0484-.0165-.0003-.0286-.0023-.0459-.0023v-.0461c-.1046-.0237-.3025.04-.4287.0814-.0571.0085-.1059.0177-.1617.0292h-.5074v.0552c-.112.0808-.1729.2182-.3138.1105h-.4185v.0553c-.1538.1147-.2238.2852-.3660751.3867v.1657c-.2528249-.0072-.5126249-.03-.6271249.1104-.1427.0422-.1193.0132-.1568751.1658-.0523249.0184-.1046249.0368-.1569249.0553-.0346.1472-.0696.2945-.1046.4418h-.0523c-.0601.0844-.0744.0957-.1041751.221-.1478249.0413-.1504249.0988-.2615249.1658-.0653.3117-.2217.7021.0523.939-.1223.0922-.2442.1842-.3665.2763v.1105h-.0522751c-.0826249.1949.0228751.3304,0,.4419h-.0523249v.1658h-.0519c.0173.1288.0346.2577.0519.3866.035.0185.07.0369.1046.0553v.0014c-.0026.0032-.0052.0063-.0078.0094-.0787.2393.1448.6152.0981.88-.0169.0029-.0341.0058-.0514.0088-.0048.0756-.0095.1512-.0143.2266-.0168751.0031-.0341.006-.0514.0089.0125249.0726.025.1451.0376.2178.0173-.0029.0341-.0059.0514-.0088.0527.3085.1059.617.1591.9255.0173-.0029.0341-.0059.0514249-.0089.0060751.0363.0124751.0727.0185751.109.0782.0425.1565.0852.2343.1278.0579.0945-.0234.1721-.0234.1721.0424.1423.0843.2845.1262.4269.0173249-.0031.0346-.006.0515-.0089.0065.0363.0125.0726.0186.1088.0955.0398.191.0793.2861.119.0095.0545.019.1089.0285.1634.0169-.0031.0342-.006.051-.0089.0441.0485.0878.0971.1314.1456.0891.0034.1777.0068.2671.0102.1077.1123.2153.2244.3229.3367.1504.0745.5369.0699.7495.0394.0653.147.1189.1406.2014.2457.1103249.0025.1107.0364.1124.0366.0221-.0037.0441-.0075.0662-.0113.0972.0405.2005.0728.3272.0362.0017-.0005.0047-.0025.0064-.003.0277.0025.0554.0048.083.0073.0031249.0181.0061249.0363.0095.0544.1237-.0385.2473-.077.3709-.1154v.0014h.0393c.0212.0296.042.0592.0627.0887.0519.0002.103725.0004.156.0006.0562.0129.0982.0287.1686.0377.0013.0059.0022.0117.003.0174.0247-.0042.0493-.0084.0735-.0126.01.001.0212.0009.0311.0018.0026.0159.0057.0317.0083.0476.0639.0112.108-.0153.153-.0379.110225.005.2096.0039.3177-.002.0008.0049.0017.0097.0026.0146.057925-.0099.1158-.0199.1737-.0298.051-.0069.0968-.0138.1414-.0243.118-.0204.236-.0407.3544-.061.0017-.0007.0281-.0856.1452-.081.003.0181.0061.0362.0091.0544.133125.0071.4158-.1573.497125-.1976.188375-.0324.377275-.065.566575-.0975-.003-.018-.0065-.0362-.0095-.0543.0968-.0987.1336-.2442.2905-.1621.1379-.0237.2749-.0472.4123-.0709-.003-.0181-.0065-.0363-.009-.0544.1318-.1391.172-.3192.2947-.4431-.009-.0545-.0185-.1089-.0275749-.1634.2497749-.0358.51-.0574.5994749-.2151.1331-.0657.115-.0332.1262-.1899.0488-.0271.0968-.054.1452-.081.0091251-.1511.0191251-.3023.0281251-.4534.0172749-.0029.0345749-.0059.0518749-.0088.0449-.0934.0571251-.1069.0653-.2355.1387-.0657.1314-.1227.2295-.2076.0104-.2903.07-.6501-.1526-.8545.0242-.0202.048-.0404.0722-.0607.0281-.0525.0389-.1167.0428-.1856Z"/>
        <path class="cls-1" d="M73.8801236,32.5792239c.0471-.05.0942-.1001.1413-.1502-.0065-.0363-.013-.0726-.019-.1089.0173-.0029.0341-.0058.0519-.0088.0484-.2061-.0787-.3218-.0748-.4355.0168-.003.0341-.006.0514-.0089-.0095-.0544-.019-.1089-.0285-.1634.0173-.0029.0346-.0058.0514-.0087-.0039-.0116-.0073-.0232-.0108-.0348h.0035v-.221h-.0523v-.9391h-.0523v-.1105c-.0696-.0552-.1396-.1105-.2092-.1656-.0407-.1031.0523-.1658.0523-.1658-.0178-.1474-.035-.2947-.0523-.4421h-.0519v-.1104l-.2619-.1656v-.1658h-.0519c-.0354-.0553-.07-.1104-.105-.1658-.0873-.0184-.1742-.0367-.2615-.0552-.0873-.1289-.1742-.2577-.2611-.3866-.1357-.0989-.5174-.1598-.7322-.1658-.0389-.1559-.0934-.1587-.1565-.2763-.1085-.0211-.1029-.0547-.105-.0551h-.2615v-.0553c-.0696-.0185-.1392-.0368-.2092-.0552v-.0553c-.1392.0184-.2784.0369-.418.0553-.0173-.0369-.035-.0737-.0523-.1105-.0769-.0136-.1543-.0272-.2317-.0408-.0462-.0663-.0929-.1325-.1396-.1987-.1621-.0073-.3332-.1175-.5338-.0204-.0156.0075-.0402.0265-.0579.0388h-.6056c-.0013.0005-.0397.0416-.1111.0484-.0164-.0003-.0285-.0023-.0458-.0023v-.0461c-.1046-.0237-.3025.04-.4288.0814-.057.0085-.1059.0177-.1616.0292h-.5075v.0552c-.1119.0808-.1729.2182-.3138.1105h-.4184v.0553c-.1538.1147-.2239.2852-.3661.3867v.1657c-.2528-.0072-.5126-.03-.6271.1104-.1427.0422-.1193.0132-.1569.1658-.0523.0184-.1046.0368-.1569.0553-.0346.1472-.0696.2945-.1046.4418h-.0523c-.0601.0844-.0744.0957-.1042.221-.1478.0413-.1504.0988-.2615.1658-.0653.3117-.2218.7021.0523.939-.1223.0922-.2442.1842-.3666.2763v.1105h-.0523c-.0825.1949.023.3304,0,.4419h-.0523v.1658h-.0518c.0173.1288.0346.2577.0518.3866.0351.0185.0701.0369.1046.0553v.0014c-.0025.0032-.0051.0063-.0077.0094-.0787.2393.1448.6152.0981.88-.0169.0029-.0342.0058-.0515.0088-.0047.0756-.0095.1512-.0142.2266-.0169.0031-.0342.006-.0515.0089.0126.0726.0251.1451.0377.2178.0172-.0029.0341-.0059.0514-.0088.0527.3085.1059.617.1591.9255.0172-.0029.0341-.0059.0514-.0089.006.0363.0125.0727.0186.109.0782.0425.1564.0852.2342.1278.058.0945-.0233.1721-.0233.1721.0424.1423.0843.2845.1262.4269.0173-.0031.0346-.006.0515-.0089.0064.0363.0125.0726.0185.1088.0956.0398.1911.0793.2862.119.0095.0545.019.1089.0285.1634.0169-.0031.0342-.006.051-.0089.0441.0485.0878.0971.1314.1456.0891.0034.1777.0068.2671.0102.1077.1123.2153.2244.3229.3367.1504.0745.5368.0699.7495.0394.0653.147.1189.1406.2014.2457.1103.0025.1107.0364.1124.0366.0221-.0037.0441-.0075.0661-.0113.0973.0405.2006.0728.3272.0362.0018-.0005.0048-.0025.0065-.003.0277.0025.0554.0048.083.0073.003.0181.0061.0363.0095.0544.1236-.0385.2473-.077.3709-.1154v.0014h.0393c.0212.0296.0419.0592.0627.0887.0519.0002.1037.0004.156.0006.0562.0129.0981.0287.1686.0377.0013.0059.0022.0117.003.0174.0247-.0042.0493-.0084.0735-.0126.01.001.0212.0009.0311.0018.0026.0159.0056.0317.0082.0476.064.0112.1081-.0153.1531-.0379.1102.005.2096.0039.3176-.002.0009.0049.0018.0097.0026.0146.058-.0099.1159-.0199.1738-.0298.051-.0069.0968-.0138.1413-.0243.118-.0204.236-.0407.3545-.061.0017-.0007.0281-.0856.1452-.081.003.0181.0061.0362.0091.0544.1331.0071.4158-.1573.4971-.1976.1884-.0324.3773-.065.5666-.0975-.003-.018-.0065-.0362-.0095-.0543.0968-.0987.1336-.2442.2905-.1621.1378-.0237.2749-.0472.4123-.0709-.003-.0181-.0065-.0363-.0091-.0544.1319-.1391.1721-.3192.2948-.4431-.0091-.0545-.0186-.1089-.0276-.1634.2498-.0358.51-.0574.5995-.2151.1331-.0657.1149-.0332.1262-.1899.0488-.0271.0968-.054.1452-.081.0091-.1511.019-.3023.0281-.4534.0173-.0029.0346-.0059.0519-.0088.0449-.0934.057-.1069.0652-.2355.1388-.0657.1314-.1227.2296-.2076.0103-.2903.07-.6501-.1526-.8545.0242-.0202.048-.0404.0722-.0607.0281-.0525.0389-.1167.0428-.1856Z"/>
      </g>
    </g>
  </g>
</svg>