<svg width="93" height="110" viewBox="0 0 93 110" fill="none" xmlns="http://www.w3.org/2000/svg">
<g clip-path="url(#clip0_25_839)">
<path d="M10.8065 55.2553C12.9912 56.1291 16.9087 54.8294 18.4778 53.2889C19.6219 52.1656 20.7274 46.7149 22.0248 44.4981C22.9412 42.932 27.351 37.1799 28.6314 36.0547C35.1526 30.324 50.8522 31.0954 57.5019 36.0051C58.2095 36.5275 64.9721 42.8177 65.2709 43.2655C67.2139 46.1774 65.9221 46.2299 68.9788 49.1966C70.4587 50.633 70.2367 52.4958 73.6687 51.6676C74.1929 51.5411 74.478 50.3804 74.6746 49.841L81.6177 54.64C87.2574 61.6718 91.5056 69.3672 92.6738 78.4935C93.8077 87.3515 91.9585 90.4458 87.547 96.9784C85.9599 99.3287 84.1626 102.211 81.3024 103.383C66.6407 110 55.996 110 35.5102 110C33.3793 109.79 30.7849 109.676 28.7306 109.249C23.5031 108.163 17.6496 105.426 13.1421 102.553C12.2656 101.994 10.754 101.872 10.1857 101.295C9.41441 100.512 9.75564 99.1308 9.31966 98.5472C8.71013 97.7314 7.41289 98.2148 6.74305 97.8162C3.92778 96.1409 0.133306 85.345 0.00252635 81.9349C-0.0405325 80.8122 0.478589 73.7149 0.662656 72.5544C1.22942 68.9811 5.31676 61.2883 7.37155 58.4395C7.91613 57.6844 10.4226 56.8264 10.8065 55.2553Z" fill="#FCD22D"/>
<path d="M10.8065 55.2553C10.4152 55.0988 9.5622 54.3328 9.40474 53.909C6.80301 46.9075 17.07 33.0176 22.2855 28.4583C22.6662 26.4323 20.5272 26.5096 19.8038 25.518C19.212 24.7066 19.3954 23.6155 18.8858 22.7977C18.5084 22.1921 17.3291 22.229 17.0823 21.0147C16.8549 19.896 17.4965 18.7877 17.4844 17.66C17.4595 15.332 16.5058 12.349 18.7797 10.2808C19.4346 9.6852 20.6092 9.89179 21.1806 9.52606C21.8196 9.11709 21.833 8.32488 22.692 7.88983C26.7163 5.85157 31.7395 6.38102 35.0827 9.50191C35.9006 10.2653 35.5435 12.3033 37.3143 11.9408C36.7575 10.2582 38.3865 10.1547 38.7145 9.40737C39.1804 8.3457 38.8878 6.89711 39.4445 5.94353C39.9572 5.06511 41.8585 4.68739 42.5738 3.94771C43.0653 3.43942 43.0092 2.45773 43.515 1.89512C44.2625 1.06364 49.6989 -0.00563494 50.8874 2.23544e-05C57.794 0.0328997 60.3464 9.79883 58.3518 15.1424C57.2011 18.2249 54.8613 19.6637 52.985 22.1605C54.3754 22.5267 55.8602 23.066 57.1242 23.7488C61.5295 26.1286 70.1786 32.509 72.8697 36.4637C75.6437 40.5404 76.4119 45.0743 74.6746 49.841C74.478 50.3804 74.193 51.5411 73.6687 51.6676C70.2367 52.4958 70.4587 50.633 68.9788 49.1966C65.9222 46.2299 67.2139 46.1774 65.2709 43.2655C64.9721 42.8177 58.2095 36.5275 57.5019 36.0051C50.8522 31.0954 35.1526 30.324 28.6315 36.0547C27.351 37.1799 22.9413 42.932 22.0248 44.4981C20.7275 46.7149 19.6219 52.1656 18.4779 53.2889C16.9088 54.8294 12.9913 56.1291 10.8065 55.2553Z" fill="#142D4E"/>
</g>
<defs>
<clipPath id="clip0_25_839">
<rect width="93" height="110" fill="white"/>
</clipPath>
</defs>
</svg>
